SplineFontDB: 3.2
FontName: Rockwell-CondensedBoldSC
FullName: Rockwell-Condensed Bold Small Caps
FamilyName: Rockwell-Condensed-SC
Weight: Bold
Copyright: Copyright (c) 1990 Adobe Systems Incorporated.  All Rights Reserved.Rockwell is a trademark of The Monotype Corporation plc.
Version: 1.00
ItalicAngle: 0
UnderlinePosition: -100
UnderlineWidth: 50
Ascent: 800
Descent: 200
InvalidEm: 0
sfntRevision: 0x00010000
LayerCount: 2
Layer: 0 1 "Back" 1
Layer: 1 1 "Fore" 0
XUID: [1021 671 1122818036 26350]
StyleMap: 0x0020
FSType: 0
OS2Version: 0
OS2_WeightWidthSlopeOnly: 0
OS2_UseTypoMetrics: 0
CreationTime: -2082844800
ModificationTime: 1760721256
PfmFamily: 17
TTFWeight: 700
TTFWidth: 7
LineGap: 0
VLineGap: 0
Panose: 2 2 8 0 0 0 0 0 0 0
OS2TypoAscent: 702
OS2TypoAOffset: 0
OS2TypoDescent: 224
OS2TypoDOffset: 0
OS2TypoLinegap: 0
OS2WinAscent: 941
OS2WinAOffset: 0
OS2WinDescent: 224
OS2WinDOffset: 0
HheadAscent: 702
HheadAOffset: 0
HheadDescent: 224
HheadDOffset: 0
OS2SubXSize: 500
OS2SubYSize: 500
OS2SubXOff: 0
OS2SubYOff: -500
OS2SupXSize: 500
OS2SupYSize: 500
OS2SupXOff: 0
OS2SupYOff: 250
OS2StrikeYSize: 50
OS2StrikeYPos: 250
OS2Vendor: 'DTPS'
OS2UnicodeRanges: 00000000.00000000.00000000.00000000
Lookup: 258 0 0 "'kern' Kerning Horizontal in Latin lookup 0" { "'kern' Kerning Horizontal in Latin lookup 0 subtable"  } ['kern' ('DFLT' <'dflt' > 'latn' <'dflt' > ) ]
MarkAttachClasses: 1
DEI: 91125
TtTable: prep
PUSHW_2
 511
 512
SCANTYPE
SCANCTRL
PUSHB_1
 50
SCVTCI
PUSHB_1
 33
SSWCI
PUSHB_1
 194
SSW
PUSHB_1
 32
SMD
SVTCA[y-axis]
EndTTInstrs
TtTable: fpgm
PUSHB_8
 7
 6
 5
 4
 3
 2
 1
 0
FDEF
DUP
GC[orig]
DUP
ROUND[Grey]
SUB
ABS
PUSHB_1
 3
CINDEX
GC[orig]
DUP
ROUND[Grey]
SUB
ABS
GT
IF
PUSHB_1
 5
CALL
ELSE
PUSHB_1
 6
CALL
EIF
ENDF
FDEF
MDRP[min,rnd,grey]
ENDF
FDEF
SRP1
SRP2
SLOOP
IP
ENDF
FDEF
MPPEM
PUSHB_1
 65
LT
IF
ALIGNRP
ELSE
POP
EIF
ENDF
FDEF
PUSHB_5
 0
 0
 0
 0
 7
MINDEX
PUSHB_1
 7
MINDEX
PUSHB_1
 7
MINDEX
PUSHB_1
 0
CALL
ENDF
FDEF
SWAP
DUP
PUSHB_1
 0
SWAP
WS
MDAP[rnd]

StartChar: .notdef
Encoding: 65536 -1 0
Width: 502
GlyphClass: 1
Flags: W
LayerCount: 2
Fore
SplineSet
-1 0 m 1,0,-1
 499 0 l 1,1,-1
 499 500 l 1,2,-1
 -1 500 l 1,3,-1
 -1 0 l 1,0,-1
9 10 m 1,4,-1
 9 490 l 1,5,-1
 489 490 l 1,6,-1
 489 10 l 1,7,-1
 9 10 l 1,4,-1
EndSplineSet
Validated: 9
EndChar

StartChar: exclam
Encoding: 33 33 2
Width: 292
GlyphClass: 1
Flags: W
LayerCount: 2
Fore
SplineSet
68 0 m 1,0,-1
 224 0 l 1,1,-1
 224 156 l 1,2,-1
 68 156 l 1,3,-1
 68 0 l 1,0,-1
116 235 m 1,4,-1
 177 235 l 1,5,-1
 221 501 l 1,6,-1
 221 702 l 1,7,-1
 72 702 l 1,8,-1
 72 501 l 1,9,-1
 116 235 l 1,4,-1
EndSplineSet
Validated: 9
EndChar

StartChar: quotedbl
Encoding: 34 34 3
Width: 474
GlyphClass: 1
Flags: W
LayerCount: 2
Fore
SplineSet
48 702 m 1,0,-1
 48 576 l 1,1,-1
 94 417 l 1,2,-1
 143 417 l 1,3,-1
 189 576 l 1,4,-1
 189 702 l 1,5,-1
 48 702 l 1,0,-1
285 702 m 1,6,-1
 285 576 l 1,7,-1
 331 417 l 1,8,-1
 380 417 l 1,9,-1
 426 576 l 1,10,-1
 426 702 l 1,11,-1
 285 702 l 1,6,-1
EndSplineSet
Validated: 9
EndChar

StartChar: numbersign
Encoding: 35 35 4
Width: 668
GlyphClass: 1
Flags: W
LayerCount: 2
Fore
SplineSet
121 182 m 1,0,-1
 82 -3 l 1,1,-1
 175 -3 l 1,2,-1
 214 182 l 1,3,-1
 386 182 l 1,4,-1
 347 -3 l 1,5,-1
 440 -3 l 1,6,-1
 479 182 l 1,7,-1
 630 182 l 1,8,-1
 630 275 l 1,9,-1
 498 275 l 1,10,-1
 529 422 l 1,11,-1
 630 422 l 1,12,-1
 630 515 l 1,13,-1
 549 515 l 1,14,-1
 588 702 l 1,15,-1
 495 702 l 1,16,-1
 456 515 l 1,17,-1
 284 515 l 1,18,-1
 323 702 l 1,19,-1
 230 702 l 1,20,-1
 191 515 l 1,21,-1
 39 515 l 1,22,-1
 39 422 l 1,23,-1
 171 422 l 1,24,-1
 140 275 l 1,25,-1
 39 275 l 1,26,-1
 39 182 l 1,27,-1
 121 182 l 1,0,-1
264 422 m 1,28,-1
 436 422 l 1,29,-1
 405 275 l 1,30,-1
 233 275 l 1,31,-1
 264 422 l 1,28,-1
EndSplineSet
Validated: 9
EndChar

StartChar: dollar
Encoding: 36 36 5
Width: 469
GlyphClass: 1
Flags: W
LayerCount: 2
Fore
SplineSet
216 -94 m 1,0,-1
 269 -94 l 1,1,-1
 269 -10 l 1,2,3
 345 -4 345 -4 392.5 46 c 128,-1,4
 440 96 440 96 440 170 c 0,5,6
 440 240 440 240 399 298.5 c 128,-1,7
 358 357 358 357 269 427 c 1,8,-1
 269 598 l 1,9,10
 294 589 294 589 305.5 569 c 128,-1,11
 317 549 317 549 318 513 c 1,12,-1
 430 513 l 1,13,14
 425 603 425 603 382 647.5 c 128,-1,15
 339 692 339 692 269 698 c 1,16,-1
 269 717 l 1,17,-1
 216 717 l 1,18,-1
 216 698 l 1,19,20
 140 691 140 691 95.5 645.5 c 128,-1,21
 51 600 51 600 51 530 c 0,22,23
 51 469 51 469 88.5 416.5 c 128,-1,24
 126 364 126 364 216 296 c 1,25,-1
 216 92 l 1,26,27
 159 95 159 95 155 203 c 1,28,-1
 30 203 l 1,29,30
 33 109 33 109 79 52.5 c 128,-1,31
 125 -4 125 -4 216 -10 c 1,32,-1
 216 -94 l 1,0,-1
269 248 m 1,33,34
 318 204 318 204 318 154 c 0,35,36
 318 130 318 130 304.5 113 c 128,-1,37
 291 96 291 96 269 92 c 1,38,-1
 269 248 l 1,33,34
216 471 m 1,39,40
 192 491 192 491 182.5 508 c 128,-1,41
 173 525 173 525 173 547 c 0,42,43
 173 586 173 586 216 598 c 1,44,-1
 216 471 l 1,39,40
EndSplineSet
Validated: 9
EndChar

StartChar: percent
Encoding: 37 37 6
Width: 604
GlyphClass: 1
Flags: W
LayerCount: 2
Fore
SplineSet
499 128 m 2,0,1
 499 87 499 87 495 76 c 128,-1,2
 491 65 491 65 478 65 c 0,3,4
 466 65 466 65 462 76.5 c 128,-1,5
 458 88 458 88 458 129 c 2,6,-1
 458 242 l 2,7,8
 458 283 458 283 462.5 295 c 128,-1,9
 467 307 467 307 479 307 c 256,10,11
 491 307 491 307 495 295.5 c 128,-1,12
 499 284 499 284 499 243 c 2,13,-1
 499 128 l 2,0,1
126 -8 m 1,14,-1
 201 -8 l 1,15,-1
 478 710 l 1,16,-1
 403 710 l 1,17,-1
 126 -8 l 1,14,-1
147 458 m 2,18,19
 147 417 147 417 143 406 c 128,-1,20
 139 395 139 395 126 395 c 0,21,22
 114 395 114 395 110 406.5 c 128,-1,23
 106 418 106 418 106 459 c 2,24,-1
 106 572 l 2,25,26
 106 613 106 613 110.5 625 c 128,-1,27
 115 637 115 637 127 637 c 256,28,29
 139 637 139 637 143 625.5 c 128,-1,30
 147 614 147 614 147 573 c 2,31,-1
 147 458 l 2,18,19
366 186 m 0,32,33
 366 80 366 80 393.5 36 c 128,-1,34
 421 -8 421 -8 479 -8 c 0,35,36
 539 -8 539 -8 565 40 c 128,-1,37
 591 88 591 88 591 186 c 0,38,39
 591 287 591 287 564 333.5 c 128,-1,40
 537 380 537 380 479 380 c 0,41,42
 417 380 417 380 391.5 331 c 128,-1,43
 366 282 366 282 366 186 c 0,32,33
14 516 m 0,44,45
 14 410 14 410 41.5 366 c 128,-1,46
 69 322 69 322 127 322 c 0,47,48
 187 322 187 322 213 370 c 128,-1,49
 239 418 239 418 239 516 c 0,50,51
 239 617 239 617 212 663.5 c 128,-1,52
 185 710 185 710 127 710 c 0,53,54
 65 710 65 710 39.5 661 c 128,-1,55
 14 612 14 612 14 516 c 0,44,45
EndSplineSet
Validated: 9
EndChar

StartChar: ampersand
Encoding: 38 38 7
Width: 594
GlyphClass: 1
Flags: W
LayerCount: 2
Fore
SplineSet
402 0 m 1,0,-1
 561 0 l 1,1,-1
 561 105 l 1,2,-1
 506 105 l 1,3,-1
 468 169 l 1,4,5
 477 184 477 184 486.5 204.5 c 128,-1,6
 496 225 496 225 505.5 249.5 c 128,-1,7
 515 274 515 274 521.5 295 c 128,-1,8
 528 316 528 316 530 329 c 1,9,-1
 561 329 l 1,10,-1
 561 434 l 1,11,-1
 442 434 l 1,12,13
 436 392 436 392 425.5 352.5 c 128,-1,14
 415 313 415 313 402 280 c 1,15,-1
 325 407 l 1,16,17
 434 483 434 483 434 572 c 0,18,19
 434 633 434 633 389.5 673 c 128,-1,20
 345 713 345 713 278 713 c 0,21,22
 244 713 244 713 213 701 c 128,-1,23
 182 689 182 689 159 668 c 128,-1,24
 136 647 136 647 123 618.5 c 128,-1,25
 110 590 110 590 110 558 c 0,26,27
 110 497 110 497 148 425 c 1,28,29
 85 374 85 374 55.5 321 c 128,-1,30
 26 268 26 268 26 205 c 0,31,32
 26 159 26 159 40.5 119 c 128,-1,33
 55 79 55 79 81 50 c 256,34,35
 107 21 107 21 144 5 c 128,-1,36
 181 -11 181 -11 224 -11 c 0,37,38
 264 -11 264 -11 299 3.5 c 128,-1,39
 334 18 334 18 373 50 c 1,40,-1
 402 0 l 1,0,-1
314 150 m 1,41,42
 292 114 292 114 258 114 c 0,43,44
 239 114 239 114 222.5 127.5 c 128,-1,45
 206 141 206 141 194 162.5 c 128,-1,46
 182 184 182 184 175.5 208.5 c 128,-1,47
 169 233 169 233 169 255 c 256,48,49
 169 277 169 277 177.5 293.5 c 128,-1,50
 186 310 186 310 208 329 c 1,51,-1
 314 150 l 1,41,42
266 506 m 1,52,53
 238 544 238 544 238 581 c 0,54,55
 238 599 238 599 250.5 611.5 c 128,-1,56
 263 624 263 624 281 624 c 0,57,58
 297 624 297 624 308 611.5 c 128,-1,59
 319 599 319 599 319 582 c 0,60,61
 319 540 319 540 266 506 c 1,52,53
EndSplineSet
Validated: 9
EndChar

StartChar: quotesingle
Encoding: 39 39 8
Width: 238
GlyphClass: 1
Flags: W
LayerCount: 2
Fore
SplineSet
49 702 m 1,0,-1
 49 576 l 1,1,-1
 95 417 l 1,2,-1
 144 417 l 1,3,-1
 190 576 l 1,4,-1
 190 702 l 1,5,-1
 49 702 l 1,0,-1
EndSplineSet
Validated: 9
EndChar

StartChar: parenleft
Encoding: 40 40 9
Width: 281
GlyphClass: 1
Flags: W
LayerCount: 2
Fore
SplineSet
255 711 m 1,0,1
 155 663 155 663 96 538 c 128,-1,2
 37 413 37 413 37 245 c 0,3,4
 37 172 37 172 49 102 c 128,-1,5
 61 32 61 32 87 -31 c 128,-1,6
 113 -94 113 -94 155 -143.5 c 128,-1,7
 197 -193 197 -193 255 -222 c 1,8,-1
 255 -127 l 1,9,10
 218 -90 218 -90 203.5 -2.5 c 128,-1,11
 189 85 189 85 189 245 c 0,12,13
 189 401 189 401 203.5 490 c 128,-1,14
 218 579 218 579 255 617 c 1,15,-1
 255 711 l 1,0,1
EndSplineSet
Validated: 9
EndChar

StartChar: parenright
Encoding: 41 41 10
Width: 281
GlyphClass: 1
Flags: W
LayerCount: 2
Fore
SplineSet
26 -222 m 1,0,1
 127 -174 127 -174 185.5 -49 c 128,-1,2
 244 76 244 76 244 244 c 0,3,4
 244 317 244 317 232 387 c 128,-1,5
 220 457 220 457 194 520 c 128,-1,6
 168 583 168 583 126 632.5 c 128,-1,7
 84 682 84 682 26 711 c 1,8,-1
 26 616 l 1,9,10
 63 579 63 579 77.5 491.5 c 128,-1,11
 92 404 92 404 92 244 c 0,12,13
 92 88 92 88 77.5 -1 c 128,-1,14
 63 -90 63 -90 26 -128 c 1,15,-1
 26 -222 l 1,0,1
EndSplineSet
Validated: 9
EndChar

StartChar: asterisk
Encoding: 42 42 11
Width: 521
GlyphClass: 1
Flags: W
LayerCount: 2
Fore
SplineSet
184 275 m 1,0,-1
 230 340 l 2,1,2
 230 343 230 343 230 346 c 0,3,4
 229 350 229 350 229 352 c 0,5,6
 229 376 229 376 238 400.5 c 128,-1,7
 247 425 247 425 260 445 c 1,8,9
 276 422 276 422 283.5 397 c 128,-1,10
 291 372 291 372 291 340 c 1,11,-1
 337 275 l 1,12,-1
 435 345 l 1,13,-1
 387 410 l 1,14,15
 360 418 360 418 342.5 430 c 128,-1,16
 325 442 325 442 296 473 c 1,17,18
 325 483 325 483 351 483 c 0,19,20
 382 483 382 483 408 473 c 1,21,-1
 484 498 l 1,22,-1
 447 609 l 1,23,-1
 370 583 l 1,24,25
 355 561 355 561 335 546 c 128,-1,26
 315 531 315 531 281 515 c 1,27,28
 285 577 285 577 318 620 c 1,29,-1
 318 702 l 1,30,-1
 202 702 l 1,31,-1
 202 620 l 1,32,33
 236 578 236 578 240 515 c 1,34,35
 205 531 205 531 185.5 546 c 128,-1,36
 166 561 166 561 151 583 c 1,37,-1
 74 609 l 1,38,-1
 37 498 l 1,39,-1
 113 473 l 1,40,41
 139 483 139 483 170 483 c 0,42,43
 196 483 196 483 225 473 c 1,44,45
 196 442 196 442 178.5 430 c 128,-1,46
 161 418 161 418 134 410 c 1,47,-1
 86 345 l 1,48,-1
 184 275 l 1,0,-1
EndSplineSet
Validated: 9
EndChar

StartChar: plus
Encoding: 43 43 12
Width: 667
GlyphClass: 1
Flags: W
LayerCount: 2
Fore
SplineSet
62 383 m 1,0,-1
 62 278 l 1,1,-1
 281 278 l 1,2,-1
 281 59 l 1,3,-1
 386 59 l 1,4,-1
 386 278 l 1,5,-1
 605 278 l 1,6,-1
 605 383 l 1,7,-1
 386 383 l 1,8,-1
 386 602 l 1,9,-1
 281 602 l 1,10,-1
 281 383 l 1,11,-1
 62 383 l 1,0,-1
EndSplineSet
Validated: 9
EndChar

StartChar: comma
Encoding: 44 44 13
Width: 292
GlyphClass: 1
Flags: W
LayerCount: 2
Fore
SplineSet
68 -187 m 1,0,1
 224 -179 224 -179 224 5 c 2,2,-1
 224 156 l 1,3,-1
 68 156 l 1,4,-1
 68 0 l 1,5,-1
 143 0 l 1,6,7
 143 -53 143 -53 125 -79 c 128,-1,8
 107 -105 107 -105 68 -109 c 1,9,-1
 68 -187 l 1,0,1
EndSplineSet
Validated: 9
EndChar

StartChar: hyphen
Encoding: 45 45 14
Width: 333
GlyphClass: 1
Flags: W
LayerCount: 2
Fore
SplineSet
38 188 m 1,0,-1
 296 188 l 1,1,-1
 296 306 l 1,2,-1
 38 306 l 1,3,-1
 38 188 l 1,0,-1
EndSplineSet
Validated: 9
EndChar

StartChar: period
Encoding: 46 46 15
Width: 292
GlyphClass: 1
Flags: W
LayerCount: 2
Fore
SplineSet
68 0 m 1,0,-1
 224 0 l 1,1,-1
 224 156 l 1,2,-1
 68 156 l 1,3,-1
 68 0 l 1,0,-1
EndSplineSet
Validated: 9
EndChar

StartChar: slash
Encoding: 47 47 16
Width: 583
GlyphClass: 1
Flags: W
LayerCount: 2
Fore
SplineSet
415 702 m 1,0,-1
 54 -14 l 1,1,-1
 167 -14 l 1,2,-1
 529 702 l 1,3,-1
 415 702 l 1,0,-1
EndSplineSet
Validated: 9
EndChar

StartChar: zero
Encoding: 48 48 17
Width: 427
GlyphClass: 1
Flags: W
LayerCount: 2
Fore
SplineSet
34 347 m 0,0,1
 34 274 34 274 39 215 c 128,-1,2
 44 156 44 156 61.5 103.5 c 128,-1,3
 79 51 79 51 116 18.5 c 128,-1,4
 153 -14 153 -14 213 -14 c 0,5,6
 267 -14 267 -14 302.5 11.5 c 128,-1,7
 338 37 338 37 358 84 c 128,-1,8
 378 131 378 131 386 195.5 c 128,-1,9
 394 260 394 260 394 347 c 0,10,11
 394 537 394 537 351.5 623.5 c 128,-1,12
 309 710 309 710 214 710 c 0,13,14
 157 710 157 710 121 683 c 128,-1,15
 85 656 85 656 66 608 c 128,-1,16
 47 560 47 560 40.5 496.5 c 128,-1,17
 34 433 34 433 34 347 c 0,0,1
168 481 m 2,18,19
 168 550 168 550 178 577.5 c 128,-1,20
 188 605 188 605 214 605 c 0,21,22
 243 605 243 605 251.5 570 c 128,-1,23
 260 535 260 535 260 429 c 2,24,-1
 260 245 l 2,25,26
 260 161 260 161 250.5 126 c 128,-1,27
 241 91 241 91 214 91 c 0,28,29
 189 91 189 91 178.5 118.5 c 128,-1,30
 168 146 168 146 168 206 c 2,31,-1
 168 481 l 2,18,19
EndSplineSet
Validated: 9
EndChar

StartChar: one
Encoding: 49 49 18
Width: 427
GlyphClass: 1
Flags: W
LayerCount: 2
Fore
SplineSet
84 0 m 1,0,-1
 341 0 l 1,1,-1
 341 105 l 1,2,-1
 286 105 l 1,3,-1
 286 710 l 1,4,-1
 229 710 l 1,5,6
 195 674 195 674 162 655 c 128,-1,7
 129 636 129 636 84 626 c 1,8,-1
 84 524 l 1,9,10
 116 529 116 529 140 539 c 1,11,-1
 140 105 l 1,12,-1
 84 105 l 1,13,-1
 84 0 l 1,0,-1
EndSplineSet
Validated: 9
EndChar

StartChar: two
Encoding: 50 50 19
Width: 427
GlyphClass: 1
Flags: W
LayerCount: 2
Fore
SplineSet
387 0 m 1,0,-1
 387 204 l 1,1,-1
 282 204 l 1,2,-1
 282 97 l 1,3,-1
 141 97 l 1,4,5
 142 150 142 150 169 188.5 c 128,-1,6
 196 227 196 227 252 279 c 0,7,8
 284 310 284 310 304.5 331.5 c 128,-1,9
 325 353 325 353 343.5 381.5 c 128,-1,10
 362 410 362 410 373 444.5 c 128,-1,11
 384 479 384 479 384 520 c 0,12,13
 384 607 384 607 333 658.5 c 128,-1,14
 282 710 282 710 200 710 c 0,15,16
 119 710 119 710 71 657.5 c 128,-1,17
 23 605 23 605 23 516 c 0,18,19
 23 488 23 488 24 482 c 1,20,-1
 146 475 l 1,21,22
 143 498 143 498 143 523 c 0,23,24
 143 608 143 608 191 608 c 0,25,26
 235 608 235 608 235 528 c 0,27,28
 235 467 235 467 214 426.5 c 128,-1,29
 193 386 193 386 148 332 c 0,30,31
 120 297 120 297 100.5 269.5 c 128,-1,32
 81 242 81 242 63.5 204.5 c 128,-1,33
 46 167 46 167 35.5 115.5 c 128,-1,34
 25 64 25 64 25 0 c 1,35,-1
 387 0 l 1,0,-1
EndSplineSet
Validated: 9
EndChar

StartChar: three
Encoding: 51 51 20
Width: 427
GlyphClass: 1
Flags: W
LayerCount: 2
Fore
SplineSet
26 202 m 1,0,1
 26 94 26 94 70 40 c 128,-1,2
 114 -14 114 -14 210 -14 c 0,3,4
 293 -14 293 -14 342 42.5 c 128,-1,5
 391 99 391 99 391 194 c 0,6,7
 391 324 391 324 300 376 c 1,8,9
 344 399 344 399 363 433.5 c 128,-1,10
 382 468 382 468 382 523 c 256,11,12
 382 578 382 578 366 615 c 128,-1,13
 350 652 350 652 323.5 672.5 c 128,-1,14
 297 693 297 693 267 701.5 c 128,-1,15
 237 710 237 710 206 710 c 0,16,17
 126 710 126 710 82.5 661 c 128,-1,18
 39 612 39 612 34 517 c 1,19,-1
 149 504 l 1,20,21
 150 564 150 564 160 588 c 128,-1,22
 170 612 170 612 195 612 c 0,23,24
 219 612 219 612 229.5 590 c 128,-1,25
 240 568 240 568 240 518 c 0,26,27
 240 466 240 466 228 446 c 128,-1,28
 216 426 216 426 183 426 c 0,29,30
 182 426 182 426 178 426 c 0,31,32
 172 426 172 426 172 426 c 1,33,-1
 172 321 l 1,34,35
 212 321 212 321 227 296.5 c 128,-1,36
 242 272 242 272 242 208 c 0,37,38
 242 140 242 140 232 112 c 128,-1,39
 222 84 222 84 194 84 c 0,40,41
 170 84 170 84 159 106 c 128,-1,42
 148 128 148 128 148 184 c 1,43,-1
 149 197 l 2,44,45
 149 205 149 205 149 213 c 1,46,-1
 26 202 l 1,0,1
EndSplineSet
Validated: 9
EndChar

StartChar: four
Encoding: 52 52 21
Width: 427
GlyphClass: 1
Flags: W
LayerCount: 2
Fore
SplineSet
169 0 m 1,0,-1
 391 0 l 1,1,-1
 391 105 l 1,2,-1
 350 105 l 1,3,-1
 350 200 l 1,4,-1
 391 200 l 1,5,-1
 391 285 l 1,6,-1
 350 285 l 1,7,-1
 350 710 l 1,8,-1
 226 710 l 1,9,-1
 22 278 l 1,10,11
 39 237 39 237 43 200 c 1,12,-1
 219 200 l 1,13,-1
 219 105 l 1,14,-1
 169 105 l 1,15,-1
 169 0 l 1,0,-1
219 285 m 1,16,-1
 119 285 l 1,17,18
 145 337 145 337 171.5 403 c 128,-1,19
 198 469 198 469 216 530 c 1,20,-1
 229 530 l 1,21,22
 225 498 225 498 222 432.5 c 128,-1,23
 219 367 219 367 219 285 c 1,16,-1
EndSplineSet
Validated: 9
EndChar

StartChar: five
Encoding: 53 53 22
Width: 427
GlyphClass: 1
Flags: W
LayerCount: 2
Fore
SplineSet
24 174 m 1,0,1
 39 -14 39 -14 196 -14 c 0,2,3
 385 -14 385 -14 385 241 c 0,4,5
 385 351 385 351 349 408.5 c 128,-1,6
 313 466 313 466 245 466 c 0,7,8
 218 466 218 466 196.5 457 c 128,-1,9
 175 448 175 448 152 427 c 1,10,-1
 160 605 l 1,11,-1
 258 605 l 1,12,-1
 260 562 l 1,13,-1
 351 562 l 1,14,-1
 351 702 l 1,15,-1
 67 702 l 1,16,-1
 50 349 l 1,17,-1
 147 295 l 1,18,19
 151 356 151 356 191 356 c 0,20,21
 218 356 218 356 227 331.5 c 128,-1,22
 236 307 236 307 236 232 c 0,23,24
 236 144 236 144 225.5 114.5 c 128,-1,25
 215 85 215 85 190 85 c 0,26,27
 167 85 167 85 156 109.5 c 128,-1,28
 145 134 145 134 143 188 c 1,29,-1
 24 174 l 1,0,1
EndSplineSet
Validated: 9
EndChar

StartChar: six
Encoding: 54 54 23
Width: 427
GlyphClass: 1
Flags: W
LayerCount: 2
Fore
SplineSet
384 540 m 1,0,1
 379 618 379 618 333 664 c 128,-1,2
 287 710 287 710 214 710 c 0,3,4
 159 710 159 710 123.5 687 c 128,-1,5
 88 664 88 664 68.5 620.5 c 128,-1,6
 49 577 49 577 41.5 516 c 128,-1,7
 34 455 34 455 34 371 c 0,8,9
 34 272 34 272 38.5 208.5 c 128,-1,10
 43 145 43 145 60 94.5 c 128,-1,11
 77 44 77 44 114.5 15 c 128,-1,12
 152 -14 152 -14 216 -14 c 0,13,14
 303 -14 303 -14 349.5 48 c 128,-1,15
 396 110 396 110 396 225 c 0,16,17
 396 327 396 327 357 383 c 128,-1,18
 318 439 318 439 247 439 c 0,19,20
 225 439 225 439 209.5 433.5 c 128,-1,21
 194 428 194 428 176 415 c 1,22,-1
 176 514 l 2,23,24
 176 567 176 567 184.5 589.5 c 128,-1,25
 193 612 193 612 214 612 c 0,26,27
 233 612 233 612 242 593.5 c 128,-1,28
 251 575 251 575 252 530 c 1,29,-1
 384 540 l 1,0,1
176 317 m 1,30,31
 191 338 191 338 212 338 c 0,32,33
 235 338 235 338 244 312.5 c 128,-1,34
 253 287 253 287 253 206 c 0,35,36
 253 132 253 132 245 107.5 c 128,-1,37
 237 83 237 83 214 83 c 0,38,39
 192 83 192 83 184 100.5 c 128,-1,40
 176 118 176 118 176 166 c 2,41,-1
 176 317 l 1,30,31
EndSplineSet
Validated: 9
EndChar

StartChar: seven
Encoding: 55 55 24
Width: 427
GlyphClass: 1
Flags: W
LayerCount: 2
Fore
SplineSet
77 0 m 1,0,-1
 330 0 l 1,1,-1
 330 105 l 1,2,-1
 276 105 l 1,3,4
 277 182 277 182 283 249 c 128,-1,5
 289 316 289 316 303 380 c 0,6,7
 319 454 319 454 339 514 c 128,-1,8
 359 574 359 574 384 621 c 1,9,-1
 384 702 l 1,10,-1
 24 702 l 1,11,-1
 24 510 l 1,12,-1
 118 510 l 1,13,-1
 118 604 l 1,14,-1
 262 604 l 1,15,16
 194 474 194 474 164 360 c 0,17,18
 148 300 148 300 139 238 c 128,-1,19
 130 176 130 176 128 105 c 1,20,-1
 77 105 l 1,21,-1
 77 0 l 1,0,-1
EndSplineSet
Validated: 9
EndChar

StartChar: eight
Encoding: 56 56 25
Width: 427
GlyphClass: 1
Flags: W
LayerCount: 2
Fore
SplineSet
401 192 m 0,0,1
 401 262 401 262 375 305 c 128,-1,2
 349 348 349 348 292 375 c 1,3,4
 391 419 391 419 391 529 c 0,5,6
 391 610 391 610 342 660 c 128,-1,7
 293 710 293 710 214 710 c 0,8,9
 134 710 134 710 85 660 c 128,-1,10
 36 610 36 610 36 529 c 0,11,12
 36 420 36 420 134 375 c 1,13,14
 77 348 77 348 51.5 305 c 128,-1,15
 26 262 26 262 26 190 c 0,16,17
 26 148 26 148 36.5 112 c 128,-1,18
 47 76 47 76 69 47.5 c 128,-1,19
 91 19 91 19 127.5 2.5 c 128,-1,20
 164 -14 164 -14 214 -14 c 0,21,22
 270 -14 270 -14 307.5 5.5 c 128,-1,23
 345 25 345 25 365 56 c 128,-1,24
 385 87 385 87 393 122 c 128,-1,25
 401 157 401 157 401 192 c 0,0,1
212 618 m 0,26,27
 241 618 241 618 253 593.5 c 128,-1,28
 265 569 265 569 265 511 c 0,29,30
 265 459 265 459 252 437 c 128,-1,31
 239 415 239 415 212 415 c 256,32,33
 185 415 185 415 173.5 436.5 c 128,-1,34
 162 458 162 458 162 508 c 0,35,36
 162 568 162 568 173 593 c 128,-1,37
 184 618 184 618 212 618 c 0,26,27
213 334 m 256,38,39
 240 334 240 334 252 305 c 128,-1,40
 264 276 264 276 264 209 c 0,41,42
 264 135 264 135 253 106.5 c 128,-1,43
 242 78 242 78 214 78 c 0,44,45
 184 78 184 78 173.5 105 c 128,-1,46
 163 132 163 132 163 209 c 0,47,48
 163 277 163 277 174.5 305.5 c 128,-1,49
 186 334 186 334 213 334 c 256,38,39
EndSplineSet
Validated: 9
EndChar

StartChar: nine
Encoding: 57 57 26
Width: 427
GlyphClass: 1
Flags: W
LayerCount: 2
Fore
SplineSet
42 156 m 1,0,1
 47 78 47 78 93 32 c 128,-1,2
 139 -14 139 -14 212 -14 c 0,3,4
 310 -14 310 -14 351.5 62.5 c 128,-1,5
 393 139 393 139 393 293 c 2,6,-1
 393 382 l 2,7,8
 393 553 393 553 352.5 631.5 c 128,-1,9
 312 710 312 710 211 710 c 0,10,11
 129 710 129 710 80 651.5 c 128,-1,12
 31 593 31 593 31 471 c 0,13,14
 31 369 31 369 70 313 c 128,-1,15
 109 257 109 257 179 257 c 0,16,17
 201 257 201 257 216.5 262.5 c 128,-1,18
 232 268 232 268 251 281 c 1,19,-1
 251 215 l 2,20,21
 251 136 251 136 243 110 c 128,-1,22
 235 84 235 84 212 84 c 0,23,24
 193 84 193 84 184.5 102.5 c 128,-1,25
 176 121 176 121 174 166 c 1,26,-1
 42 156 l 1,0,1
251 379 m 1,27,28
 234 358 234 358 215 358 c 0,29,30
 191 358 191 358 182 384 c 128,-1,31
 173 410 173 410 173 490 c 0,32,33
 173 562 173 562 181 587.5 c 128,-1,34
 189 613 189 613 213 613 c 0,35,36
 234 613 234 613 242.5 593 c 128,-1,37
 251 573 251 573 251 525 c 2,38,-1
 251 379 l 1,27,28
EndSplineSet
Validated: 9
EndChar

StartChar: colon
Encoding: 58 58 27
Width: 292
GlyphClass: 1
Flags: W
LayerCount: 2
Fore
SplineSet
68 334 m 1,0,-1
 224 334 l 1,1,-1
 224 490 l 1,2,-1
 68 490 l 1,3,-1
 68 334 l 1,0,-1
68 0 m 1,4,-1
 224 0 l 1,5,-1
 224 156 l 1,6,-1
 68 156 l 1,7,-1
 68 0 l 1,4,-1
EndSplineSet
Validated: 9
EndChar

StartChar: semicolon
Encoding: 59 59 28
Width: 292
GlyphClass: 1
Flags: W
LayerCount: 2
Fore
SplineSet
68 -187 m 1,0,1
 224 -179 224 -179 224 5 c 2,2,-1
 224 156 l 1,3,-1
 68 156 l 1,4,-1
 68 0 l 1,5,-1
 143 0 l 1,6,7
 143 -53 143 -53 125 -79 c 128,-1,8
 107 -105 107 -105 68 -109 c 1,9,-1
 68 -187 l 1,0,1
68 334 m 1,10,-1
 224 334 l 1,11,-1
 224 490 l 1,12,-1
 68 490 l 1,13,-1
 68 334 l 1,10,-1
EndSplineSet
Validated: 9
EndChar

StartChar: less
Encoding: 60 60 29
Width: 667
GlyphClass: 1
Flags: W
LayerCount: 2
Fore
SplineSet
605 56 m 1,0,-1
 605 170 l 1,1,-1
 205 330 l 1,2,-1
 605 490 l 1,3,-1
 605 604 l 1,4,-1
 62 377 l 1,5,-1
 62 283 l 1,6,-1
 605 56 l 1,0,-1
EndSplineSet
Validated: 9
EndChar

StartChar: equal
Encoding: 61 61 30
Width: 667
GlyphClass: 1
Flags: W
LayerCount: 2
Fore
SplineSet
62 500 m 1,0,-1
 62 395 l 1,1,-1
 605 395 l 1,2,-1
 605 500 l 1,3,-1
 62 500 l 1,0,-1
62 267 m 1,4,-1
 62 162 l 1,5,-1
 605 162 l 1,6,-1
 605 267 l 1,7,-1
 62 267 l 1,4,-1
EndSplineSet
Validated: 9
EndChar

StartChar: greater
Encoding: 62 62 31
Width: 667
GlyphClass: 1
Flags: W
LayerCount: 2
Fore
SplineSet
62 56 m 1,0,-1
 605 283 l 1,1,-1
 605 377 l 1,2,-1
 62 604 l 1,3,-1
 62 490 l 1,4,-1
 462 330 l 1,5,-1
 62 170 l 1,6,-1
 62 56 l 1,0,-1
EndSplineSet
Validated: 9
EndChar

StartChar: question
Encoding: 63 63 32
Width: 406
GlyphClass: 1
Flags: W
LayerCount: 2
Fore
SplineSet
161 236 m 1,0,-1
 243 236 l 1,1,-1
 248 312 l 1,2,3
 314 312 314 312 350.5 368.5 c 128,-1,4
 387 425 387 425 387 502 c 0,5,6
 387 597 387 597 335 655 c 128,-1,7
 283 713 283 713 198 713 c 0,8,9
 117 713 117 713 68.5 657 c 128,-1,10
 20 601 20 601 20 496 c 1,11,-1
 155 496 l 1,12,-1
 155 544 l 2,13,14
 155 615 155 615 195 615 c 0,15,16
 220 615 220 615 230.5 589 c 128,-1,17
 241 563 241 563 241 498 c 0,18,19
 241 443 241 443 226.5 419 c 128,-1,20
 212 395 212 395 180 395 c 0,21,22
 172 395 172 395 165 396 c 128,-1,23
 158 397 158 397 148 400 c 1,24,-1
 161 236 l 1,0,-1
126 0 m 1,25,-1
 282 0 l 1,26,-1
 282 156 l 1,27,-1
 126 156 l 1,28,-1
 126 0 l 1,25,-1
EndSplineSet
Validated: 9
EndChar

StartChar: at
Encoding: 64 64 33
Width: 975
GlyphClass: 1
Flags: W
LayerCount: 2
Fore
SplineSet
682 505 m 1,0,-1
 585 505 l 1,1,-1
 577 449 l 1,2,3
 553 487 553 487 526.5 503.5 c 128,-1,4
 500 520 500 520 464 520 c 0,5,6
 417 520 417 520 378 493 c 128,-1,7
 339 466 339 466 311.5 420 c 128,-1,8
 284 374 284 374 269 318.5 c 128,-1,9
 254 263 254 263 254 208 c 0,10,11
 254 113 254 113 297.5 56.5 c 128,-1,12
 341 0 341 0 414 0 c 0,13,14
 447 0 447 0 470 11.5 c 128,-1,15
 493 23 493 23 530 57 c 1,16,17
 538 26 538 26 556 13 c 128,-1,18
 574 0 574 0 606 0 c 0,19,20
 640 0 640 0 683 19 c 128,-1,21
 726 38 726 38 766 77.5 c 128,-1,22
 806 117 806 117 832 179 c 128,-1,23
 858 241 858 241 858 322 c 0,24,25
 858 391 858 391 836.5 454 c 128,-1,26
 815 517 815 517 772 566.5 c 128,-1,27
 729 616 729 616 663.5 645 c 128,-1,28
 598 674 598 674 513 674 c 0,29,30
 414 674 414 674 338.5 638 c 128,-1,31
 263 602 263 602 214 540 c 128,-1,32
 165 478 165 478 141 400.5 c 128,-1,33
 117 323 117 323 117 239 c 0,34,35
 117 139 117 139 149.5 61.5 c 128,-1,36
 182 -16 182 -16 237.5 -67.5 c 128,-1,37
 293 -119 293 -119 363 -144.5 c 128,-1,38
 433 -170 433 -170 507 -170 c 0,39,40
 608 -170 608 -170 703 -127 c 128,-1,41
 798 -84 798 -84 856 -7 c 1,42,-1
 753 -7 l 1,43,44
 638 -98 638 -98 507 -98 c 0,45,46
 437 -98 437 -98 378 -73.5 c 128,-1,47
 319 -49 319 -49 276.5 -3.5 c 128,-1,48
 234 42 234 42 211.5 105 c 128,-1,49
 189 168 189 168 189 244 c 0,50,51
 189 323 189 323 212.5 388.5 c 128,-1,52
 236 454 236 454 279 502 c 128,-1,53
 322 550 322 550 382.5 576 c 128,-1,54
 443 602 443 602 514 602 c 0,55,56
 574 602 574 602 624.5 582 c 128,-1,57
 675 562 675 562 711 525 c 128,-1,58
 747 488 747 488 766.5 436 c 128,-1,59
 786 384 786 384 786 323 c 0,60,61
 786 265 786 265 770.5 219.5 c 128,-1,62
 755 174 755 174 731.5 144 c 128,-1,63
 708 114 708 114 682 98.5 c 128,-1,64
 656 83 656 83 636 83 c 0,65,66
 618 83 618 83 618 103 c 0,67,68
 618 105 618 105 619 109 c 0,69,70
 620 115 620 115 620 118 c 2,71,-1
 682 505 l 1,0,-1
356 180 m 0,72,73
 356 217 356 217 362.5 261.5 c 128,-1,74
 369 306 369 306 383.5 348 c 128,-1,75
 398 390 398 390 422 417 c 128,-1,76
 446 444 446 444 478 444 c 0,77,78
 509 444 509 444 528.5 417.5 c 128,-1,79
 548 391 548 391 548 345 c 0,80,81
 548 309 548 309 541.5 263 c 128,-1,82
 535 217 535 217 520.5 172.5 c 128,-1,83
 506 128 506 128 483.5 99.5 c 128,-1,84
 461 71 461 71 430 71 c 0,85,86
 396 71 396 71 376 101 c 128,-1,87
 356 131 356 131 356 180 c 0,72,73
EndSplineSet
Validated: 9
EndChar

StartChar: A
Encoding: 65 65 34
Width: 552
GlyphClass: 1
Flags: W
LayerCount: 2
Fore
SplineSet
5 0 m 1,0,-1
 246 0 l 1,1,-1
 246 105 l 1,2,-1
 203 105 l 1,3,-1
 219 236 l 1,4,-1
 334 236 l 1,5,-1
 351 105 l 1,6,-1
 307 105 l 1,7,-1
 307 0 l 1,8,-1
 547 0 l 1,9,-1
 547 105 l 1,10,-1
 503 105 l 1,11,-1
 423 597 l 1,12,-1
 470 597 l 1,13,-1
 470 702 l 1,14,-1
 82 702 l 1,15,-1
 82 597 l 1,16,-1
 127 597 l 1,17,-1
 52 105 l 1,18,-1
 5 105 l 1,19,-1
 5 0 l 1,0,-1
231 323 m 1,20,-1
 266 615 l 1,21,-1
 285 615 l 1,22,-1
 322 323 l 1,23,-1
 231 323 l 1,20,-1
EndSplineSet
Validated: 9
EndChar

StartChar: B
Encoding: 66 66 35
Width: 542
GlyphClass: 1
Flags: W
LayerCount: 2
Fore
SplineSet
23 0 m 1,0,-1
 255 0 l 2,1,2
 373 0 373 0 439 54 c 128,-1,3
 505 108 505 108 505 206 c 0,4,5
 505 325 505 325 395 372 c 1,6,7
 492 406 492 406 492 518 c 0,8,9
 492 570 492 570 473 606 c 128,-1,10
 454 642 454 642 421.5 663 c 128,-1,11
 389 684 389 684 349.5 693 c 128,-1,12
 310 702 310 702 266 702 c 2,13,-1
 23 702 l 1,14,-1
 23 597 l 1,15,-1
 73 597 l 1,16,-1
 73 105 l 1,17,-1
 23 105 l 1,18,-1
 23 0 l 1,0,-1
240 311 m 1,19,20
 290 311 290 311 311 291.5 c 128,-1,21
 332 272 332 272 332 207 c 0,22,23
 332 140 332 140 312 122.5 c 128,-1,24
 292 105 292 105 240 105 c 1,25,-1
 240 311 l 1,19,20
240 602 m 1,26,27
 286 602 286 602 305.5 582.5 c 128,-1,28
 325 563 325 563 325 501 c 0,29,30
 325 444 325 444 306 425.5 c 128,-1,31
 287 407 287 407 240 407 c 1,32,-1
 240 602 l 1,26,27
EndSplineSet
Validated: 9
EndChar

StartChar: C
Encoding: 67 67 36
Width: 490
GlyphClass: 1
Flags: W
LayerCount: 2
Fore
SplineSet
337 248 m 1,0,1
 332 172 332 172 318.5 139.5 c 128,-1,2
 305 107 305 107 277 107 c 0,3,4
 258 107 258 107 246.5 118 c 128,-1,5
 235 129 235 129 229 157 c 128,-1,6
 223 185 223 185 221 232.5 c 128,-1,7
 219 280 219 280 219 362 c 0,8,9
 219 437 219 437 220.5 480 c 128,-1,10
 222 523 222 523 227.5 548.5 c 128,-1,11
 233 574 233 574 242.5 584.5 c 128,-1,12
 252 595 252 595 269 595 c 0,13,14
 323 595 323 595 332 465 c 1,15,-1
 444 465 l 1,16,-1
 444 702 l 1,17,-1
 332 702 l 1,18,-1
 332 654 l 1,19,-1
 330 654 l 1,20,21
 307 685 307 685 283.5 699 c 128,-1,22
 260 713 260 713 230 713 c 0,23,24
 192 713 192 713 157.5 691 c 128,-1,25
 123 669 123 669 95.5 625 c 128,-1,26
 68 581 68 581 52 514.5 c 128,-1,27
 36 448 36 448 36 361 c 0,28,29
 36 265 36 265 54.5 194 c 128,-1,30
 73 123 73 123 105.5 77.5 c 128,-1,31
 138 32 138 32 179 10.5 c 128,-1,32
 220 -11 220 -11 266 -11 c 0,33,34
 347 -11 347 -11 401 49 c 128,-1,35
 455 109 455 109 465 210 c 1,36,-1
 337 248 l 1,0,1
EndSplineSet
Validated: 9
EndChar

StartChar: D
Encoding: 68 68 37
Width: 552
GlyphClass: 1
Flags: W
LayerCount: 2
Fore
SplineSet
23 0 m 1,0,-1
 266 0 l 2,1,2
 328 0 328 0 374.5 26 c 128,-1,3
 421 52 421 52 452 99.5 c 128,-1,4
 483 147 483 147 498 211 c 128,-1,5
 513 275 513 275 513 350 c 0,6,7
 513 514 513 514 445 608 c 128,-1,8
 377 702 377 702 266 702 c 2,9,-1
 23 702 l 1,10,-1
 23 597 l 1,11,-1
 73 597 l 1,12,-1
 73 105 l 1,13,-1
 23 105 l 1,14,-1
 23 0 l 1,0,-1
240 597 m 1,15,16
 264 597 264 597 280.5 589.5 c 128,-1,17
 297 582 297 582 309.5 557.5 c 128,-1,18
 322 533 322 533 329 484 c 128,-1,19
 336 435 336 435 336 354 c 0,20,21
 336 275 336 275 330.5 225.5 c 128,-1,22
 325 176 325 176 313.5 150 c 128,-1,23
 302 124 302 124 284.5 114.5 c 128,-1,24
 267 105 267 105 240 105 c 1,25,-1
 240 597 l 1,15,16
EndSplineSet
Validated: 9
EndChar

StartChar: E
Encoding: 69 69 38
Width: 531
GlyphClass: 1
Flags: W
LayerCount: 2
Fore
SplineSet
23 0 m 1,0,-1
 497 0 l 1,1,-1
 497 229 l 1,2,-1
 372 229 l 1,3,-1
 372 105 l 1,4,-1
 251 105 l 1,5,-1
 251 306 l 1,6,-1
 344 306 l 1,7,-1
 344 411 l 1,8,-1
 251 411 l 1,9,-1
 251 597 l 1,10,-1
 372 597 l 1,11,-1
 372 479 l 1,12,-1
 497 479 l 1,13,-1
 497 702 l 1,14,-1
 23 702 l 1,15,-1
 23 597 l 1,16,-1
 84 597 l 1,17,-1
 84 105 l 1,18,-1
 23 105 l 1,19,-1
 23 0 l 1,0,-1
EndSplineSet
Validated: 9
EndChar

StartChar: F
Encoding: 70 70 39
Width: 531
GlyphClass: 1
Flags: W
LayerCount: 2
Fore
SplineSet
25 0 m 1,0,-1
 320 0 l 1,1,-1
 320 105 l 1,2,-1
 253 105 l 1,3,-1
 253 306 l 1,4,-1
 347 306 l 1,5,-1
 347 411 l 1,6,-1
 253 411 l 1,7,-1
 253 597 l 1,8,-1
 380 597 l 1,9,-1
 380 479 l 1,10,-1
 505 479 l 1,11,-1
 505 702 l 1,12,-1
 25 702 l 1,13,-1
 25 597 l 1,14,-1
 86 597 l 1,15,-1
 86 105 l 1,16,-1
 25 105 l 1,17,-1
 25 0 l 1,0,-1
EndSplineSet
Validated: 9
EndChar

StartChar: G
Encoding: 71 71 40
Width: 531
GlyphClass: 1
Flags: W
LayerCount: 2
Fore
SplineSet
341 223 m 1,0,1
 340 107 340 107 280 107 c 0,2,3
 261 107 261 107 249.5 117 c 128,-1,4
 238 127 238 127 231.5 154 c 128,-1,5
 225 181 225 181 222 231.5 c 128,-1,6
 219 282 219 282 219 367 c 0,7,8
 219 444 219 444 221 485.5 c 128,-1,9
 223 527 223 527 229.5 551.5 c 128,-1,10
 236 576 236 576 247 585.5 c 128,-1,11
 258 595 258 595 278 595 c 0,12,13
 307 595 307 595 327 564 c 128,-1,14
 347 533 347 533 348 463 c 1,15,-1
 460 463 l 1,16,-1
 460 702 l 1,17,-1
 348 702 l 1,18,-1
 348 650 l 1,19,-1
 346 650 l 1,20,21
 322 683 322 683 296 698 c 128,-1,22
 270 713 270 713 237 713 c 0,23,24
 142 713 142 713 89 617 c 128,-1,25
 36 521 36 521 36 347 c 0,26,27
 36 257 36 257 54 188.5 c 128,-1,28
 72 120 72 120 106 75 c 0,29,30
 170 -11 170 -11 279 -11 c 0,31,32
 387 -11 387 -11 447 70.5 c 128,-1,33
 507 152 507 152 507 328 c 1,34,-1
 294 328 l 1,35,-1
 294 223 l 1,36,-1
 341 223 l 1,0,1
EndSplineSet
Validated: 9
EndChar

StartChar: H
Encoding: 72 72 41
Width: 594
GlyphClass: 1
Flags: W
LayerCount: 2
Fore
SplineSet
23 0 m 1,0,-1
 271 0 l 1,1,-1
 271 105 l 1,2,-1
 243 105 l 1,3,-1
 243 316 l 1,4,-1
 349 316 l 1,5,-1
 349 105 l 1,6,-1
 321 105 l 1,7,-1
 321 0 l 1,8,-1
 570 0 l 1,9,-1
 570 105 l 1,10,-1
 516 105 l 1,11,-1
 516 597 l 1,12,-1
 570 597 l 1,13,-1
 570 702 l 1,14,-1
 321 702 l 1,15,-1
 321 597 l 1,16,-1
 349 597 l 1,17,-1
 349 421 l 1,18,-1
 243 421 l 1,19,-1
 243 597 l 1,20,-1
 271 597 l 1,21,-1
 271 702 l 1,22,-1
 23 702 l 1,23,-1
 23 597 l 1,24,-1
 76 597 l 1,25,-1
 76 105 l 1,26,-1
 23 105 l 1,27,-1
 23 0 l 1,0,-1
EndSplineSet
Validated: 9
EndChar

StartChar: I
Encoding: 73 73 42
Width: 354
GlyphClass: 1
Flags: W
LayerCount: 2
Fore
SplineSet
24 0 m 1,0,-1
 331 0 l 1,1,-1
 331 105 l 1,2,-1
 259 105 l 1,3,-1
 259 597 l 1,4,-1
 331 597 l 1,5,-1
 331 702 l 1,6,-1
 24 702 l 1,7,-1
 24 597 l 1,8,-1
 92 597 l 1,9,-1
 92 105 l 1,10,-1
 24 105 l 1,11,-1
 24 0 l 1,0,-1
EndSplineSet
Validated: 9
EndChar

StartChar: J
Encoding: 74 74 43
Width: 333
GlyphClass: 1
Flags: W
LayerCount: 2
Fore
SplineSet
4 -214 m 1,0,1
 36 -224 36 -224 72 -224 c 0,2,3
 158 -224 158 -224 204 -168 c 128,-1,4
 250 -112 250 -112 250 -18 c 2,5,-1
 250 597 l 1,6,-1
 312 597 l 1,7,-1
 312 702 l 1,8,-1
 21 702 l 1,9,-1
 21 597 l 1,10,-1
 83 597 l 1,11,-1
 83 -12 l 2,12,13
 83 -55 83 -55 68 -75 c 128,-1,14
 53 -95 53 -95 22 -95 c 0,15,16
 12 -95 12 -95 4 -93 c 1,17,-1
 4 -214 l 1,0,1
EndSplineSet
Validated: 9
EndChar

StartChar: K
Encoding: 75 75 44
Width: 563
GlyphClass: 1
Flags: W
LayerCount: 2
Fore
SplineSet
23 0 m 1,0,-1
 275 0 l 1,1,-1
 275 105 l 1,2,-1
 241 105 l 1,3,-1
 241 597 l 1,4,-1
 284 597 l 1,5,-1
 284 702 l 1,6,-1
 23 702 l 1,7,-1
 23 597 l 1,8,-1
 74 597 l 1,9,-1
 74 105 l 1,10,-1
 23 105 l 1,11,-1
 23 0 l 1,0,-1
324 0 m 1,12,-1
 567 0 l 1,13,-1
 567 105 l 1,14,-1
 524 105 l 1,15,-1
 402 418 l 1,16,-1
 496 597 l 1,17,-1
 538 597 l 1,18,-1
 538 702 l 1,19,-1
 333 702 l 1,20,-1
 333 597 l 1,21,-1
 377 597 l 1,22,-1
 258 368 l 1,23,-1
 359 105 l 1,24,-1
 324 105 l 1,25,-1
 324 0 l 1,12,-1
EndSplineSet
Validated: 9
EndChar

StartChar: L
Encoding: 76 76 45
Width: 521
GlyphClass: 1
Flags: W
LayerCount: 2
Fore
SplineSet
25 0 m 1,0,-1
 497 0 l 1,1,-1
 497 313 l 1,2,-1
 372 313 l 1,3,-1
 372 105 l 1,4,-1
 254 105 l 1,5,-1
 254 597 l 1,6,-1
 331 597 l 1,7,-1
 331 702 l 1,8,-1
 25 702 l 1,9,-1
 25 597 l 1,10,-1
 87 597 l 1,11,-1
 87 105 l 1,12,-1
 25 105 l 1,13,-1
 25 0 l 1,0,-1
EndSplineSet
Validated: 9
EndChar

StartChar: M
Encoding: 77 77 46
Width: 729
GlyphClass: 1
Flags: W
LayerCount: 2
Fore
SplineSet
32 0 m 1,0,-1
 215 0 l 1,1,-1
 215 105 l 1,2,-1
 178 105 l 1,3,-1
 178 608 l 1,4,-1
 191 608 l 1,5,-1
 305 0 l 1,6,-1
 360 0 l 1,7,-1
 472 608 l 1,8,-1
 483 608 l 1,9,-1
 483 105 l 1,10,-1
 446 105 l 1,11,-1
 446 0 l 1,12,-1
 696 0 l 1,13,-1
 696 105 l 1,14,-1
 650 105 l 1,15,-1
 650 597 l 1,16,-1
 696 597 l 1,17,-1
 696 702 l 1,18,-1
 403 702 l 1,19,-1
 360 426 l 1,20,-1
 348 426 l 1,21,-1
 305 702 l 1,22,-1
 32 702 l 1,23,-1
 32 597 l 1,24,-1
 80 597 l 1,25,-1
 80 105 l 1,26,-1
 32 105 l 1,27,-1
 32 0 l 1,0,-1
EndSplineSet
Validated: 9
EndChar

StartChar: N
Encoding: 78 78 47
Width: 552
GlyphClass: 1
Flags: W
LayerCount: 2
Fore
SplineSet
32 0 m 1,0,-1
 219 0 l 1,1,-1
 219 105 l 1,2,-1
 181 105 l 1,3,-1
 181 242 l 2,4,5
 181 257 181 257 180 291.5 c 128,-1,6
 179 326 179 326 178 356 c 128,-1,7
 177 386 177 386 175.5 423.5 c 128,-1,8
 174 461 174 461 172 480 c 1,9,-1
 181 480 l 1,10,11
 211 374 211 374 240 292.5 c 128,-1,12
 269 211 269 211 313 97 c 0,13,14
 337 35 337 35 352 -6 c 1,15,-1
 482 -6 l 1,16,-1
 482 597 l 1,17,-1
 520 597 l 1,18,-1
 520 702 l 1,19,-1
 336 702 l 1,20,-1
 336 597 l 1,21,-1
 377 597 l 1,22,-1
 377 460 l 2,23,24
 377 434 377 434 378 413 c 128,-1,25
 379 392 379 392 380 361 c 0,26,27
 383 318 383 318 384 282 c 1,28,-1
 375 282 l 1,29,30
 343 403 343 403 311 499.5 c 128,-1,31
 279 596 279 596 234 702 c 1,32,-1
 32 702 l 1,33,-1
 32 597 l 1,34,-1
 76 597 l 1,35,-1
 76 105 l 1,36,-1
 32 105 l 1,37,-1
 32 0 l 1,0,-1
EndSplineSet
Validated: 9
EndChar

StartChar: O
Encoding: 79 79 48
Width: 552
GlyphClass: 1
Flags: W
LayerCount: 2
Fore
SplineSet
36 351 m 256,0,1
 36 269 36 269 53 202 c 128,-1,2
 70 135 70 135 101.5 87.5 c 128,-1,3
 133 40 133 40 177.5 14.5 c 128,-1,4
 222 -11 222 -11 276 -11 c 0,5,6
 331 -11 331 -11 375 14.5 c 128,-1,7
 419 40 419 40 450.5 87.5 c 128,-1,8
 482 135 482 135 499 202 c 128,-1,9
 516 269 516 269 516 351 c 256,10,11
 516 433 516 433 499 500 c 128,-1,12
 482 567 482 567 450.5 614.5 c 128,-1,13
 419 662 419 662 375 687.5 c 128,-1,14
 331 713 331 713 276 713 c 0,15,16
 222 713 222 713 177.5 687.5 c 128,-1,17
 133 662 133 662 101.5 614.5 c 128,-1,18
 70 567 70 567 53 500 c 128,-1,19
 36 433 36 433 36 351 c 256,0,1
333 351 m 256,20,21
 333 272 333 272 330.5 224.5 c 128,-1,22
 328 177 328 177 321.5 151.5 c 128,-1,23
 315 126 315 126 304.5 116.5 c 128,-1,24
 294 107 294 107 276 107 c 256,25,26
 258 107 258 107 247.5 116.5 c 128,-1,27
 237 126 237 126 230.5 151.5 c 128,-1,28
 224 177 224 177 221.5 224.5 c 128,-1,29
 219 272 219 272 219 351 c 256,30,31
 219 430 219 430 221.5 477.5 c 128,-1,32
 224 525 224 525 230.5 550.5 c 128,-1,33
 237 576 237 576 247.5 585.5 c 128,-1,34
 258 595 258 595 276 595 c 256,35,36
 294 595 294 595 304.5 585.5 c 128,-1,37
 315 576 315 576 321.5 550.5 c 128,-1,38
 328 525 328 525 330.5 477.5 c 128,-1,39
 333 430 333 430 333 351 c 256,20,21
EndSplineSet
Validated: 9
EndChar

StartChar: P
Encoding: 80 80 49
Width: 542
GlyphClass: 1
Flags: W
LayerCount: 2
Fore
SplineSet
23 0 m 1,0,-1
 298 0 l 1,1,-1
 298 105 l 1,2,-1
 239 105 l 1,3,-1
 239 258 l 1,4,5
 379 258 379 258 445 315 c 128,-1,6
 511 372 511 372 511 477 c 0,7,8
 511 584 511 584 442 643 c 128,-1,9
 373 702 373 702 249 702 c 2,10,-1
 23 702 l 1,11,-1
 23 597 l 1,12,-1
 72 597 l 1,13,-1
 72 105 l 1,14,-1
 23 105 l 1,15,-1
 23 0 l 1,0,-1
239 597 m 1,16,17
 258 597 258 597 274.5 592.5 c 128,-1,18
 291 588 291 588 304.5 575.5 c 128,-1,19
 318 563 318 563 326 540.5 c 128,-1,20
 334 518 334 518 334 482 c 0,21,22
 334 443 334 443 325.5 419.5 c 128,-1,23
 317 396 317 396 303.5 384 c 128,-1,24
 290 372 290 372 274.5 368.5 c 128,-1,25
 259 365 259 365 239 365 c 1,26,-1
 239 597 l 1,16,17
EndSplineSet
Validated: 9
EndChar

StartChar: Q
Encoding: 81 81 50
Width: 542
GlyphClass: 1
Flags: W
LayerCount: 2
Fore
SplineSet
169 -112 m 1,0,1
 188 -101 188 -101 201.5 -97 c 128,-1,2
 215 -93 215 -93 231 -93 c 0,3,4
 257 -93 257 -93 276 -101.5 c 128,-1,5
 295 -110 295 -110 322 -128 c 0,6,7
 357 -151 357 -151 389 -163.5 c 128,-1,8
 421 -176 421 -176 472 -176 c 1,9,-1
 491 -73 l 1,10,11
 454 -73 454 -73 429 -64 c 128,-1,12
 404 -55 404 -55 373 -36 c 0,13,14
 334 -14 334 -14 310 -8 c 1,15,-1
 310 -6 l 1,16,17
 403 11 403 11 457 106.5 c 128,-1,18
 511 202 511 202 511 351 c 0,19,20
 511 433 511 433 494 500 c 128,-1,21
 477 567 477 567 445.5 614.5 c 128,-1,22
 414 662 414 662 370 687.5 c 128,-1,23
 326 713 326 713 271 713 c 0,24,25
 217 713 217 713 172.5 687.5 c 128,-1,26
 128 662 128 662 96.5 614.5 c 128,-1,27
 65 567 65 567 48 500 c 128,-1,28
 31 433 31 433 31 351 c 0,29,30
 31 209 31 209 81 114 c 128,-1,31
 131 19 131 19 218 -3 c 1,32,-1
 218 -5 l 1,33,34
 191 -9 191 -9 172.5 -16.5 c 128,-1,35
 154 -24 154 -24 128 -42 c 1,36,-1
 169 -112 l 1,0,1
328 351 m 0,37,38
 328 268 328 268 325.5 221 c 128,-1,39
 323 174 323 174 317 149.5 c 128,-1,40
 311 125 311 125 300.5 116 c 128,-1,41
 290 107 290 107 271 107 c 256,42,43
 252 107 252 107 241.5 116 c 128,-1,44
 231 125 231 125 225 149.5 c 128,-1,45
 219 174 219 174 216.5 221 c 128,-1,46
 214 268 214 268 214 351 c 0,47,48
 214 430 214 430 216.5 477.5 c 128,-1,49
 219 525 219 525 225.5 550.5 c 128,-1,50
 232 576 232 576 242.5 585.5 c 128,-1,51
 253 595 253 595 271 595 c 0,52,53
 288 595 288 595 299 585.5 c 128,-1,54
 310 576 310 576 316.5 550.5 c 128,-1,55
 323 525 323 525 325.5 478 c 128,-1,56
 328 431 328 431 328 351 c 0,37,38
EndSplineSet
Validated: 9
EndChar

StartChar: R
Encoding: 82 82 51
Width: 542
GlyphClass: 1
Flags: W
LayerCount: 2
Fore
SplineSet
36 0 m 1,0,-1
 289 0 l 1,1,-1
 289 105 l 1,2,-1
 246 105 l 1,3,-1
 246 308 l 1,4,-1
 301 308 l 1,5,-1
 367 0 l 1,6,-1
 521 0 l 1,7,-1
 521 105 l 1,8,-1
 492 105 l 1,9,-1
 438 355 l 1,10,11
 475 383 475 383 491 415.5 c 128,-1,12
 507 448 507 448 507 496 c 0,13,14
 507 583 507 583 452 642.5 c 128,-1,15
 397 702 397 702 297 702 c 2,16,-1
 36 702 l 1,17,-1
 36 597 l 1,18,-1
 79 597 l 1,19,-1
 79 105 l 1,20,-1
 36 105 l 1,21,-1
 36 0 l 1,0,-1
246 602 m 1,22,23
 297 602 297 602 318.5 584.5 c 128,-1,24
 340 567 340 567 340 509 c 0,25,26
 340 448 340 448 319 428.5 c 128,-1,27
 298 409 298 409 246 409 c 1,28,-1
 246 602 l 1,22,23
EndSplineSet
Validated: 9
EndChar

StartChar: S
Encoding: 83 83 52
Width: 438
GlyphClass: 1
Flags: W
LayerCount: 2
Fore
SplineSet
36 0 m 1,0,-1
 141 0 l 1,1,-1
 141 44 l 1,2,3
 168 17 168 17 192.5 5.5 c 128,-1,4
 217 -6 217 -6 249 -6 c 0,5,6
 317 -6 317 -6 362 47.5 c 128,-1,7
 407 101 407 101 407 183 c 0,8,9
 407 240 407 240 384.5 287.5 c 128,-1,10
 362 335 362 335 310 387 c 0,11,12
 289 408 289 408 251 441 c 0,13,14
 224 464 224 464 214 474 c 0,15,16
 179 509 179 509 179 551 c 0,17,18
 179 575 179 575 191.5 589 c 128,-1,19
 204 603 204 603 225 603 c 0,20,21
 255 603 255 603 270 577.5 c 128,-1,22
 285 552 285 552 285 490 c 1,23,-1
 390 490 l 1,24,-1
 390 702 l 1,25,-1
 285 702 l 1,26,-1
 285 658 l 1,27,28
 257 685 257 685 235 696.5 c 128,-1,29
 213 708 213 708 175 708 c 0,30,31
 111 708 111 708 70.5 661 c 128,-1,32
 30 614 30 614 30 540 c 0,33,34
 30 502 30 502 41 469.5 c 128,-1,35
 52 437 52 437 70.5 410.5 c 128,-1,36
 89 384 89 384 109 363 c 128,-1,37
 129 342 129 342 161 313 c 0,38,39
 210 268 210 268 233 237.5 c 128,-1,40
 256 207 256 207 256 170 c 0,41,42
 256 138 256 138 242.5 119 c 128,-1,43
 229 100 229 100 203 100 c 0,44,45
 172 100 172 100 156.5 130.5 c 128,-1,46
 141 161 141 161 141 228 c 1,47,-1
 36 228 l 1,48,-1
 36 0 l 1,0,-1
EndSplineSet
Validated: 9
EndChar

StartChar: T
Encoding: 84 84 53
Width: 531
GlyphClass: 1
Flags: W
LayerCount: 2
Fore
SplineSet
125 0 m 1,0,-1
 406 0 l 1,1,-1
 406 105 l 1,2,-1
 349 105 l 1,3,-1
 349 597 l 1,4,-1
 408 597 l 1,5,-1
 408 443 l 1,6,-1
 513 443 l 1,7,-1
 513 702 l 1,8,-1
 18 702 l 1,9,-1
 18 443 l 1,10,-1
 123 443 l 1,11,-1
 123 597 l 1,12,-1
 182 597 l 1,13,-1
 182 105 l 1,14,-1
 125 105 l 1,15,-1
 125 0 l 1,0,-1
EndSplineSet
Validated: 9
EndChar

StartChar: U
Encoding: 85 85 54
Width: 521
GlyphClass: 1
Flags: W
LayerCount: 2
Fore
SplineSet
17 597 m 1,0,-1
 71 597 l 1,1,-1
 71 182 l 2,2,3
 71 82 71 82 123.5 35.5 c 128,-1,4
 176 -11 176 -11 267 -11 c 0,5,6
 349 -11 349 -11 398.5 39.5 c 128,-1,7
 448 90 448 90 448 172 c 2,8,-1
 448 597 l 1,9,-1
 504 597 l 1,10,-1
 504 702 l 1,11,-1
 313 702 l 1,12,-1
 313 597 l 1,13,-1
 343 597 l 1,14,-1
 343 176 l 2,15,16
 343 133 343 133 329 113.5 c 128,-1,17
 315 94 315 94 288 94 c 0,18,19
 238 94 238 94 238 169 c 2,20,-1
 238 597 l 1,21,-1
 267 597 l 1,22,-1
 267 702 l 1,23,-1
 17 702 l 1,24,-1
 17 597 l 1,0,-1
EndSplineSet
Validated: 9
EndChar

StartChar: V
Encoding: 86 86 55
Width: 563
GlyphClass: 1
Flags: W
LayerCount: 2
Fore
SplineSet
212 -11 m 1,0,-1
 346 -11 l 1,1,-1
 507 597 l 1,2,-1
 555 597 l 1,3,-1
 555 702 l 1,4,-1
 312 702 l 1,5,-1
 312 597 l 1,6,-1
 371 597 l 1,7,-1
 292 262 l 1,8,-1
 290 262 l 1,9,-1
 212 597 l 1,10,-1
 263 597 l 1,11,-1
 263 702 l 1,12,-1
 7 702 l 1,13,-1
 7 597 l 1,14,-1
 57 597 l 1,15,-1
 212 -11 l 1,0,-1
EndSplineSet
Validated: 9
EndChar

StartChar: W
Encoding: 87 87 56
Width: 740
GlyphClass: 1
Flags: W
LayerCount: 2
Fore
SplineSet
182 -11 m 1,0,-1
 307 -11 l 1,1,-1
 371 296 l 1,2,-1
 373 296 l 1,3,-1
 441 -11 l 1,4,-1
 565 -11 l 1,5,-1
 695 597 l 1,6,-1
 731 597 l 1,7,-1
 731 702 l 1,8,-1
 529 702 l 1,9,-1
 529 597 l 1,10,-1
 569 597 l 1,11,-1
 508 302 l 1,12,-1
 506 302 l 1,13,-1
 441 597 l 1,14,-1
 480 597 l 1,15,-1
 480 702 l 1,16,-1
 287 702 l 1,17,-1
 287 597 l 1,18,-1
 322 597 l 1,19,-1
 264 309 l 1,20,-1
 262 309 l 1,21,-1
 198 597 l 1,22,-1
 236 597 l 1,23,-1
 236 702 l 1,24,-1
 9 702 l 1,25,-1
 9 597 l 1,26,-1
 46 597 l 1,27,-1
 182 -11 l 1,0,-1
EndSplineSet
Validated: 9
EndChar

StartChar: X
Encoding: 88 88 57
Width: 583
GlyphClass: 1
Flags: W
LayerCount: 2
Fore
SplineSet
19 0 m 1,0,-1
 239 0 l 1,1,-1
 239 105 l 1,2,-1
 188 105 l 1,3,-1
 269 229 l 1,4,-1
 339 105 l 1,5,-1
 287 105 l 1,6,-1
 287 0 l 1,7,-1
 565 0 l 1,8,-1
 565 105 l 1,9,-1
 519 105 l 1,10,-1
 370 365 l 1,11,-1
 503 597 l 1,12,-1
 556 597 l 1,13,-1
 556 702 l 1,14,-1
 335 702 l 1,15,-1
 335 597 l 1,16,-1
 381 597 l 1,17,-1
 310 471 l 1,18,-1
 239 597 l 1,19,-1
 287 597 l 1,20,-1
 287 702 l 1,21,-1
 19 702 l 1,22,-1
 19 597 l 1,23,-1
 60 597 l 1,24,-1
 209 334 l 1,25,-1
 60 105 l 1,26,-1
 19 105 l 1,27,-1
 19 0 l 1,0,-1
EndSplineSet
Validated: 9
EndChar

StartChar: Y
Encoding: 89 89 58
Width: 573
GlyphClass: 1
Flags: W
LayerCount: 2
Fore
SplineSet
142 0 m 1,0,-1
 422 0 l 1,1,-1
 422 105 l 1,2,-1
 367 105 l 1,3,-1
 367 267 l 1,4,-1
 510 597 l 1,5,-1
 559 597 l 1,6,-1
 559 702 l 1,7,-1
 331 702 l 1,8,-1
 331 597 l 1,9,-1
 395 597 l 1,10,-1
 305 387 l 1,11,-1
 219 597 l 1,12,-1
 282 597 l 1,13,-1
 282 702 l 1,14,-1
 13 702 l 1,15,-1
 13 597 l 1,16,-1
 61 597 l 1,17,-1
 200 267 l 1,18,-1
 200 105 l 1,19,-1
 142 105 l 1,20,-1
 142 0 l 1,0,-1
EndSplineSet
Validated: 9
EndChar

StartChar: Z
Encoding: 90 90 59
Width: 469
GlyphClass: 1
Flags: W
LayerCount: 2
Fore
SplineSet
25 0 m 1,0,-1
 444 0 l 1,1,-1
 444 231 l 1,2,-1
 339 231 l 1,3,-1
 339 105 l 1,4,-1
 198 105 l 1,5,-1
 440 597 l 1,6,-1
 440 702 l 1,7,-1
 40 702 l 1,8,-1
 40 480 l 1,9,-1
 145 480 l 1,10,-1
 145 597 l 1,11,-1
 268 597 l 1,12,-1
 25 105 l 1,13,-1
 25 0 l 1,0,-1
EndSplineSet
Validated: 9
EndChar

StartChar: bracketleft
Encoding: 91 91 60
Width: 302
GlyphClass: 1
Flags: W
LayerCount: 2
Fore
SplineSet
73 702 m 1,0,-1
 73 -207 l 1,1,-1
 281 -207 l 1,2,-1
 281 -118 l 1,3,-1
 219 -118 l 1,4,-1
 219 613 l 1,5,-1
 281 613 l 1,6,-1
 281 702 l 1,7,-1
 73 702 l 1,0,-1
EndSplineSet
Validated: 9
EndChar

StartChar: backslash
Encoding: 92 92 61
Width: 583
GlyphClass: 1
Flags: W
LayerCount: 2
Fore
SplineSet
168 702 m 1,0,-1
 54 702 l 1,1,-1
 416 -14 l 1,2,-1
 529 -14 l 1,3,-1
 168 702 l 1,0,-1
EndSplineSet
Validated: 9
EndChar

StartChar: bracketright
Encoding: 93 93 62
Width: 302
GlyphClass: 1
Flags: W
LayerCount: 2
Fore
SplineSet
229 702 m 1,0,-1
 21 702 l 1,1,-1
 21 613 l 1,2,-1
 83 613 l 1,3,-1
 83 -118 l 1,4,-1
 21 -118 l 1,5,-1
 21 -207 l 1,6,-1
 229 -207 l 1,7,-1
 229 702 l 1,0,-1
EndSplineSet
Validated: 9
EndChar

StartChar: asciicircum
Encoding: 94 94 63
Width: 584
GlyphClass: 1
Flags: W
LayerCount: 2
Fore
SplineSet
59 323 m 1,0,-1
 198 323 l 1,1,-1
 293 562 l 1,2,-1
 387 323 l 1,3,-1
 526 323 l 1,4,-1
 347 713 l 1,5,-1
 238 713 l 1,6,-1
 59 323 l 1,0,-1
EndSplineSet
Validated: 9
EndChar

StartChar: underscore
Encoding: 95 95 64
Width: 500
GlyphClass: 1
Flags: W
LayerCount: 2
Fore
SplineSet
506 -125 m 1,0,-1
 506 -75 l 1,1,-1
 -6 -75 l 1,2,-1
 -6 -125 l 1,3,-1
 506 -125 l 1,0,-1
EndSplineSet
Validated: 9
EndChar

StartChar: grave
Encoding: 96 96 65
Width: 333
GlyphClass: 1
Flags: W
LayerCount: 2
Fore
SplineSet
274 534 m 1,0,-1
 179 719 l 1,1,-1
 -10 719 l 1,2,-1
 188 534 l 1,3,-1
 274 534 l 1,0,-1
EndSplineSet
Validated: 9
EndChar

StartChar: a
Encoding: 97 97 66
Width: 414
VWidth: 750
GlyphClass: 1
Flags: W
LayerCount: 2
Fore
SplineSet
3.75 0 m 1,0,-1
 184.5 0 l 1,1,-1
 184.5 78.75 l 1,2,-1
 152.25 78.75 l 1,3,-1
 164.25 177 l 1,4,-1
 250.5 177 l 1,5,-1
 263.25 78.75 l 1,6,-1
 230.25 78.75 l 1,7,-1
 230.25 0 l 1,8,-1
 410.25 0 l 1,9,-1
 410.25 78.75 l 1,10,-1
 377.25 78.75 l 1,11,-1
 317.25 447.75 l 1,12,-1
 352.5 447.75 l 1,13,-1
 352.5 526.5 l 1,14,-1
 61.5 526.5 l 1,15,-1
 61.5 447.75 l 1,16,-1
 95.25 447.75 l 1,17,-1
 39 78.75 l 1,18,-1
 3.75 78.75 l 1,19,-1
 3.75 0 l 1,0,-1
173.25 242.25 m 1,20,-1
 199.5 461.25 l 1,21,-1
 213.75 461.25 l 1,22,-1
 241.5 242.25 l 1,23,-1
 173.25 242.25 l 1,20,-1
EndSplineSet
Validated: 9
EndChar

StartChar: b
Encoding: 98 98 67
Width: 406
VWidth: 750
GlyphClass: 1
Flags: W
LayerCount: 2
Fore
SplineSet
17.25 0 m 1,0,-1
 191.25 0 l 2,1,2
 279.75 0 279.75 0 329.25 40.5 c 128,-1,3
 378.75 81 378.75 81 378.75 154.5 c 0,4,5
 378.75 243.75 378.75 243.75 296.25 279 c 1,6,7
 369 304.5 369 304.5 369 388.5 c 0,8,9
 369 427.5 369 427.5 354.75 454.5 c 128,-1,10
 340.5 481.5 340.5 481.5 316.125 497.25 c 128,-1,11
 291.75 513 291.75 513 262.125 519.75 c 128,-1,12
 232.5 526.5 232.5 526.5 199.5 526.5 c 2,13,-1
 17.25 526.5 l 1,14,-1
 17.25 447.75 l 1,15,-1
 54.75 447.75 l 1,16,-1
 54.75 78.75 l 1,17,-1
 17.25 78.75 l 1,18,-1
 17.25 0 l 1,0,-1
180 233.25 m 1,19,20
 217.5 233.25 217.5 233.25 233.25 218.625 c 128,-1,21
 249 204 249 204 249 155.25 c 0,22,23
 249 105 249 105 234 91.875 c 128,-1,24
 219 78.75 219 78.75 180 78.75 c 1,25,-1
 180 233.25 l 1,19,20
180 451.5 m 1,26,27
 214.5 451.5 214.5 451.5 229.125 436.875 c 128,-1,28
 243.75 422.25 243.75 422.25 243.75 375.75 c 0,29,30
 243.75 333 243.75 333 229.5 319.125 c 128,-1,31
 215.25 305.25 215.25 305.25 180 305.25 c 1,32,-1
 180 451.5 l 1,26,27
EndSplineSet
Validated: 9
EndChar

StartChar: c
Encoding: 99 99 68
Width: 367
VWidth: 750
GlyphClass: 1
Flags: W
LayerCount: 2
Fore
SplineSet
252.75 186 m 1,0,1
 249 129 249 129 238.875 104.625 c 128,-1,2
 228.75 80.25 228.75 80.25 207.75 80.25 c 0,3,4
 193.5 80.25 193.5 80.25 184.875 88.5 c 128,-1,5
 176.25 96.75 176.25 96.75 171.75 117.75 c 128,-1,6
 167.25 138.75 167.25 138.75 165.75 174.375 c 128,-1,7
 164.25 210 164.25 210 164.25 271.5 c 0,8,9
 164.25 327.75 164.25 327.75 165.375 360 c 128,-1,10
 166.5 392.25 166.5 392.25 170.625 411.375 c 128,-1,11
 174.75 430.5 174.75 430.5 181.875 438.375 c 128,-1,12
 189 446.25 189 446.25 201.75 446.25 c 0,13,14
 242.25 446.25 242.25 446.25 249 348.75 c 1,15,-1
 333 348.75 l 1,16,-1
 333 526.5 l 1,17,-1
 249 526.5 l 1,18,-1
 249 490.5 l 1,19,-1
 247.5 490.5 l 1,20,21
 230.25 513.75 230.25 513.75 212.625 524.25 c 128,-1,22
 195 534.75 195 534.75 172.5 534.75 c 0,23,24
 144 534.75 144 534.75 118.125 518.25 c 128,-1,25
 92.25 501.75 92.25 501.75 71.625 468.75 c 128,-1,26
 51 435.75 51 435.75 39 385.875 c 128,-1,27
 27 336 27 336 27 270.75 c 0,28,29
 27 198.75 27 198.75 40.875 145.5 c 128,-1,30
 54.75 92.25 54.75 92.25 79.125 58.125 c 128,-1,31
 103.5 24 103.5 24 134.25 7.875 c 128,-1,32
 165 -8.25 165 -8.25 199.5 -8.25 c 0,33,34
 260.25 -8.25 260.25 -8.25 300.75 36.75 c 128,-1,35
 341.25 81.75 341.25 81.75 348.75 157.5 c 1,36,-1
 252.75 186 l 1,0,1
EndSplineSet
Validated: 9
EndChar

StartChar: d
Encoding: 100 100 69
Width: 414
VWidth: 750
GlyphClass: 1
Flags: W
LayerCount: 2
Fore
SplineSet
17.25 0 m 1,0,-1
 199.5 0 l 2,1,2
 246 0 246 0 280.875 19.5 c 128,-1,3
 315.75 39 315.75 39 339 74.625 c 128,-1,4
 362.25 110.25 362.25 110.25 373.5 158.25 c 128,-1,5
 384.75 206.25 384.75 206.25 384.75 262.5 c 0,6,7
 384.75 385.5 384.75 385.5 333.75 456 c 128,-1,8
 282.75 526.5 282.75 526.5 199.5 526.5 c 2,9,-1
 17.25 526.5 l 1,10,-1
 17.25 447.75 l 1,11,-1
 54.75 447.75 l 1,12,-1
 54.75 78.75 l 1,13,-1
 17.25 78.75 l 1,14,-1
 17.25 0 l 1,0,-1
180 447.75 m 1,15,16
 198 447.75 198 447.75 210.375 442.125 c 128,-1,17
 222.75 436.5 222.75 436.5 232.125 418.125 c 128,-1,18
 241.5 399.75 241.5 399.75 246.75 363 c 128,-1,19
 252 326.25 252 326.25 252 265.5 c 0,20,21
 252 206.25 252 206.25 247.875 169.125 c 128,-1,22
 243.75 132 243.75 132 235.125 112.5 c 128,-1,23
 226.5 93 226.5 93 213.375 85.875 c 128,-1,24
 200.25 78.75 200.25 78.75 180 78.75 c 1,25,-1
 180 447.75 l 1,15,16
EndSplineSet
Validated: 9
EndChar

StartChar: e
Encoding: 101 101 70
Width: 398
VWidth: 750
GlyphClass: 1
Flags: W
LayerCount: 2
Fore
SplineSet
17.25 0 m 1,0,-1
 372.75 0 l 1,1,-1
 372.75 171.75 l 1,2,-1
 279 171.75 l 1,3,-1
 279 78.75 l 1,4,-1
 188.25 78.75 l 1,5,-1
 188.25 229.5 l 1,6,-1
 258 229.5 l 1,7,-1
 258 308.25 l 1,8,-1
 188.25 308.25 l 1,9,-1
 188.25 447.75 l 1,10,-1
 279 447.75 l 1,11,-1
 279 359.25 l 1,12,-1
 372.75 359.25 l 1,13,-1
 372.75 526.5 l 1,14,-1
 17.25 526.5 l 1,15,-1
 17.25 447.75 l 1,16,-1
 63 447.75 l 1,17,-1
 63 78.75 l 1,18,-1
 17.25 78.75 l 1,19,-1
 17.25 0 l 1,0,-1
EndSplineSet
Validated: 9
EndChar

StartChar: f
Encoding: 102 102 71
Width: 398
VWidth: 750
GlyphClass: 1
Flags: W
LayerCount: 2
Fore
SplineSet
18.75 0 m 1,0,-1
 240 0 l 1,1,-1
 240 78.75 l 1,2,-1
 189.75 78.75 l 1,3,-1
 189.75 229.5 l 1,4,-1
 260.25 229.5 l 1,5,-1
 260.25 308.25 l 1,6,-1
 189.75 308.25 l 1,7,-1
 189.75 447.75 l 1,8,-1
 285 447.75 l 1,9,-1
 285 359.25 l 1,10,-1
 378.75 359.25 l 1,11,-1
 378.75 526.5 l 1,12,-1
 18.75 526.5 l 1,13,-1
 18.75 447.75 l 1,14,-1
 64.5 447.75 l 1,15,-1
 64.5 78.75 l 1,16,-1
 18.75 78.75 l 1,17,-1
 18.75 0 l 1,0,-1
EndSplineSet
Validated: 9
EndChar

StartChar: g
Encoding: 103 103 72
Width: 398
VWidth: 750
GlyphClass: 1
Flags: W
LayerCount: 2
Fore
SplineSet
255.75 167.25 m 1,0,1
 255 80.25 255 80.25 210 80.25 c 0,2,3
 195.75 80.25 195.75 80.25 187.125 87.75 c 128,-1,4
 178.5 95.25 178.5 95.25 173.625 115.5 c 128,-1,5
 168.75 135.75 168.75 135.75 166.5 173.625 c 128,-1,6
 164.25 211.5 164.25 211.5 164.25 275.25 c 0,7,8
 164.25 333 164.25 333 165.75 364.125 c 128,-1,9
 167.25 395.25 167.25 395.25 172.125 413.625 c 128,-1,10
 177 432 177 432 185.25 439.125 c 128,-1,11
 193.5 446.25 193.5 446.25 208.5 446.25 c 0,12,13
 230.25 446.25 230.25 446.25 245.25 423 c 128,-1,14
 260.25 399.75 260.25 399.75 261 347.25 c 1,15,-1
 345 347.25 l 1,16,-1
 345 526.5 l 1,17,-1
 261 526.5 l 1,18,-1
 261 487.5 l 1,19,-1
 259.5 487.5 l 1,20,21
 241.5 512.25 241.5 512.25 222 523.5 c 128,-1,22
 202.5 534.75 202.5 534.75 177.75 534.75 c 0,23,24
 106.5 534.75 106.5 534.75 66.75 462.75 c 128,-1,25
 27 390.75 27 390.75 27 260.25 c 0,26,27
 27 192.75 27 192.75 40.5 141.375 c 128,-1,28
 54 90 54 90 79.5 56.25 c 0,29,30
 127.5 -8.25 127.5 -8.25 209.25 -8.25 c 0,31,32
 290.25 -8.25 290.25 -8.25 335.25 52.875 c 128,-1,33
 380.25 114 380.25 114 380.25 246 c 1,34,-1
 220.5 246 l 1,35,-1
 220.5 167.25 l 1,36,-1
 255.75 167.25 l 1,0,1
EndSplineSet
Validated: 9
EndChar

StartChar: h
Encoding: 104 104 73
Width: 445
VWidth: 750
GlyphClass: 1
Flags: W
LayerCount: 2
Fore
SplineSet
17.25 0 m 1,0,-1
 203.25 0 l 1,1,-1
 203.25 78.75 l 1,2,-1
 182.25 78.75 l 1,3,-1
 182.25 237 l 1,4,-1
 261.75 237 l 1,5,-1
 261.75 78.75 l 1,6,-1
 240.75 78.75 l 1,7,-1
 240.75 0 l 1,8,-1
 427.5 0 l 1,9,-1
 427.5 78.75 l 1,10,-1
 387 78.75 l 1,11,-1
 387 447.75 l 1,12,-1
 427.5 447.75 l 1,13,-1
 427.5 526.5 l 1,14,-1
 240.75 526.5 l 1,15,-1
 240.75 447.75 l 1,16,-1
 261.75 447.75 l 1,17,-1
 261.75 315.75 l 1,18,-1
 182.25 315.75 l 1,19,-1
 182.25 447.75 l 1,20,-1
 203.25 447.75 l 1,21,-1
 203.25 526.5 l 1,22,-1
 17.25 526.5 l 1,23,-1
 17.25 447.75 l 1,24,-1
 57 447.75 l 1,25,-1
 57 78.75 l 1,26,-1
 17.25 78.75 l 1,27,-1
 17.25 0 l 1,0,-1
EndSplineSet
Validated: 9
EndChar

StartChar: i
Encoding: 105 105 74
Width: 265
VWidth: 750
GlyphClass: 1
Flags: W
LayerCount: 2
Fore
SplineSet
18 0 m 1,0,-1
 248.25 0 l 1,1,-1
 248.25 78.75 l 1,2,-1
 194.25 78.75 l 1,3,-1
 194.25 447.75 l 1,4,-1
 248.25 447.75 l 1,5,-1
 248.25 526.5 l 1,6,-1
 18 526.5 l 1,7,-1
 18 447.75 l 1,8,-1
 69 447.75 l 1,9,-1
 69 78.75 l 1,10,-1
 18 78.75 l 1,11,-1
 18 0 l 1,0,-1
EndSplineSet
Validated: 9
EndChar

StartChar: j
Encoding: 106 106 75
Width: 249
VWidth: 750
GlyphClass: 1
Flags: W
LayerCount: 2
Fore
SplineSet
3 -160.5 m 1,0,1
 27 -168 27 -168 54 -168 c 0,2,3
 118.5 -168 118.5 -168 153 -126 c 128,-1,4
 187.5 -84 187.5 -84 187.5 -13.5 c 2,5,-1
 187.5 447.75 l 1,6,-1
 234 447.75 l 1,7,-1
 234 526.5 l 1,8,-1
 15.75 526.5 l 1,9,-1
 15.75 447.75 l 1,10,-1
 62.25 447.75 l 1,11,-1
 62.25 -9 l 2,12,13
 62.25 -41.25 62.25 -41.25 51 -56.25 c 128,-1,14
 39.75 -71.25 39.75 -71.25 16.5 -71.25 c 0,15,16
 9 -71.25 9 -71.25 3 -69.75 c 1,17,-1
 3 -160.5 l 1,0,1
EndSplineSet
Validated: 9
EndChar

StartChar: k
Encoding: 107 107 76
Width: 422
VWidth: 750
GlyphClass: 1
Flags: W
LayerCount: 2
Fore
SplineSet
17.25 0 m 1,0,-1
 206.25 0 l 1,1,-1
 206.25 78.75 l 1,2,-1
 180.75 78.75 l 1,3,-1
 180.75 447.75 l 1,4,-1
 213 447.75 l 1,5,-1
 213 526.5 l 1,6,-1
 17.25 526.5 l 1,7,-1
 17.25 447.75 l 1,8,-1
 55.5 447.75 l 1,9,-1
 55.5 78.75 l 1,10,-1
 17.25 78.75 l 1,11,-1
 17.25 0 l 1,0,-1
243 0 m 1,12,-1
 425.25 0 l 1,13,-1
 425.25 78.75 l 1,14,-1
 393 78.75 l 1,15,-1
 301.5 313.5 l 1,16,-1
 372 447.75 l 1,17,-1
 403.5 447.75 l 1,18,-1
 403.5 526.5 l 1,19,-1
 249.75 526.5 l 1,20,-1
 249.75 447.75 l 1,21,-1
 282.75 447.75 l 1,22,-1
 193.5 276 l 1,23,-1
 269.25 78.75 l 1,24,-1
 243 78.75 l 1,25,-1
 243 0 l 1,12,-1
EndSplineSet
Validated: 9
EndChar

StartChar: l
Encoding: 108 108 77
Width: 390
VWidth: 750
GlyphClass: 1
Flags: W
LayerCount: 2
Fore
SplineSet
18.75 0 m 1,0,-1
 372.75 0 l 1,1,-1
 372.75 234.75 l 1,2,-1
 279 234.75 l 1,3,-1
 279 78.75 l 1,4,-1
 190.5 78.75 l 1,5,-1
 190.5 447.75 l 1,6,-1
 248.25 447.75 l 1,7,-1
 248.25 526.5 l 1,8,-1
 18.75 526.5 l 1,9,-1
 18.75 447.75 l 1,10,-1
 65.25 447.75 l 1,11,-1
 65.25 78.75 l 1,12,-1
 18.75 78.75 l 1,13,-1
 18.75 0 l 1,0,-1
EndSplineSet
Validated: 9
EndChar

StartChar: m
Encoding: 109 109 78
Width: 546
VWidth: 750
GlyphClass: 1
Flags: W
LayerCount: 2
Fore
SplineSet
24 0 m 1,0,-1
 161.25 0 l 1,1,-1
 161.25 78.75 l 1,2,-1
 133.5 78.75 l 1,3,-1
 133.5 456 l 1,4,-1
 143.25 456 l 1,5,-1
 228.75 0 l 1,6,-1
 270 0 l 1,7,-1
 354 456 l 1,8,-1
 362.25 456 l 1,9,-1
 362.25 78.75 l 1,10,-1
 334.5 78.75 l 1,11,-1
 334.5 0 l 1,12,-1
 522 0 l 1,13,-1
 522 78.75 l 1,14,-1
 487.5 78.75 l 1,15,-1
 487.5 447.75 l 1,16,-1
 522 447.75 l 1,17,-1
 522 526.5 l 1,18,-1
 302.25 526.5 l 1,19,-1
 270 319.5 l 1,20,-1
 261 319.5 l 1,21,-1
 228.75 526.5 l 1,22,-1
 24 526.5 l 1,23,-1
 24 447.75 l 1,24,-1
 60 447.75 l 1,25,-1
 60 78.75 l 1,26,-1
 24 78.75 l 1,27,-1
 24 0 l 1,0,-1
EndSplineSet
Validated: 9
EndChar

StartChar: n
Encoding: 110 110 79
Width: 414
VWidth: 750
GlyphClass: 1
Flags: W
LayerCount: 2
Fore
SplineSet
24 0 m 1,0,-1
 164.25 0 l 1,1,-1
 164.25 78.75 l 1,2,-1
 135.75 78.75 l 1,3,-1
 135.75 181.5 l 2,4,5
 135.75 192.75 135.75 192.75 135 218.625 c 128,-1,6
 134.25 244.5 134.25 244.5 133.5 267 c 128,-1,7
 132.75 289.5 132.75 289.5 131.625 317.625 c 128,-1,8
 130.5 345.75 130.5 345.75 129 360 c 1,9,-1
 135.75 360 l 1,10,11
 158.25 280.5 158.25 280.5 180 219.375 c 128,-1,12
 201.75 158.25 201.75 158.25 234.75 72.75 c 0,13,14
 252.75 26.25 252.75 26.25 264 -4.5 c 1,15,-1
 361.5 -4.5 l 1,16,-1
 361.5 447.75 l 1,17,-1
 390 447.75 l 1,18,-1
 390 526.5 l 1,19,-1
 252 526.5 l 1,20,-1
 252 447.75 l 1,21,-1
 282.75 447.75 l 1,22,-1
 282.75 345 l 2,23,24
 282.75 325.5 282.75 325.5 283.5 309.75 c 128,-1,25
 284.25 294 284.25 294 285 270.75 c 0,26,27
 287.25 238.5 287.25 238.5 288 211.5 c 1,28,-1
 281.25 211.5 l 1,29,30
 257.25 302.25 257.25 302.25 233.25 374.625 c 128,-1,31
 209.25 447 209.25 447 175.5 526.5 c 1,32,-1
 24 526.5 l 1,33,-1
 24 447.75 l 1,34,-1
 57 447.75 l 1,35,-1
 57 78.75 l 1,36,-1
 24 78.75 l 1,37,-1
 24 0 l 1,0,-1
EndSplineSet
Validated: 9
EndChar

StartChar: o
Encoding: 111 111 80
Width: 414
VWidth: 750
GlyphClass: 1
Flags: W
LayerCount: 2
Fore
SplineSet
27 263.25 m 256,0,1
 27 201.75 27 201.75 39.75 151.5 c 128,-1,2
 52.5 101.25 52.5 101.25 76.125 65.625 c 128,-1,3
 99.75 30 99.75 30 133.125 10.875 c 128,-1,4
 166.5 -8.25 166.5 -8.25 207 -8.25 c 0,5,6
 248.25 -8.25 248.25 -8.25 281.25 10.875 c 128,-1,7
 314.25 30 314.25 30 337.875 65.625 c 128,-1,8
 361.5 101.25 361.5 101.25 374.25 151.5 c 128,-1,9
 387 201.75 387 201.75 387 263.25 c 256,10,11
 387 324.75 387 324.75 374.25 375 c 128,-1,12
 361.5 425.25 361.5 425.25 337.875 460.875 c 128,-1,13
 314.25 496.5 314.25 496.5 281.25 515.625 c 128,-1,14
 248.25 534.75 248.25 534.75 207 534.75 c 0,15,16
 166.5 534.75 166.5 534.75 133.125 515.625 c 128,-1,17
 99.75 496.5 99.75 496.5 76.125 460.875 c 128,-1,18
 52.5 425.25 52.5 425.25 39.75 375 c 128,-1,19
 27 324.75 27 324.75 27 263.25 c 256,0,1
249.75 263.25 m 256,20,21
 249.75 204 249.75 204 247.875 168.375 c 128,-1,22
 246 132.75 246 132.75 241.125 113.625 c 128,-1,23
 236.25 94.5 236.25 94.5 228.375 87.375 c 128,-1,24
 220.5 80.25 220.5 80.25 207 80.25 c 256,25,26
 193.5 80.25 193.5 80.25 185.625 87.375 c 128,-1,27
 177.75 94.5 177.75 94.5 172.875 113.625 c 128,-1,28
 168 132.75 168 132.75 166.125 168.375 c 128,-1,29
 164.25 204 164.25 204 164.25 263.25 c 256,30,31
 164.25 322.5 164.25 322.5 166.125 358.125 c 128,-1,32
 168 393.75 168 393.75 172.875 412.875 c 128,-1,33
 177.75 432 177.75 432 185.625 439.125 c 128,-1,34
 193.5 446.25 193.5 446.25 207 446.25 c 256,35,36
 220.5 446.25 220.5 446.25 228.375 439.125 c 128,-1,37
 236.25 432 236.25 432 241.125 412.875 c 128,-1,38
 246 393.75 246 393.75 247.875 358.125 c 128,-1,39
 249.75 322.5 249.75 322.5 249.75 263.25 c 256,20,21
EndSplineSet
Validated: 9
EndChar

StartChar: p
Encoding: 112 112 81
Width: 406
VWidth: 750
GlyphClass: 1
Flags: W
LayerCount: 2
Fore
SplineSet
17.25 0 m 1,0,-1
 223.5 0 l 1,1,-1
 223.5 78.75 l 1,2,-1
 179.25 78.75 l 1,3,-1
 179.25 193.5 l 1,4,5
 284.25 193.5 284.25 193.5 333.75 236.25 c 128,-1,6
 383.25 279 383.25 279 383.25 357.75 c 0,7,8
 383.25 438 383.25 438 331.5 482.25 c 128,-1,9
 279.75 526.5 279.75 526.5 186.75 526.5 c 2,10,-1
 17.25 526.5 l 1,11,-1
 17.25 447.75 l 1,12,-1
 54 447.75 l 1,13,-1
 54 78.75 l 1,14,-1
 17.25 78.75 l 1,15,-1
 17.25 0 l 1,0,-1
179.25 447.75 m 1,16,17
 193.5 447.75 193.5 447.75 205.875 444.375 c 128,-1,18
 218.25 441 218.25 441 228.375 431.625 c 128,-1,19
 238.5 422.25 238.5 422.25 244.5 405.375 c 128,-1,20
 250.5 388.5 250.5 388.5 250.5 361.5 c 0,21,22
 250.5 332.25 250.5 332.25 244.125 314.625 c 128,-1,23
 237.75 297 237.75 297 227.625 288 c 128,-1,24
 217.5 279 217.5 279 205.875 276.375 c 128,-1,25
 194.25 273.75 194.25 273.75 179.25 273.75 c 1,26,-1
 179.25 447.75 l 1,16,17
EndSplineSet
Validated: 9
EndChar

StartChar: q
Encoding: 113 113 82
Width: 406
VWidth: 750
GlyphClass: 1
Flags: W
LayerCount: 2
Fore
SplineSet
126.75 -84 m 1,0,1
 141 -75.75 141 -75.75 151.125 -72.75 c 128,-1,2
 161.25 -69.75 161.25 -69.75 173.25 -69.75 c 0,3,4
 192.75 -69.75 192.75 -69.75 207 -76.125 c 128,-1,5
 221.25 -82.5 221.25 -82.5 241.5 -96 c 0,6,7
 267.75 -113.25 267.75 -113.25 291.75 -122.625 c 128,-1,8
 315.75 -132 315.75 -132 354 -132 c 1,9,-1
 368.25 -54.75 l 1,10,11
 340.5 -54.75 340.5 -54.75 321.75 -48 c 128,-1,12
 303 -41.25 303 -41.25 279.75 -27 c 0,13,14
 250.5 -10.5 250.5 -10.5 232.5 -6 c 1,15,-1
 232.5 -4.5 l 1,16,17
 302.25 8.25 302.25 8.25 342.75 79.875 c 128,-1,18
 383.25 151.5 383.25 151.5 383.25 263.25 c 0,19,20
 383.25 324.75 383.25 324.75 370.5 375 c 128,-1,21
 357.75 425.25 357.75 425.25 334.125 460.875 c 128,-1,22
 310.5 496.5 310.5 496.5 277.5 515.625 c 128,-1,23
 244.5 534.75 244.5 534.75 203.25 534.75 c 0,24,25
 162.75 534.75 162.75 534.75 129.375 515.625 c 128,-1,26
 96 496.5 96 496.5 72.375 460.875 c 128,-1,27
 48.75 425.25 48.75 425.25 36 375 c 128,-1,28
 23.25 324.75 23.25 324.75 23.25 263.25 c 0,29,30
 23.25 156.75 23.25 156.75 60.75 85.5 c 128,-1,31
 98.25 14.25 98.25 14.25 163.5 -2.25 c 1,32,-1
 163.5 -3.75 l 1,33,34
 143.25 -6.75 143.25 -6.75 129.375 -12.375 c 128,-1,35
 115.5 -18 115.5 -18 96 -31.5 c 1,36,-1
 126.75 -84 l 1,0,1
246 263.25 m 0,37,38
 246 201 246 201 244.125 165.75 c 128,-1,39
 242.25 130.5 242.25 130.5 237.75 112.125 c 128,-1,40
 233.25 93.75 233.25 93.75 225.375 87 c 128,-1,41
 217.5 80.25 217.5 80.25 203.25 80.25 c 256,42,43
 189 80.25 189 80.25 181.125 87 c 128,-1,44
 173.25 93.75 173.25 93.75 168.75 112.125 c 128,-1,45
 164.25 130.5 164.25 130.5 162.375 165.75 c 128,-1,46
 160.5 201 160.5 201 160.5 263.25 c 0,47,48
 160.5 322.5 160.5 322.5 162.375 358.125 c 128,-1,49
 164.25 393.75 164.25 393.75 169.125 412.875 c 128,-1,50
 174 432 174 432 181.875 439.125 c 128,-1,51
 189.75 446.25 189.75 446.25 203.25 446.25 c 0,52,53
 216 446.25 216 446.25 224.25 439.125 c 128,-1,54
 232.5 432 232.5 432 237.375 412.875 c 128,-1,55
 242.25 393.75 242.25 393.75 244.125 358.5 c 128,-1,56
 246 323.25 246 323.25 246 263.25 c 0,37,38
EndSplineSet
Validated: 9
EndChar

StartChar: r
Encoding: 114 114 83
Width: 406
VWidth: 750
GlyphClass: 1
Flags: W
LayerCount: 2
Fore
SplineSet
27 0 m 1,0,-1
 216.75 0 l 1,1,-1
 216.75 78.75 l 1,2,-1
 184.5 78.75 l 1,3,-1
 184.5 231 l 1,4,-1
 225.75 231 l 1,5,-1
 275.25 0 l 1,6,-1
 390.75 0 l 1,7,-1
 390.75 78.75 l 1,8,-1
 369 78.75 l 1,9,-1
 328.5 266.25 l 1,10,11
 356.25 287.25 356.25 287.25 368.25 311.625 c 128,-1,12
 380.25 336 380.25 336 380.25 372 c 0,13,14
 380.25 437.25 380.25 437.25 339 481.875 c 128,-1,15
 297.75 526.5 297.75 526.5 222.75 526.5 c 2,16,-1
 27 526.5 l 1,17,-1
 27 447.75 l 1,18,-1
 59.25 447.75 l 1,19,-1
 59.25 78.75 l 1,20,-1
 27 78.75 l 1,21,-1
 27 0 l 1,0,-1
184.5 451.5 m 1,22,23
 222.75 451.5 222.75 451.5 238.875 438.375 c 128,-1,24
 255 425.25 255 425.25 255 381.75 c 0,25,26
 255 336 255 336 239.25 321.375 c 128,-1,27
 223.5 306.75 223.5 306.75 184.5 306.75 c 1,28,-1
 184.5 451.5 l 1,22,23
EndSplineSet
Validated: 9
EndChar

StartChar: s
Encoding: 115 115 84
Width: 328
VWidth: 750
GlyphClass: 1
Flags: W
LayerCount: 2
Fore
SplineSet
27 0 m 1,0,-1
 105.75 0 l 1,1,-1
 105.75 33 l 1,2,3
 126 12.75 126 12.75 144.375 4.125 c 128,-1,4
 162.75 -4.5 162.75 -4.5 186.75 -4.5 c 0,5,6
 237.75 -4.5 237.75 -4.5 271.5 35.625 c 128,-1,7
 305.25 75.75 305.25 75.75 305.25 137.25 c 0,8,9
 305.25 180 305.25 180 288.375 215.625 c 128,-1,10
 271.5 251.25 271.5 251.25 232.5 290.25 c 0,11,12
 216.75 306 216.75 306 188.25 330.75 c 0,13,14
 168 348 168 348 160.5 355.5 c 0,15,16
 134.25 381.75 134.25 381.75 134.25 413.25 c 0,17,18
 134.25 431.25 134.25 431.25 143.625 441.75 c 128,-1,19
 153 452.25 153 452.25 168.75 452.25 c 0,20,21
 191.25 452.25 191.25 452.25 202.5 433.125 c 128,-1,22
 213.75 414 213.75 414 213.75 367.5 c 1,23,-1
 292.5 367.5 l 1,24,-1
 292.5 526.5 l 1,25,-1
 213.75 526.5 l 1,26,-1
 213.75 493.5 l 1,27,28
 192.75 513.75 192.75 513.75 176.25 522.375 c 128,-1,29
 159.75 531 159.75 531 131.25 531 c 0,30,31
 83.25 531 83.25 531 52.875 495.75 c 128,-1,32
 22.5 460.5 22.5 460.5 22.5 405 c 0,33,34
 22.5 376.5 22.5 376.5 30.75 352.125 c 128,-1,35
 39 327.75 39 327.75 52.875 307.875 c 128,-1,36
 66.75 288 66.75 288 81.75 272.25 c 128,-1,37
 96.75 256.5 96.75 256.5 120.75 234.75 c 0,38,39
 157.5 201 157.5 201 174.75 178.125 c 128,-1,40
 192 155.25 192 155.25 192 127.5 c 0,41,42
 192 103.5 192 103.5 181.875 89.25 c 128,-1,43
 171.75 75 171.75 75 152.25 75 c 0,44,45
 129 75 129 75 117.375 97.875 c 128,-1,46
 105.75 120.75 105.75 120.75 105.75 171 c 1,47,-1
 27 171 l 1,48,-1
 27 0 l 1,0,-1
EndSplineSet
Validated: 9
EndChar

StartChar: t
Encoding: 116 116 85
Width: 398
VWidth: 750
GlyphClass: 1
Flags: W
LayerCount: 2
Fore
SplineSet
93.75 0 m 1,0,-1
 304.5 0 l 1,1,-1
 304.5 78.75 l 1,2,-1
 261.75 78.75 l 1,3,-1
 261.75 447.75 l 1,4,-1
 306 447.75 l 1,5,-1
 306 332.25 l 1,6,-1
 384.75 332.25 l 1,7,-1
 384.75 526.5 l 1,8,-1
 13.5 526.5 l 1,9,-1
 13.5 332.25 l 1,10,-1
 92.25 332.25 l 1,11,-1
 92.25 447.75 l 1,12,-1
 136.5 447.75 l 1,13,-1
 136.5 78.75 l 1,14,-1
 93.75 78.75 l 1,15,-1
 93.75 0 l 1,0,-1
EndSplineSet
Validated: 9
EndChar

StartChar: u
Encoding: 117 117 86
Width: 390
VWidth: 750
GlyphClass: 1
Flags: W
LayerCount: 2
Fore
SplineSet
12.75 447.75 m 1,0,-1
 53.25 447.75 l 1,1,-1
 53.25 136.5 l 2,2,3
 53.25 61.5 53.25 61.5 92.625 26.625 c 128,-1,4
 132 -8.25 132 -8.25 200.25 -8.25 c 0,5,6
 261.75 -8.25 261.75 -8.25 298.875 29.625 c 128,-1,7
 336 67.5 336 67.5 336 129 c 2,8,-1
 336 447.75 l 1,9,-1
 378 447.75 l 1,10,-1
 378 526.5 l 1,11,-1
 234.75 526.5 l 1,12,-1
 234.75 447.75 l 1,13,-1
 257.25 447.75 l 1,14,-1
 257.25 132 l 2,15,16
 257.25 99.75 257.25 99.75 246.75 85.125 c 128,-1,17
 236.25 70.5 236.25 70.5 216 70.5 c 0,18,19
 178.5 70.5 178.5 70.5 178.5 126.75 c 2,20,-1
 178.5 447.75 l 1,21,-1
 200.25 447.75 l 1,22,-1
 200.25 526.5 l 1,23,-1
 12.75 526.5 l 1,24,-1
 12.75 447.75 l 1,0,-1
EndSplineSet
Validated: 9
EndChar

StartChar: v
Encoding: 118 118 87
Width: 422
VWidth: 750
GlyphClass: 1
Flags: W
LayerCount: 2
Fore
SplineSet
159 -8.25 m 1,0,-1
 259.5 -8.25 l 1,1,-1
 380.25 447.75 l 1,2,-1
 416.25 447.75 l 1,3,-1
 416.25 526.5 l 1,4,-1
 234 526.5 l 1,5,-1
 234 447.75 l 1,6,-1
 278.25 447.75 l 1,7,-1
 219 196.5 l 1,8,-1
 217.5 196.5 l 1,9,-1
 159 447.75 l 1,10,-1
 197.25 447.75 l 1,11,-1
 197.25 526.5 l 1,12,-1
 5.25 526.5 l 1,13,-1
 5.25 447.75 l 1,14,-1
 42.75 447.75 l 1,15,-1
 159 -8.25 l 1,0,-1
EndSplineSet
Validated: 9
EndChar

StartChar: w
Encoding: 119 119 88
Width: 555
VWidth: 750
GlyphClass: 1
Flags: W
LayerCount: 2
Fore
SplineSet
136.5 -8.25 m 1,0,-1
 230.25 -8.25 l 1,1,-1
 278.25 222 l 1,2,-1
 279.75 222 l 1,3,-1
 330.75 -8.25 l 1,4,-1
 423.75 -8.25 l 1,5,-1
 521.25 447.75 l 1,6,-1
 548.25 447.75 l 1,7,-1
 548.25 526.5 l 1,8,-1
 396.75 526.5 l 1,9,-1
 396.75 447.75 l 1,10,-1
 426.75 447.75 l 1,11,-1
 381 226.5 l 1,12,-1
 379.5 226.5 l 1,13,-1
 330.75 447.75 l 1,14,-1
 360 447.75 l 1,15,-1
 360 526.5 l 1,16,-1
 215.25 526.5 l 1,17,-1
 215.25 447.75 l 1,18,-1
 241.5 447.75 l 1,19,-1
 198 231.75 l 1,20,-1
 196.5 231.75 l 1,21,-1
 148.5 447.75 l 1,22,-1
 177 447.75 l 1,23,-1
 177 526.5 l 1,24,-1
 6.75 526.5 l 1,25,-1
 6.75 447.75 l 1,26,-1
 34.5 447.75 l 1,27,-1
 136.5 -8.25 l 1,0,-1
EndSplineSet
Validated: 9
EndChar

StartChar: x
Encoding: 120 120 89
Width: 437
VWidth: 750
GlyphClass: 1
Flags: W
LayerCount: 2
Fore
SplineSet
14.25 0 m 1,0,-1
 179.25 0 l 1,1,-1
 179.25 78.75 l 1,2,-1
 141 78.75 l 1,3,-1
 201.75 171.75 l 1,4,-1
 254.25 78.75 l 1,5,-1
 215.25 78.75 l 1,6,-1
 215.25 0 l 1,7,-1
 423.75 0 l 1,8,-1
 423.75 78.75 l 1,9,-1
 389.25 78.75 l 1,10,-1
 277.5 273.75 l 1,11,-1
 377.25 447.75 l 1,12,-1
 417 447.75 l 1,13,-1
 417 526.5 l 1,14,-1
 251.25 526.5 l 1,15,-1
 251.25 447.75 l 1,16,-1
 285.75 447.75 l 1,17,-1
 232.5 353.25 l 1,18,-1
 179.25 447.75 l 1,19,-1
 215.25 447.75 l 1,20,-1
 215.25 526.5 l 1,21,-1
 14.25 526.5 l 1,22,-1
 14.25 447.75 l 1,23,-1
 45 447.75 l 1,24,-1
 156.75 250.5 l 1,25,-1
 45 78.75 l 1,26,-1
 14.25 78.75 l 1,27,-1
 14.25 0 l 1,0,-1
EndSplineSet
Validated: 9
EndChar

StartChar: y
Encoding: 121 121 90
Width: 429
VWidth: 750
GlyphClass: 1
Flags: W
LayerCount: 2
Fore
SplineSet
106.5 0 m 1,0,-1
 316.5 0 l 1,1,-1
 316.5 78.75 l 1,2,-1
 275.25 78.75 l 1,3,-1
 275.25 200.25 l 1,4,-1
 382.5 447.75 l 1,5,-1
 419.25 447.75 l 1,6,-1
 419.25 526.5 l 1,7,-1
 248.25 526.5 l 1,8,-1
 248.25 447.75 l 1,9,-1
 296.25 447.75 l 1,10,-1
 228.75 290.25 l 1,11,-1
 164.25 447.75 l 1,12,-1
 211.5 447.75 l 1,13,-1
 211.5 526.5 l 1,14,-1
 9.75 526.5 l 1,15,-1
 9.75 447.75 l 1,16,-1
 45.75 447.75 l 1,17,-1
 150 200.25 l 1,18,-1
 150 78.75 l 1,19,-1
 106.5 78.75 l 1,20,-1
 106.5 0 l 1,0,-1
EndSplineSet
Validated: 9
EndChar

StartChar: z
Encoding: 122 122 91
Width: 351
VWidth: 750
GlyphClass: 1
Flags: W
LayerCount: 2
Fore
SplineSet
18.75 0 m 1,0,-1
 333 0 l 1,1,-1
 333 173.25 l 1,2,-1
 254.25 173.25 l 1,3,-1
 254.25 78.75 l 1,4,-1
 148.5 78.75 l 1,5,-1
 330 447.75 l 1,6,-1
 330 526.5 l 1,7,-1
 30 526.5 l 1,8,-1
 30 360 l 1,9,-1
 108.75 360 l 1,10,-1
 108.75 447.75 l 1,11,-1
 201 447.75 l 1,12,-1
 18.75 78.75 l 1,13,-1
 18.75 0 l 1,0,-1
EndSplineSet
Validated: 9
EndChar

StartChar: braceleft
Encoding: 123 123 92
Width: 389
GlyphClass: 1
Flags: W
LayerCount: 2
Fore
SplineSet
318 -108 m 1,0,1
 298 -105 298 -105 286.5 -100 c 128,-1,2
 275 -95 275 -95 269.5 -84 c 128,-1,3
 264 -73 264 -73 262 -54 c 128,-1,4
 260 -35 260 -35 260 0 c 0,5,6
 260 116 260 116 236.5 172.5 c 128,-1,7
 213 229 213 229 161 243 c 1,8,-1
 161 245 l 1,9,10
 213 260 213 260 236.5 316.5 c 128,-1,11
 260 373 260 373 260 489 c 0,12,13
 260 524 260 524 262 543 c 128,-1,14
 264 562 264 562 269.5 573 c 128,-1,15
 275 584 275 584 286 589 c 128,-1,16
 297 594 297 594 318 597 c 1,17,-1
 318 713 l 1,18,19
 260 713 260 713 224 699 c 128,-1,20
 188 685 188 685 169 657 c 128,-1,21
 150 629 150 629 143 587 c 128,-1,22
 136 545 136 545 136 481 c 0,23,24
 136 391 136 391 121 355.5 c 128,-1,25
 106 320 106 320 71 305 c 1,26,-1
 71 184 l 1,27,28
 106 169 106 169 121 133.5 c 128,-1,29
 136 98 136 98 136 8 c 0,30,31
 136 -56 136 -56 143 -98 c 128,-1,32
 150 -140 150 -140 169.5 -168 c 128,-1,33
 189 -196 189 -196 224.5 -210 c 128,-1,34
 260 -224 260 -224 318 -224 c 1,35,-1
 318 -108 l 1,0,1
EndSplineSet
Validated: 9
EndChar

StartChar: bar
Encoding: 124 124 93
Width: 588
GlyphClass: 1
Flags: W
LayerCount: 2
Fore
SplineSet
241 702 m 1,0,-1
 241 -129 l 1,1,-1
 347 -129 l 1,2,-1
 347 702 l 1,3,-1
 241 702 l 1,0,-1
EndSplineSet
Validated: 9
EndChar

StartChar: braceright
Encoding: 125 125 94
Width: 389
GlyphClass: 1
Flags: W
LayerCount: 2
Fore
SplineSet
71 -108 m 1,0,-1
 71 -224 l 1,1,2
 129 -224 129 -224 165 -210 c 128,-1,3
 201 -196 201 -196 220 -168 c 128,-1,4
 239 -140 239 -140 246 -98 c 128,-1,5
 253 -56 253 -56 253 8 c 0,6,7
 253 98 253 98 268 133.5 c 128,-1,8
 283 169 283 169 318 184 c 1,9,-1
 318 305 l 1,10,11
 283 320 283 320 268 355.5 c 128,-1,12
 253 391 253 391 253 481 c 0,13,14
 253 545 253 545 246 587 c 128,-1,15
 239 629 239 629 220 657 c 128,-1,16
 201 685 201 685 165 699 c 128,-1,17
 129 713 129 713 71 713 c 1,18,-1
 71 597 l 1,19,20
 92 594 92 594 103 589 c 128,-1,21
 114 584 114 584 119.5 573 c 128,-1,22
 125 562 125 562 127 543 c 128,-1,23
 129 524 129 524 129 489 c 0,24,25
 129 373 129 373 152.5 316.5 c 128,-1,26
 176 260 176 260 228 245 c 1,27,-1
 228 243 l 1,28,29
 176 229 176 229 152.5 172.5 c 128,-1,30
 129 116 129 116 129 0 c 0,31,32
 129 -35 129 -35 127 -54 c 128,-1,33
 125 -73 125 -73 119.5 -84 c 128,-1,34
 114 -95 114 -95 103 -100 c 128,-1,35
 92 -105 92 -105 71 -108 c 1,0,-1
EndSplineSet
Validated: 9
EndChar

StartChar: asciitilde
Encoding: 126 126 95
Width: 656
GlyphClass: 1
Flags: W
LayerCount: 2
Fore
SplineSet
599 437 m 1,0,1
 557 400 557 400 523 382.5 c 128,-1,2
 489 365 489 365 456 365 c 0,3,4
 433 365 433 365 409 374 c 128,-1,5
 385 383 385 383 349 400 c 2,6,-1
 340 404 l 2,7,8
 301 423 301 423 271 433 c 128,-1,9
 241 443 241 443 211 443 c 0,10,11
 135 443 135 443 57 376 c 1,12,-1
 57 267 l 1,13,14
 135 339 135 339 205 339 c 0,15,16
 227 339 227 339 249.5 331 c 128,-1,17
 272 323 272 323 306 306 c 2,18,-1
 319 300 l 2,19,20
 357 281 357 281 388 270.5 c 128,-1,21
 419 260 419 260 452 260 c 256,22,23
 485 260 485 260 520.5 276.5 c 128,-1,24
 556 293 556 293 599 328 c 1,25,-1
 599 437 l 1,0,1
EndSplineSet
Validated: 9
EndChar

StartChar: quotesinglbase
Encoding: 8218 8218 96
Width: 292
GlyphClass: 1
Flags: W
LayerCount: 2
Fore
SplineSet
68 -187 m 1,0,1
 224 -179 224 -179 224 5 c 2,2,-1
 224 156 l 1,3,-1
 68 156 l 1,4,-1
 68 0 l 1,5,-1
 143 0 l 1,6,7
 143 -53 143 -53 125 -79 c 128,-1,8
 107 -105 107 -105 68 -109 c 1,9,-1
 68 -187 l 1,0,1
EndSplineSet
Validated: 9
EndChar

StartChar: florin
Encoding: 402 402 97
Width: 556
GlyphClass: 1
Flags: W
LayerCount: 2
Fore
SplineSet
442 490 m 1,0,-1
 378 490 l 1,1,-1
 385 524 l 2,2,3
 393 564 393 564 406 574 c 128,-1,4
 419 584 419 584 460 584 c 1,5,-1
 478 713 l 1,6,-1
 372 713 l 2,7,8
 326 713 326 713 302 673.5 c 128,-1,9
 278 634 278 634 265 560 c 2,10,-1
 253 490 l 1,11,-1
 193 490 l 1,12,-1
 172 339 l 1,13,-1
 231 339 l 1,14,-1
 172 -14 l 2,15,16
 165 -61 165 -61 149.5 -76.5 c 128,-1,17
 134 -92 134 -92 95 -92 c 1,18,-1
 77 -224 l 1,19,-1
 183 -224 l 2,20,21
 222 -224 222 -224 249 -183.5 c 128,-1,22
 276 -143 276 -143 288 -74 c 2,23,-1
 356 339 l 1,24,-1
 421 339 l 1,25,-1
 442 490 l 1,0,-1
EndSplineSet
Validated: 9
EndChar

StartChar: quotedblbase
Encoding: 8222 8222 98
Width: 521
GlyphClass: 1
Flags: W
LayerCount: 2
Fore
SplineSet
299 -187 m 1,0,1
 455 -179 455 -179 455 5 c 2,2,-1
 455 156 l 1,3,-1
 299 156 l 1,4,-1
 299 0 l 1,5,-1
 374 0 l 1,6,7
 374 -53 374 -53 356 -79 c 128,-1,8
 338 -105 338 -105 299 -109 c 1,9,-1
 299 -187 l 1,0,1
66 -187 m 1,10,11
 222 -179 222 -179 222 5 c 2,12,-1
 222 156 l 1,13,-1
 66 156 l 1,14,-1
 66 0 l 1,15,-1
 141 0 l 1,16,17
 141 -53 141 -53 123 -79 c 128,-1,18
 105 -105 105 -105 66 -109 c 1,19,-1
 66 -187 l 1,10,11
EndSplineSet
Validated: 9
EndChar

StartChar: ellipsis
Encoding: 8230 8230 99
Width: 1000
GlyphClass: 1
Flags: W
LayerCount: 2
Fore
SplineSet
422 0 m 1,0,-1
 578 0 l 1,1,-1
 578 156 l 1,2,-1
 422 156 l 1,3,-1
 422 0 l 1,0,-1
755 0 m 1,4,-1
 911 0 l 1,5,-1
 911 156 l 1,6,-1
 755 156 l 1,7,-1
 755 0 l 1,4,-1
89 0 m 1,8,-1
 245 0 l 1,9,-1
 245 156 l 1,10,-1
 89 156 l 1,11,-1
 89 0 l 1,8,-1
EndSplineSet
Validated: 9
EndChar

StartChar: dagger
Encoding: 8224 8224 100
Width: 427
GlyphClass: 1
Flags: W
LayerCount: 2
Fore
SplineSet
181 -224 m 1,0,-1
 246 -224 l 1,1,-1
 282 152 l 1,2,-1
 282 284 l 1,3,4
 259 307 259 307 250.5 332.5 c 128,-1,5
 242 358 242 358 240 410 c 1,6,-1
 244 410 l 2,7,8
 284 410 284 410 297 373 c 1,9,-1
 398 373 l 1,10,-1
 398 496 l 1,11,-1
 297 496 l 1,12,13
 289 476 289 476 277 469 c 128,-1,14
 265 462 265 462 240 460 c 1,15,16
 240 509 240 509 249 537 c 0,17,18
 259 566 259 566 282 584 c 1,19,-1
 282 702 l 1,20,-1
 146 702 l 1,21,-1
 146 584 l 1,22,23
 169 565 169 565 178 537.5 c 128,-1,24
 187 510 187 510 187 460 c 1,25,26
 162 462 162 462 150 469 c 128,-1,27
 138 476 138 476 130 496 c 1,28,-1
 30 496 l 1,29,-1
 30 373 l 1,30,-1
 130 373 l 1,31,32
 143 410 143 410 183 410 c 2,33,-1
 187 410 l 1,34,35
 186 359 186 359 177.5 333 c 128,-1,36
 169 307 169 307 146 284 c 1,37,-1
 146 152 l 1,38,-1
 181 -224 l 1,0,-1
EndSplineSet
Validated: 9
EndChar

StartChar: daggerdbl
Encoding: 8225 8225 101
Width: 427
GlyphClass: 1
Flags: W
LayerCount: 2
Fore
SplineSet
147 -224 m 1,0,-1
 281 -224 l 1,1,-1
 281 -106 l 1,2,3
 257 -89 257 -89 247.5 -62 c 128,-1,4
 238 -35 238 -35 238 16 c 1,5,6
 269 15 269 15 281 8 c 128,-1,7
 293 1 293 1 298 -20 c 1,8,-1
 398 -20 l 1,9,-1
 398 106 l 1,10,-1
 298 106 l 1,11,12
 293 87 293 87 279 78 c 128,-1,13
 265 69 265 69 238 67 c 1,14,15
 238 130 238 130 246 166 c 0,16,17
 254 203 254 203 281 238 c 1,18,19
 258 266 258 266 248 306 c 128,-1,20
 238 346 238 346 238 410 c 1,21,22
 264 410 264 410 278 401 c 128,-1,23
 292 392 292 392 298 372 c 1,24,-1
 398 372 l 1,25,-1
 398 496 l 1,26,-1
 298 496 l 1,27,28
 289 461 289 461 238 460 c 1,29,30
 238 511 238 511 248 540 c 0,31,32
 258 568 258 568 281 583 c 1,33,-1
 281 702 l 1,34,-1
 147 702 l 1,35,-1
 147 583 l 1,36,37
 169 568 169 568 179 539.5 c 128,-1,38
 189 511 189 511 189 460 c 1,39,40
 138 462 138 462 129 496 c 1,41,-1
 30 496 l 1,42,-1
 30 372 l 1,43,-1
 129 372 l 1,44,45
 135 392 135 392 149 401 c 128,-1,46
 163 410 163 410 189 410 c 1,47,48
 189 346 189 346 179 306 c 0,49,50
 171 268 171 268 147 238 c 1,51,52
 169 207 169 207 179 170.5 c 128,-1,53
 189 134 189 134 189 67 c 1,54,55
 139 70 139 70 129 106 c 1,56,-1
 30 106 l 1,57,-1
 30 -20 l 1,58,-1
 129 -20 l 1,59,60
 134 1 134 1 146.5 8 c 128,-1,61
 159 15 159 15 189 16 c 1,62,63
 189 -34 189 -34 180 -62 c 0,64,65
 170 -89 170 -89 147 -106 c 1,66,-1
 147 -224 l 1,0,-1
EndSplineSet
Validated: 9
EndChar

StartChar: circumflex
Encoding: 710 710 102
Width: 333
GlyphClass: 1
Flags: W
LayerCount: 2
Fore
SplineSet
5 530 m 1,0,-1
 98 530 l 1,1,-1
 167 626 l 1,2,-1
 235 530 l 1,3,-1
 328 530 l 1,4,-1
 238 719 l 1,5,-1
 95 719 l 1,6,-1
 5 530 l 1,0,-1
EndSplineSet
Validated: 9
EndChar

StartChar: perthousand
Encoding: 8240 8240 103
Width: 854
GlyphClass: 1
Flags: W
LayerCount: 2
Fore
SplineSet
749 128 m 2,0,1
 749 87 749 87 745 76 c 128,-1,2
 741 65 741 65 728 65 c 0,3,4
 716 65 716 65 712 76.5 c 128,-1,5
 708 88 708 88 708 129 c 2,6,-1
 708 242 l 2,7,8
 708 283 708 283 712.5 295 c 128,-1,9
 717 307 717 307 729 307 c 256,10,11
 741 307 741 307 745 295.5 c 128,-1,12
 749 284 749 284 749 243 c 2,13,-1
 749 128 l 2,0,1
125 -8 m 1,14,-1
 200 -8 l 1,15,-1
 477 710 l 1,16,-1
 402 710 l 1,17,-1
 125 -8 l 1,14,-1
147 458 m 2,18,19
 147 417 147 417 143 406 c 128,-1,20
 139 395 139 395 126 395 c 0,21,22
 114 395 114 395 110 406.5 c 128,-1,23
 106 418 106 418 106 459 c 2,24,-1
 106 572 l 2,25,26
 106 613 106 613 110.5 625 c 128,-1,27
 115 637 115 637 127 637 c 256,28,29
 139 637 139 637 143 625.5 c 128,-1,30
 147 614 147 614 147 573 c 2,31,-1
 147 458 l 2,18,19
616 186 m 0,32,33
 616 80 616 80 643.5 36 c 128,-1,34
 671 -8 671 -8 729 -8 c 0,35,36
 789 -8 789 -8 815 40 c 128,-1,37
 841 88 841 88 841 186 c 0,38,39
 841 287 841 287 814 333.5 c 128,-1,40
 787 380 787 380 729 380 c 0,41,42
 667 380 667 380 641.5 331 c 128,-1,43
 616 282 616 282 616 186 c 0,32,33
14 516 m 0,44,45
 14 410 14 410 41.5 366 c 128,-1,46
 69 322 69 322 127 322 c 0,47,48
 187 322 187 322 213 370 c 128,-1,49
 239 418 239 418 239 516 c 0,50,51
 239 617 239 617 212 663.5 c 128,-1,52
 185 710 185 710 127 710 c 0,53,54
 65 710 65 710 39.5 661 c 128,-1,55
 14 612 14 612 14 516 c 0,44,45
364 186 m 0,56,57
 364 80 364 80 391.5 36 c 128,-1,58
 419 -8 419 -8 477 -8 c 0,59,60
 537 -8 537 -8 563 40 c 128,-1,61
 589 88 589 88 589 186 c 0,62,63
 589 287 589 287 562 333.5 c 128,-1,64
 535 380 535 380 477 380 c 0,65,66
 415 380 415 380 389.5 331 c 128,-1,67
 364 282 364 282 364 186 c 0,56,57
497 128 m 2,68,69
 497 87 497 87 493 76 c 128,-1,70
 489 65 489 65 476 65 c 0,71,72
 464 65 464 65 460 76.5 c 128,-1,73
 456 88 456 88 456 129 c 2,74,-1
 456 242 l 2,75,76
 456 283 456 283 460.5 295 c 128,-1,77
 465 307 465 307 477 307 c 256,78,79
 489 307 489 307 493 295.5 c 128,-1,80
 497 284 497 284 497 243 c 2,81,-1
 497 128 l 2,68,69
EndSplineSet
Validated: 9
EndChar

StartChar: Scaron
Encoding: 352 352 104
Width: 438
GlyphClass: 1
Flags: W
LayerCount: 2
Fore
SplineSet
381 927 m 1,0,-1
 288 927 l 1,1,-1
 219 831 l 1,2,-1
 151 927 l 1,3,-1
 58 927 l 1,4,-1
 148 738 l 1,5,-1
 291 738 l 1,6,-1
 381 927 l 1,0,-1
36 0 m 1,7,-1
 141 0 l 1,8,-1
 141 44 l 1,9,10
 168 17 168 17 192.5 5.5 c 128,-1,11
 217 -6 217 -6 249 -6 c 0,12,13
 317 -6 317 -6 362 47.5 c 128,-1,14
 407 101 407 101 407 183 c 0,15,16
 407 240 407 240 384.5 287.5 c 128,-1,17
 362 335 362 335 310 387 c 0,18,19
 289 408 289 408 251 441 c 0,20,21
 224 464 224 464 214 474 c 0,22,23
 179 509 179 509 179 551 c 0,24,25
 179 575 179 575 191.5 589 c 128,-1,26
 204 603 204 603 225 603 c 0,27,28
 255 603 255 603 270 577.5 c 128,-1,29
 285 552 285 552 285 490 c 1,30,-1
 390 490 l 1,31,-1
 390 702 l 1,32,-1
 285 702 l 1,33,-1
 285 658 l 1,34,35
 257 685 257 685 235 696.5 c 128,-1,36
 213 708 213 708 175 708 c 0,37,38
 111 708 111 708 70.5 661 c 128,-1,39
 30 614 30 614 30 540 c 0,40,41
 30 502 30 502 41 469.5 c 128,-1,42
 52 437 52 437 70.5 410.5 c 128,-1,43
 89 384 89 384 109 363 c 128,-1,44
 129 342 129 342 161 313 c 0,45,46
 210 268 210 268 233 237.5 c 128,-1,47
 256 207 256 207 256 170 c 0,48,49
 256 138 256 138 242.5 119 c 128,-1,50
 229 100 229 100 203 100 c 0,51,52
 172 100 172 100 156.5 130.5 c 128,-1,53
 141 161 141 161 141 228 c 1,54,-1
 36 228 l 1,55,-1
 36 0 l 1,7,-1
EndSplineSet
Validated: 9
EndChar

StartChar: guilsinglleft
Encoding: 8249 8249 105
Width: 292
GlyphClass: 1
Flags: W
LayerCount: 2
Fore
SplineSet
151 0 m 1,0,-1
 278 0 l 1,1,-1
 145 245 l 1,2,-1
 278 490 l 1,3,-1
 151 490 l 1,4,-1
 17 245 l 1,5,-1
 151 0 l 1,0,-1
EndSplineSet
Validated: 9
EndChar

StartChar: OE
Encoding: 338 338 106
Width: 729
GlyphClass: 1
Flags: W
LayerCount: 2
Fore
SplineSet
692 0 m 1,0,-1
 692 230 l 1,1,-1
 567 230 l 1,2,-1
 567 105 l 1,3,-1
 476 105 l 1,4,-1
 476 306 l 1,5,-1
 552 306 l 1,6,-1
 552 411 l 1,7,-1
 476 411 l 1,8,-1
 476 597 l 1,9,-1
 567 597 l 1,10,-1
 567 478 l 1,11,-1
 692 478 l 1,12,-1
 692 702 l 1,13,-1
 329 702 l 2,14,15
 260 702 260 702 206.5 681.5 c 128,-1,16
 153 661 153 661 114.5 617 c 128,-1,17
 76 573 76 573 56 502 c 128,-1,18
 36 431 36 431 36 333 c 0,19,20
 36 179 36 179 110 89.5 c 128,-1,21
 184 0 184 0 327 0 c 2,22,-1
 692 0 l 1,0,-1
309 105 m 1,23,24
 278 110 278 110 260 126.5 c 128,-1,25
 242 143 242 143 233 172.5 c 128,-1,26
 224 202 224 202 221.5 244.5 c 128,-1,27
 219 287 219 287 219 362 c 0,28,29
 219 430 219 430 223 472.5 c 128,-1,30
 227 515 227 515 236.5 541 c 128,-1,31
 246 567 246 567 263.5 579.5 c 128,-1,32
 281 592 281 592 309 597 c 1,33,-1
 309 105 l 1,23,24
EndSplineSet
Validated: 9
EndChar

StartChar: quoteleft
Encoding: 8216 8216 107
Width: 292
GlyphClass: 1
Flags: W
LayerCount: 2
Fore
SplineSet
224 702 m 1,0,1
 68 694 68 694 68 510 c 2,2,-1
 68 359 l 1,3,-1
 224 359 l 1,4,-1
 224 515 l 1,5,-1
 149 515 l 1,6,7
 149 568 149 568 167 594 c 128,-1,8
 185 620 185 620 224 624 c 1,9,-1
 224 702 l 1,0,1
EndSplineSet
Validated: 9
EndChar

StartChar: quoteright
Encoding: 8217 8217 108
Width: 292
GlyphClass: 1
Flags: W
LayerCount: 2
Fore
SplineSet
68 359 m 1,0,1
 224 367 224 367 224 551 c 2,2,-1
 224 702 l 1,3,-1
 68 702 l 1,4,-1
 68 546 l 1,5,-1
 143 546 l 1,6,7
 143 493 143 493 125 467.5 c 128,-1,8
 107 442 107 442 68 437 c 1,9,-1
 68 359 l 1,0,1
EndSplineSet
Validated: 9
EndChar

StartChar: quotedblleft
Encoding: 8220 8220 109
Width: 521
GlyphClass: 1
Flags: W
LayerCount: 2
Fore
SplineSet
455 702 m 1,0,1
 299 694 299 694 299 510 c 2,2,-1
 299 359 l 1,3,-1
 455 359 l 1,4,-1
 455 515 l 1,5,-1
 380 515 l 1,6,7
 380 568 380 568 398 594 c 128,-1,8
 416 620 416 620 455 624 c 1,9,-1
 455 702 l 1,0,1
222 702 m 1,10,11
 66 694 66 694 66 510 c 2,12,-1
 66 359 l 1,13,-1
 222 359 l 1,14,-1
 222 515 l 1,15,-1
 147 515 l 1,16,17
 147 568 147 568 165 594 c 128,-1,18
 183 620 183 620 222 624 c 1,19,-1
 222 702 l 1,10,11
EndSplineSet
Validated: 9
EndChar

StartChar: quotedblright
Encoding: 8221 8221 110
Width: 521
GlyphClass: 1
Flags: W
LayerCount: 2
Fore
SplineSet
299 359 m 1,0,1
 455 367 455 367 455 551 c 2,2,-1
 455 702 l 1,3,-1
 299 702 l 1,4,-1
 299 546 l 1,5,-1
 374 546 l 1,6,7
 374 493 374 493 356 467.5 c 128,-1,8
 338 442 338 442 299 437 c 1,9,-1
 299 359 l 1,0,1
66 359 m 1,10,11
 222 367 222 367 222 551 c 2,12,-1
 222 702 l 1,13,-1
 66 702 l 1,14,-1
 66 546 l 1,15,-1
 141 546 l 1,16,17
 141 493 141 493 123 467.5 c 128,-1,18
 105 442 105 442 66 437 c 1,19,-1
 66 359 l 1,10,11
EndSplineSet
Validated: 9
EndChar

StartChar: bullet
Encoding: 8226 8226 111
Width: 350
GlyphClass: 1
Flags: W
LayerCount: 2
Fore
SplineSet
176 470 m 256,0,1
 118 470 118 470 77 429.5 c 128,-1,2
 36 389 36 389 36 331 c 256,3,4
 36 273 36 273 77 232 c 128,-1,5
 118 191 118 191 176 191 c 256,6,7
 234 191 234 191 274.5 232 c 128,-1,8
 315 273 315 273 315 331 c 256,9,10
 315 389 315 389 274.5 429.5 c 128,-1,11
 234 470 234 470 176 470 c 256,0,1
EndSplineSet
Validated: 9
EndChar

StartChar: endash
Encoding: 8211 8211 112
Width: 500
GlyphClass: 1
Flags: W
LayerCount: 2
Fore
SplineSet
-6 295 m 1,0,-1
 -6 205 l 1,1,-1
 506 205 l 1,2,-1
 506 295 l 1,3,-1
 -6 295 l 1,0,-1
EndSplineSet
Validated: 9
EndChar

StartChar: emdash
Encoding: 8212 8212 113
Width: 1000
GlyphClass: 1
Flags: W
LayerCount: 2
Fore
SplineSet
-6 295 m 1,0,-1
 -6 205 l 1,1,-1
 1006 205 l 1,2,-1
 1006 295 l 1,3,-1
 -6 295 l 1,0,-1
EndSplineSet
Validated: 9
EndChar

StartChar: tilde
Encoding: 732 732 114
Width: 333
GlyphClass: 1
Flags: W
LayerCount: 2
Fore
SplineSet
67 560 m 1,0,1
 75 598 75 598 100 598 c 0,2,3
 112 598 112 598 148 583 c 0,4,5
 175 572 175 572 193 566.5 c 128,-1,6
 211 561 211 561 229 561 c 0,7,8
 270 561 270 561 299.5 597.5 c 128,-1,9
 329 634 329 634 334 691 c 1,10,-1
 264 691 l 1,11,12
 255 654 255 654 234 654 c 0,13,14
 218 654 218 654 176 670 c 0,15,16
 151 681 151 681 135 685.5 c 128,-1,17
 119 690 119 690 104 690 c 0,18,19
 62 690 62 690 32 653 c 128,-1,20
 2 616 2 616 -1 560 c 1,21,-1
 67 560 l 1,0,1
EndSplineSet
Validated: 9
EndChar

StartChar: trademark
Encoding: 8482 8482 115
Width: 1000
GlyphClass: 1
Flags: W
LayerCount: 2
Fore
SplineSet
220 302 m 1,0,-1
 301 302 l 1,1,-1
 301 632 l 1,2,-1
 421 632 l 1,3,-1
 421 702 l 1,4,-1
 96 702 l 1,5,-1
 96 632 l 1,6,-1
 220 632 l 1,7,-1
 220 302 l 1,0,-1
468 302 m 1,8,-1
 545 302 l 1,9,-1
 545 621 l 1,10,-1
 547 621 l 1,11,-1
 631 302 l 1,12,-1
 704 302 l 1,13,-1
 789 621 l 1,14,-1
 791 621 l 1,15,-1
 791 302 l 1,16,-1
 868 302 l 1,17,-1
 868 702 l 1,18,-1
 741 702 l 1,19,-1
 669 426 l 1,20,-1
 667 426 l 1,21,-1
 595 702 l 1,22,-1
 468 702 l 1,23,-1
 468 302 l 1,8,-1
EndSplineSet
Validated: 9
EndChar

StartChar: scaron
Encoding: 353 353 116
Width: 365
GlyphClass: 1
Flags: W
LayerCount: 2
Fore
SplineSet
344 719 m 1,0,-1
 251 719 l 1,1,-1
 182 623 l 1,2,-1
 114 719 l 1,3,-1
 21 719 l 1,4,-1
 111 530 l 1,5,-1
 254 530 l 1,6,-1
 344 719 l 1,0,-1
34 0 m 1,7,-1
 139 0 l 1,8,-1
 139 32 l 1,9,-1
 141 32 l 2,10,11
 143 30 143 30 150 22 c 0,12,13
 163 7 163 7 177 -0.5 c 128,-1,14
 191 -8 191 -8 223 -8 c 0,15,16
 275 -8 275 -8 306 29 c 128,-1,17
 337 66 337 66 337 128 c 0,18,19
 337 163 337 163 326.5 190 c 128,-1,20
 316 217 316 217 298.5 237.5 c 128,-1,21
 281 258 281 258 263 271.5 c 128,-1,22
 245 285 245 285 215 304 c 0,23,24
 179 327 179 327 162.5 343 c 128,-1,25
 146 359 146 359 146 380 c 0,26,27
 146 395 146 395 155 404.5 c 128,-1,28
 164 414 164 414 179 414 c 0,29,30
 213 414 213 414 220 363 c 1,31,-1
 325 363 l 1,32,-1
 325 490 l 1,33,-1
 220 490 l 1,34,-1
 220 458 l 1,35,-1
 218 458 l 1,36,37
 205 474 205 474 186.5 486 c 128,-1,38
 168 498 168 498 141 498 c 0,39,40
 90 498 90 498 58.5 460 c 128,-1,41
 27 422 27 422 27 361 c 0,42,43
 27 328 27 328 37.5 301.5 c 128,-1,44
 48 275 48 275 65 255 c 128,-1,45
 82 235 82 235 100.5 220.5 c 128,-1,46
 119 206 119 206 147 187 c 0,47,48
 182 163 182 163 197.5 148 c 128,-1,49
 213 133 213 133 213 114 c 0,50,51
 213 80 213 80 181 80 c 0,52,53
 143 80 143 80 139 133 c 1,54,-1
 34 133 l 1,55,-1
 34 0 l 1,7,-1
EndSplineSet
Validated: 9
EndChar

StartChar: guilsinglright
Encoding: 8250 8250 117
Width: 292
GlyphClass: 1
Flags: W
LayerCount: 2
Fore
SplineSet
140 0 m 1,0,-1
 275 245 l 1,1,-1
 140 490 l 1,2,-1
 14 490 l 1,3,-1
 146 245 l 1,4,-1
 14 0 l 1,5,-1
 140 0 l 1,0,-1
EndSplineSet
Validated: 9
EndChar

StartChar: oe
Encoding: 339 339 118
Width: 667
GlyphClass: 1
Flags: W
LayerCount: 2
Fore
SplineSet
506 152 m 1,0,1
 498 120 498 120 487 105.5 c 128,-1,2
 476 91 476 91 455 91 c 0,3,4
 429 91 429 91 419.5 109.5 c 128,-1,5
 410 128 410 128 410 171 c 2,6,-1
 410 223 l 1,7,-1
 633 223 l 1,8,9
 633 305 633 305 618.5 360.5 c 128,-1,10
 604 416 604 416 579 447 c 128,-1,11
 554 478 554 478 522.5 491 c 128,-1,12
 491 504 491 504 453 504 c 0,13,14
 419 504 419 504 393 494.5 c 128,-1,15
 367 485 367 485 341 464 c 1,16,17
 294 504 294 504 228 504 c 0,18,19
 139 504 139 504 85 434 c 128,-1,20
 31 364 31 364 31 247 c 0,21,22
 31 127 31 127 84.5 56.5 c 128,-1,23
 138 -14 138 -14 229 -14 c 0,24,25
 261 -14 261 -14 285.5 -5 c 128,-1,26
 310 4 310 4 337 25 c 1,27,28
 360 5 360 5 387 -4.5 c 128,-1,29
 414 -14 414 -14 450 -14 c 0,30,31
 512 -14 512 -14 557.5 16.5 c 128,-1,32
 603 47 603 47 625 105 c 1,33,-1
 506 152 l 1,0,1
183 232 m 0,34,35
 183 326 183 326 191.5 359 c 128,-1,36
 200 392 200 392 223 392 c 0,37,38
 247 392 247 392 256 361.5 c 128,-1,39
 265 331 265 331 265 251 c 0,40,41
 265 159 265 159 256.5 128.5 c 128,-1,42
 248 98 248 98 225 98 c 256,43,44
 202 98 202 98 192.5 126.5 c 128,-1,45
 183 155 183 155 183 232 c 0,34,35
409 296 m 1,46,47
 409 362 409 362 418.5 383 c 128,-1,48
 428 404 428 404 450 404 c 256,49,50
 472 404 472 404 480 382 c 128,-1,51
 488 360 488 360 488 296 c 1,52,-1
 409 296 l 1,46,47
EndSplineSet
Validated: 9
EndChar

StartChar: Ydieresis
Encoding: 376 376 119
Width: 573
GlyphClass: 1
Flags: W
LayerCount: 2
Fore
SplineSet
183 901 m 256,0,1
 157 901 157 901 138 882.5 c 128,-1,2
 119 864 119 864 119 838 c 256,3,4
 119 812 119 812 138 793 c 128,-1,5
 157 774 157 774 183 774 c 256,6,7
 209 774 209 774 227.5 793 c 128,-1,8
 246 812 246 812 246 838 c 256,9,10
 246 864 246 864 227.5 882.5 c 128,-1,11
 209 901 209 901 183 901 c 256,0,1
392 901 m 256,12,13
 366 901 366 901 347 882.5 c 128,-1,14
 328 864 328 864 328 838 c 256,15,16
 328 812 328 812 347 793 c 128,-1,17
 366 774 366 774 392 774 c 256,18,19
 418 774 418 774 436.5 793 c 128,-1,20
 455 812 455 812 455 838 c 256,21,22
 455 864 455 864 436.5 882.5 c 128,-1,23
 418 901 418 901 392 901 c 256,12,13
142 0 m 1,24,-1
 422 0 l 1,25,-1
 422 105 l 1,26,-1
 367 105 l 1,27,-1
 367 267 l 1,28,-1
 510 597 l 1,29,-1
 559 597 l 1,30,-1
 559 702 l 1,31,-1
 331 702 l 1,32,-1
 331 597 l 1,33,-1
 395 597 l 1,34,-1
 305 387 l 1,35,-1
 219 597 l 1,36,-1
 282 597 l 1,37,-1
 282 702 l 1,38,-1
 13 702 l 1,39,-1
 13 597 l 1,40,-1
 61 597 l 1,41,-1
 200 267 l 1,42,-1
 200 105 l 1,43,-1
 142 105 l 1,44,-1
 142 0 l 1,24,-1
EndSplineSet
Validated: 9
EndChar

StartChar: exclamdown
Encoding: 161 161 120
Width: 292
GlyphClass: 1
Flags: W
LayerCount: 2
Fore
SplineSet
224 490 m 1,0,-1
 68 490 l 1,1,-1
 68 334 l 1,2,-1
 224 334 l 1,3,-1
 224 490 l 1,0,-1
176 255 m 1,4,-1
 115 255 l 1,5,-1
 71 -11 l 1,6,-1
 71 -212 l 1,7,-1
 220 -212 l 1,8,-1
 220 -11 l 1,9,-1
 176 255 l 1,4,-1
EndSplineSet
Validated: 9
EndChar

StartChar: cent
Encoding: 162 162 121
Width: 438
GlyphClass: 1
Flags: W
LayerCount: 2
Fore
SplineSet
178 -98 m 1,0,-1
 249 -98 l 1,1,-1
 249 -13 l 1,2,3
 379 -1 379 -1 404 152 c 1,4,-1
 291 194 l 1,5,6
 287 138 287 138 275 114.5 c 128,-1,7
 263 91 263 91 240 91 c 0,8,9
 208 91 208 91 197 123.5 c 128,-1,10
 186 156 186 156 186 250 c 0,11,12
 186 333 186 333 196.5 364.5 c 128,-1,13
 207 396 207 396 234 396 c 0,14,15
 260 396 260 396 273.5 371.5 c 128,-1,16
 287 347 287 347 291 292 c 1,17,-1
 396 292 l 1,18,-1
 396 490 l 1,19,-1
 291 490 l 1,20,-1
 291 435 l 1,21,-1
 289 435 l 1,22,23
 278 467 278 467 249 485 c 1,24,-1
 249 590 l 1,25,-1
 178 590 l 1,26,-1
 178 496 l 1,27,28
 112 487 112 487 73 420.5 c 128,-1,29
 34 354 34 354 34 250 c 0,30,31
 34 150 34 150 70 82 c 0,32,33
 108 12 108 12 178 -9 c 1,34,-1
 178 -98 l 1,0,-1
EndSplineSet
Validated: 9
EndChar

StartChar: sterling
Encoding: 163 163 122
Width: 531
GlyphClass: 1
Flags: W
LayerCount: 2
Fore
SplineSet
503 209 m 1,0,-1
 398 209 l 1,1,-1
 398 190 l 2,2,3
 398 139 398 139 388 117.5 c 128,-1,4
 378 96 378 96 355 96 c 0,5,6
 339 96 339 96 324.5 103 c 128,-1,7
 310 110 310 110 289 127 c 1,8,9
 312 187 312 187 312 251 c 0,10,11
 312 267 312 267 310.5 286.5 c 128,-1,12
 309 306 309 306 307 318 c 1,13,-1
 392 318 l 1,14,-1
 392 423 l 1,15,-1
 289 423 l 1,16,17
 282 472 282 472 277 509.5 c 128,-1,18
 272 547 272 547 272 567 c 0,19,20
 272 622 272 622 314 622 c 0,21,22
 339 622 339 622 349 601.5 c 128,-1,23
 359 581 359 581 359 530 c 1,24,-1
 494 534 l 1,25,26
 493 629 493 629 445 671 c 128,-1,27
 397 713 397 713 314 713 c 0,28,29
 131 713 131 713 131 515 c 0,30,31
 131 470 131 470 141 423 c 1,32,-1
 60 423 l 1,33,-1
 60 318 l 1,34,-1
 163 318 l 1,35,36
 172 286 172 286 181.5 244 c 128,-1,37
 191 202 191 202 192 182 c 1,38,39
 172 198 172 198 155.5 204.5 c 128,-1,40
 139 211 139 211 119 211 c 0,41,42
 76 211 76 211 49 181 c 128,-1,43
 22 151 22 151 22 104 c 0,44,45
 22 52 22 52 53 19 c 128,-1,46
 84 -14 84 -14 131 -14 c 0,47,48
 166 -14 166 -14 193.5 3 c 128,-1,49
 221 20 221 20 246 58 c 1,50,51
 308 -14 308 -14 380 -14 c 0,52,53
 442 -14 442 -14 473 31 c 128,-1,54
 504 76 504 76 504 175 c 2,55,-1
 503 209 l 1,0,-1
185 109 m 1,56,57
 173 51 173 51 128 51 c 0,58,59
 109 51 109 51 97.5 64 c 128,-1,60
 86 77 86 77 86 98 c 0,61,62
 86 118 86 118 97 130 c 128,-1,63
 108 142 108 142 127 142 c 0,64,65
 143 142 143 142 155 135 c 128,-1,66
 167 128 167 128 185 109 c 1,56,57
EndSplineSet
Validated: 9
EndChar

StartChar: currency
Encoding: 164 164 123
Width: 667
GlyphClass: 1
Flags: W
LayerCount: 2
Fore
SplineSet
77 517 m 1,0,-1
 143 451 l 1,1,2
 124 423 124 423 115 394.5 c 128,-1,3
 106 366 106 366 106 333 c 0,4,5
 106 269 106 269 143 208 c 1,6,-1
 77 144 l 1,7,-1
 146 75 l 1,8,-1
 212 139 l 1,9,10
 240 120 240 120 268.5 111 c 128,-1,11
 297 102 297 102 331 102 c 256,12,13
 365 102 365 102 395 111 c 128,-1,14
 425 120 425 120 455 139 c 1,15,-1
 521 75 l 1,16,-1
 590 144 l 1,17,-1
 524 208 l 1,18,19
 543 237 543 237 552 266 c 128,-1,20
 561 295 561 295 561 328 c 0,21,22
 561 360 561 360 552 389.5 c 128,-1,23
 543 419 543 419 524 451 c 1,24,-1
 590 517 l 1,25,-1
 521 587 l 1,26,-1
 455 521 l 1,27,28
 426 540 426 540 396.5 548.5 c 128,-1,29
 367 557 367 557 332 557 c 256,30,31
 297 557 297 557 268.5 548.5 c 128,-1,32
 240 540 240 540 212 521 c 1,33,-1
 146 587 l 1,34,-1
 77 517 l 1,0,-1
333 460 m 256,35,36
 387 460 387 460 425.5 422 c 128,-1,37
 464 384 464 384 464 330 c 256,38,39
 464 276 464 276 425.5 237.5 c 128,-1,40
 387 199 387 199 333 199 c 256,41,42
 279 199 279 199 241 237.5 c 128,-1,43
 203 276 203 276 203 330 c 256,44,45
 203 384 203 384 241 422 c 128,-1,46
 279 460 279 460 333 460 c 256,35,36
EndSplineSet
Validated: 9
EndChar

StartChar: yen
Encoding: 165 165 124
Width: 573
GlyphClass: 1
Flags: W
LayerCount: 2
Fore
SplineSet
367 179 m 1,0,-1
 558 179 l 1,1,-1
 558 250 l 1,2,-1
 367 250 l 1,3,-1
 367 267 l 1,4,-1
 383 304 l 1,5,-1
 558 304 l 1,6,-1
 558 375 l 1,7,-1
 414 375 l 1,8,-1
 510 597 l 1,9,-1
 559 597 l 1,10,-1
 559 702 l 1,11,-1
 331 702 l 1,12,-1
 331 597 l 1,13,-1
 395 597 l 1,14,-1
 305 387 l 1,15,-1
 219 597 l 1,16,-1
 282 597 l 1,17,-1
 282 702 l 1,18,-1
 13 702 l 1,19,-1
 13 597 l 1,20,-1
 61 597 l 1,21,-1
 155 375 l 1,22,-1
 14 375 l 1,23,-1
 14 304 l 1,24,-1
 185 304 l 1,25,-1
 200 267 l 1,26,-1
 200 250 l 1,27,-1
 14 250 l 1,28,-1
 14 179 l 1,29,-1
 200 179 l 1,30,-1
 200 105 l 1,31,-1
 142 105 l 1,32,-1
 142 0 l 1,33,-1
 422 0 l 1,34,-1
 422 105 l 1,35,-1
 367 105 l 1,36,-1
 367 179 l 1,0,-1
EndSplineSet
Validated: 9
EndChar

StartChar: brokenbar
Encoding: 166 166 125
Width: 588
GlyphClass: 1
Flags: W
LayerCount: 2
Fore
SplineSet
239 227 m 1,0,-1
 239 -129 l 1,1,-1
 345 -129 l 1,2,-1
 345 227 l 1,3,-1
 239 227 l 1,0,-1
239 702 m 1,4,-1
 239 345 l 1,5,-1
 345 345 l 1,6,-1
 345 702 l 1,7,-1
 239 702 l 1,4,-1
EndSplineSet
Validated: 9
EndChar

StartChar: section
Encoding: 167 167 126
Width: 427
GlyphClass: 1
Flags: W
LayerCount: 2
Fore
SplineSet
54 -72 m 1,0,1
 54 -145 54 -145 95.5 -184.5 c 128,-1,2
 137 -224 137 -224 215 -224 c 0,3,4
 295 -224 295 -224 341 -184.5 c 128,-1,5
 387 -145 387 -145 387 -75 c 0,6,7
 387 -36 387 -36 370 -2 c 128,-1,8
 353 32 353 32 313 70 c 1,9,10
 396 139 396 139 396 228 c 0,11,12
 396 266 396 266 383.5 298 c 128,-1,13
 371 330 371 330 350 357 c 128,-1,14
 329 384 329 384 306 404.5 c 128,-1,15
 283 425 283 425 249 452 c 0,16,17
 200 492 200 492 176.5 518 c 128,-1,18
 153 544 153 544 153 574 c 0,19,20
 153 595 153 595 168 608.5 c 128,-1,21
 183 622 183 622 206 622 c 0,22,23
 232 622 232 622 247 605 c 0,24,25
 261 590 261 590 261 557 c 1,26,-1
 374 557 l 1,27,28
 373 713 373 713 210 713 c 0,29,30
 131 713 131 713 85.5 672.5 c 128,-1,31
 40 632 40 632 40 561 c 0,32,33
 40 518 40 518 56.5 486 c 128,-1,34
 73 454 73 454 114 416 c 1,35,36
 31 346 31 346 31 256 c 0,37,38
 31 220 31 220 44.5 187.5 c 128,-1,39
 58 155 58 155 80.5 126.5 c 128,-1,40
 103 98 103 98 126 77 c 128,-1,41
 149 56 149 56 186 25 c 0,42,43
 232 -14 232 -14 253 -37 c 128,-1,44
 274 -60 274 -60 274 -82 c 256,45,46
 274 -104 274 -104 259.5 -118.5 c 128,-1,47
 245 -133 245 -133 222 -133 c 0,48,49
 195 -133 195 -133 181 -117 c 0,50,51
 168 -101 168 -101 168 -72 c 1,52,-1
 54 -72 l 1,0,1
243 128 m 1,53,54
 186 186 186 186 164.5 216.5 c 128,-1,55
 143 247 143 247 143 276 c 0,56,57
 143 297 143 297 152 315.5 c 128,-1,58
 161 334 161 334 182 356 c 1,59,60
 236 312 236 312 260 277 c 128,-1,61
 284 242 284 242 284 209 c 0,62,63
 284 185 284 185 273.5 166 c 128,-1,64
 263 147 263 147 243 128 c 1,53,54
EndSplineSet
Validated: 9
EndChar

StartChar: dieresis
Encoding: 168 168 127
Width: 333
GlyphClass: 1
Flags: W
LayerCount: 2
Fore
SplineSet
63 693 m 256,0,1
 37 693 37 693 18 674.5 c 128,-1,2
 -1 656 -1 656 -1 630 c 256,3,4
 -1 604 -1 604 18 585 c 128,-1,5
 37 566 37 566 63 566 c 256,6,7
 89 566 89 566 107.5 585 c 128,-1,8
 126 604 126 604 126 630 c 256,9,10
 126 656 126 656 107.5 674.5 c 128,-1,11
 89 693 89 693 63 693 c 256,0,1
272 693 m 256,12,13
 246 693 246 693 227 674.5 c 128,-1,14
 208 656 208 656 208 630 c 256,15,16
 208 604 208 604 227 585 c 128,-1,17
 246 566 246 566 272 566 c 256,18,19
 298 566 298 566 316.5 585 c 128,-1,20
 335 604 335 604 335 630 c 256,21,22
 335 656 335 656 316.5 674.5 c 128,-1,23
 298 693 298 693 272 693 c 256,12,13
EndSplineSet
Validated: 9
EndChar

StartChar: copyright
Encoding: 169 169 128
Width: 738
GlyphClass: 1
Flags: W
LayerCount: 2
Fore
SplineSet
459 294 m 1,0,1
 436 211 436 211 365 211 c 0,2,3
 321 211 321 211 296 248 c 128,-1,4
 271 285 271 285 271 349 c 0,5,6
 271 414 271 414 297.5 450.5 c 128,-1,7
 324 487 324 487 372 487 c 0,8,9
 433 487 433 487 459 419 c 1,10,-1
 538 438 l 1,11,12
 495 557 495 557 375 557 c 0,13,14
 288 557 288 557 237 500.5 c 128,-1,15
 186 444 186 444 186 347 c 0,16,17
 186 253 186 253 237.5 197 c 128,-1,18
 289 141 289 141 374 141 c 0,19,20
 435 141 435 141 477 173.5 c 128,-1,21
 519 206 519 206 538 267 c 1,22,-1
 459 294 l 1,0,1
369 723 m 256,23,24
 293 723 293 723 224.5 694 c 128,-1,25
 156 665 156 665 104.5 613.5 c 128,-1,26
 53 562 53 562 24 493.5 c 128,-1,27
 -5 425 -5 425 -5 349 c 256,28,29
 -5 273 -5 273 24 204.5 c 128,-1,30
 53 136 53 136 104.5 84.5 c 128,-1,31
 156 33 156 33 224.5 4 c 128,-1,32
 293 -25 293 -25 369 -25 c 256,33,34
 445 -25 445 -25 513.5 4 c 128,-1,35
 582 33 582 33 633.5 84.5 c 128,-1,36
 685 136 685 136 714 204.5 c 128,-1,37
 743 273 743 273 743 349 c 256,38,39
 743 425 743 425 714 493.5 c 128,-1,40
 685 562 685 562 633.5 613.5 c 128,-1,41
 582 665 582 665 513.5 694 c 128,-1,42
 445 723 445 723 369 723 c 256,23,24
369 49 m 256,43,44
 308 49 308 49 253 72 c 128,-1,45
 198 95 198 95 156.5 136.5 c 128,-1,46
 115 178 115 178 92 233 c 128,-1,47
 69 288 69 288 69 349 c 256,48,49
 69 410 69 410 92 465 c 128,-1,50
 115 520 115 520 156.5 561.5 c 128,-1,51
 198 603 198 603 253 626 c 128,-1,52
 308 649 308 649 369 649 c 256,53,54
 430 649 430 649 485 626 c 128,-1,55
 540 603 540 603 581.5 561.5 c 128,-1,56
 623 520 623 520 646 465 c 128,-1,57
 669 410 669 410 669 349 c 256,58,59
 669 288 669 288 646 233 c 128,-1,60
 623 178 623 178 581.5 136.5 c 128,-1,61
 540 95 540 95 485 72 c 128,-1,62
 430 49 430 49 369 49 c 256,43,44
EndSplineSet
Validated: 9
EndChar

StartChar: ordfeminine
Encoding: 170 170 129
Width: 323
GlyphClass: 1
Flags: W
LayerCount: 2
Fore
SplineSet
305 411 m 1,0,-1
 305 473 l 1,1,-1
 274 473 l 1,2,-1
 274 628 l 2,3,4
 274 670 274 670 243.5 691.5 c 128,-1,5
 213 713 213 713 162 713 c 0,6,7
 71 713 71 713 34 649 c 1,8,-1
 119 633 l 1,9,10
 127 656 127 656 150 656 c 0,11,12
 166 656 166 656 173 646.5 c 128,-1,13
 180 637 180 637 180 614 c 2,14,-1
 180 582 l 1,15,16
 164 592 164 592 151.5 596 c 128,-1,17
 139 600 139 600 123 600 c 0,18,19
 81 600 81 600 54 573 c 128,-1,20
 27 546 27 546 27 503 c 0,21,22
 27 462 27 462 52 435 c 128,-1,23
 77 408 77 408 114 408 c 0,24,25
 150 408 150 408 180 435 c 1,26,-1
 180 411 l 1,27,-1
 305 411 l 1,0,-1
180 487 m 1,28,29
 167 470 167 470 151 470 c 0,30,31
 123 470 123 470 123 507 c 256,32,33
 123 544 123 544 153 544 c 0,34,35
 167 544 167 544 180 531 c 1,36,-1
 180 487 l 1,28,29
EndSplineSet
Validated: 9
EndChar

StartChar: guillemotleft
Encoding: 171 171 130
Width: 531
GlyphClass: 1
Flags: W
LayerCount: 2
Fore
SplineSet
153 0 m 1,0,-1
 280 0 l 1,1,-1
 147 245 l 1,2,-1
 280 490 l 1,3,-1
 153 490 l 1,4,-1
 19 245 l 1,5,-1
 153 0 l 1,0,-1
389 0 m 1,6,-1
 516 0 l 1,7,-1
 383 245 l 1,8,-1
 516 490 l 1,9,-1
 389 490 l 1,10,-1
 255 245 l 1,11,-1
 389 0 l 1,6,-1
EndSplineSet
Validated: 9
EndChar

StartChar: logicalnot
Encoding: 172 172 131
Width: 667
GlyphClass: 1
Flags: W
LayerCount: 2
Fore
SplineSet
62 505 m 1,0,-1
 62 400 l 1,1,-1
 500 400 l 1,2,-1
 500 162 l 1,3,-1
 605 162 l 1,4,-1
 605 505 l 1,5,-1
 62 505 l 1,0,-1
EndSplineSet
Validated: 9
EndChar

StartChar: minus
Encoding: 173 173 132
AltUni2: 002212.ffffffff.0 002212.ffffffff.0
Width: 667
GlyphClass: 1
Flags: W
LayerCount: 2
Fore
SplineSet
62 383 m 1,0,-1
 62 278 l 1,1,-1
 605 278 l 1,2,-1
 605 383 l 1,3,-1
 62 383 l 1,0,-1
EndSplineSet
Validated: 9
EndChar

StartChar: registered
Encoding: 174 174 133
Width: 738
GlyphClass: 1
Flags: W
LayerCount: 2
Fore
SplineSet
200 149 m 1,0,-1
 281 149 l 1,1,-1
 281 312 l 1,2,-1
 302 312 l 2,3,4
 335 312 335 312 359.5 293 c 128,-1,5
 384 274 384 274 410 221 c 2,6,-1
 446 149 l 1,7,-1
 546 149 l 1,8,-1
 499 229 l 2,9,10
 470 278 470 278 452.5 297.5 c 128,-1,11
 435 317 435 317 414 322 c 1,12,-1
 414 324 l 1,13,14
 464 330 464 330 493 360 c 128,-1,15
 522 390 522 390 522 435 c 0,16,17
 522 490 522 490 486 518 c 128,-1,18
 450 546 450 546 392 546 c 2,19,-1
 281 546 l 1,20,-1
 200 546 l 1,21,-1
 200 149 l 1,0,-1
281 375 m 1,22,-1
 281 483 l 1,23,-1
 354 483 l 2,24,25
 437 483 437 483 437 430 c 0,26,27
 437 404 437 404 416.5 389.5 c 128,-1,28
 396 375 396 375 364 375 c 2,29,-1
 281 375 l 1,22,-1
369 723 m 256,30,31
 293 723 293 723 224.5 694 c 128,-1,32
 156 665 156 665 104.5 613.5 c 128,-1,33
 53 562 53 562 24 493.5 c 128,-1,34
 -5 425 -5 425 -5 349 c 256,35,36
 -5 273 -5 273 24 204.5 c 128,-1,37
 53 136 53 136 104.5 84.5 c 128,-1,38
 156 33 156 33 224.5 4 c 128,-1,39
 293 -25 293 -25 369 -25 c 256,40,41
 445 -25 445 -25 513.5 4 c 128,-1,42
 582 33 582 33 633.5 84.5 c 128,-1,43
 685 136 685 136 714 204.5 c 128,-1,44
 743 273 743 273 743 349 c 256,45,46
 743 425 743 425 714 493.5 c 128,-1,47
 685 562 685 562 633.5 613.5 c 128,-1,48
 582 665 582 665 513.5 694 c 128,-1,49
 445 723 445 723 369 723 c 256,30,31
369 49 m 256,50,51
 308 49 308 49 253 72 c 128,-1,52
 198 95 198 95 156.5 136.5 c 128,-1,53
 115 178 115 178 92 233 c 128,-1,54
 69 288 69 288 69 349 c 256,55,56
 69 410 69 410 92 465 c 128,-1,57
 115 520 115 520 156.5 561.5 c 128,-1,58
 198 603 198 603 253 626 c 128,-1,59
 308 649 308 649 369 649 c 256,60,61
 430 649 430 649 485 626 c 128,-1,62
 540 603 540 603 581.5 561.5 c 128,-1,63
 623 520 623 520 646 465 c 128,-1,64
 669 410 669 410 669 349 c 256,65,66
 669 288 669 288 646 233 c 128,-1,67
 623 178 623 178 581.5 136.5 c 128,-1,68
 540 95 540 95 485 72 c 128,-1,69
 430 49 430 49 369 49 c 256,50,51
EndSplineSet
Validated: 9
EndChar

StartChar: macron
Encoding: 175 175 134
Width: 333
GlyphClass: 1
Flags: W
LayerCount: 2
Fore
SplineSet
-24 669 m 1,0,-1
 -24 579 l 1,1,-1
 358 579 l 1,2,-1
 358 669 l 1,3,-1
 -24 669 l 1,0,-1
EndSplineSet
Validated: 9
EndChar

StartChar: degree
Encoding: 176 176 135
Width: 400
GlyphClass: 1
Flags: W
LayerCount: 2
Fore
SplineSet
200 390 m 256,0,1
 232 390 232 390 261.5 402.5 c 128,-1,2
 291 415 291 415 313 437 c 128,-1,3
 335 459 335 459 347.5 488.5 c 128,-1,4
 360 518 360 518 360 550 c 256,5,6
 360 582 360 582 347.5 611.5 c 128,-1,7
 335 641 335 641 313 663 c 128,-1,8
 291 685 291 685 261.5 697.5 c 128,-1,9
 232 710 232 710 200 710 c 256,10,11
 168 710 168 710 138.5 697.5 c 128,-1,12
 109 685 109 685 87 663 c 128,-1,13
 65 641 65 641 52.5 611.5 c 128,-1,14
 40 582 40 582 40 550 c 256,15,16
 40 518 40 518 52.5 488.5 c 128,-1,17
 65 459 65 459 87 437 c 128,-1,18
 109 415 109 415 138.5 402.5 c 128,-1,19
 168 390 168 390 200 390 c 256,0,1
200 625 m 256,20,21
 231 625 231 625 253 603 c 128,-1,22
 275 581 275 581 275 550 c 256,23,24
 275 519 275 519 253 497 c 128,-1,25
 231 475 231 475 200 475 c 256,26,27
 169 475 169 475 147 497 c 128,-1,28
 125 519 125 519 125 550 c 256,29,30
 125 581 125 581 147 603 c 128,-1,31
 169 625 169 625 200 625 c 256,20,21
EndSplineSet
Validated: 9
EndChar

StartChar: plusminus
Encoding: 177 177 136
Width: 668
GlyphClass: 1
Flags: W
LayerCount: 2
Fore
SplineSet
62 486 m 1,0,-1
 62 381 l 1,1,-1
 281 381 l 1,2,-1
 281 177 l 1,3,-1
 386 177 l 1,4,-1
 386 381 l 1,5,-1
 605 381 l 1,6,-1
 605 486 l 1,7,-1
 386 486 l 1,8,-1
 386 690 l 1,9,-1
 281 690 l 1,10,-1
 281 486 l 1,11,-1
 62 486 l 1,0,-1
62 105 m 1,12,-1
 62 0 l 1,13,-1
 605 0 l 1,14,-1
 605 105 l 1,15,-1
 62 105 l 1,12,-1
EndSplineSet
Validated: 9
EndChar

StartChar: twosuperior
Encoding: 178 178 137
Width: 250
GlyphClass: 1
Flags: W
LayerCount: 2
Fore
SplineSet
233 330 m 1,0,-1
 233 452 l 1,1,-1
 158 452 l 1,2,-1
 158 397 l 1,3,-1
 88 397 l 1,4,5
 92 417 92 417 106.5 433.5 c 128,-1,6
 121 450 121 450 149 474 c 0,7,8
 189 507 189 507 210 535 c 128,-1,9
 231 563 231 563 231 605 c 0,10,11
 231 652 231 652 199.5 681 c 128,-1,12
 168 710 168 710 117 710 c 0,13,14
 65 710 65 710 35.5 680.5 c 128,-1,15
 6 651 6 651 6 598 c 0,16,17
 6 585 6 585 7 576 c 1,18,-1
 92 572 l 1,19,20
 89 595 89 595 89 605 c 0,21,22
 89 639 89 639 110 639 c 256,23,24
 131 639 131 639 131 609 c 0,25,26
 131 581 131 581 119.5 561 c 128,-1,27
 108 541 108 541 83 514 c 0,28,29
 46 475 46 475 26.5 436.5 c 128,-1,30
 7 398 7 398 7 330 c 1,31,-1
 233 330 l 1,0,-1
EndSplineSet
Validated: 9
EndChar

StartChar: threesuperior
Encoding: 179 179 138
Width: 250
GlyphClass: 1
Flags: W
LayerCount: 2
Fore
SplineSet
8 450 m 1,0,1
 8 381 8 381 36.5 351.5 c 128,-1,2
 65 322 65 322 122 322 c 0,3,4
 174 322 174 322 205 353 c 128,-1,5
 236 384 236 384 236 437 c 0,6,7
 236 468 236 468 226 489.5 c 128,-1,8
 216 511 216 511 194 530 c 1,9,10
 215 547 215 547 223.5 564 c 128,-1,11
 232 581 232 581 232 607 c 0,12,13
 232 654 232 654 202 682 c 128,-1,14
 172 710 172 710 121 710 c 0,15,16
 18 710 18 710 12 594 c 1,17,-1
 94 586 l 1,18,19
 94 620 94 620 98.5 631 c 128,-1,20
 103 642 103 642 114 642 c 0,21,22
 135 642 135 642 135 603 c 0,23,24
 135 579 135 579 128 572 c 128,-1,25
 121 565 121 565 94 565 c 1,26,-1
 94 494 l 1,27,28
 94 494 94 494 99 494 c 0,29,30
 102 495 102 495 104 495 c 0,31,32
 123 495 123 495 129.5 484.5 c 128,-1,33
 136 474 136 474 136 447 c 0,34,35
 136 414 136 414 132.5 402 c 128,-1,36
 129 390 129 390 115 390 c 0,37,38
 103 390 103 390 98.5 402 c 128,-1,39
 94 414 94 414 94 457 c 1,40,-1
 8 450 l 1,0,1
EndSplineSet
Validated: 9
EndChar

StartChar: acute
Encoding: 180 180 139
Width: 333
GlyphClass: 1
Flags: W
LayerCount: 2
Fore
SplineSet
73 534 m 1,0,-1
 159 534 l 1,1,-1
 357 719 l 1,2,-1
 168 719 l 1,3,-1
 73 534 l 1,0,-1
EndSplineSet
Validated: 9
EndChar

StartChar: mu
Encoding: 181 181 140
Width: 611
GlyphClass: 1
Flags: W
LayerCount: 2
Fore
SplineSet
115 -224 m 1,0,-1
 259 -224 l 1,1,-1
 259 4 l 1,2,3
 269 -6 269 -6 287 -6 c 0,4,5
 307 -6 307 -6 324.5 7 c 128,-1,6
 342 20 342 20 351 40 c 1,7,-1
 353 40 l 1,8,-1
 353 0 l 1,9,-1
 497 0 l 1,10,-1
 497 490 l 1,11,-1
 351 490 l 1,12,-1
 351 138 l 1,13,14
 338 124 338 124 325.5 116.5 c 128,-1,15
 313 109 313 109 298 109 c 0,16,17
 261 109 261 109 261 168 c 2,18,-1
 261 490 l 1,19,-1
 115 490 l 1,20,-1
 115 -224 l 1,0,-1
EndSplineSet
Validated: 9
EndChar

StartChar: paragraph
Encoding: 182 182 141
Width: 556
GlyphClass: 1
Flags: W
LayerCount: 2
Fore
SplineSet
312 -224 m 1,0,-1
 312 574 l 1,1,-1
 381 574 l 1,2,-1
 381 -224 l 1,3,-1
 499 -224 l 1,4,-1
 499 574 l 1,5,-1
 554 574 l 1,6,-1
 554 702 l 1,7,-1
 213 702 l 2,8,9
 160 702 160 702 120 685.5 c 128,-1,10
 80 669 80 669 54 641 c 128,-1,11
 28 613 28 613 15 577 c 128,-1,12
 2 541 2 541 2 501 c 2,13,-1
 2 499 l 1,14,-1
 2 498 l 2,15,16
 2 411 2 411 52.5 359 c 128,-1,17
 103 307 103 307 194 300 c 1,18,-1
 194 -224 l 1,19,-1
 312 -224 l 1,0,-1
EndSplineSet
Validated: 9
EndChar

StartChar: periodcentered
Encoding: 183 183 142
AltUni2: 002219.ffffffff.0 002219.ffffffff.0
Width: 292
GlyphClass: 1
Flags: W
LayerCount: 2
Fore
SplineSet
68 283 m 1,0,-1
 224 283 l 1,1,-1
 224 439 l 1,2,-1
 68 439 l 1,3,-1
 68 283 l 1,0,-1
EndSplineSet
Validated: 9
EndChar

StartChar: cedilla
Encoding: 184 184 143
Width: 333
GlyphClass: 1
Flags: W
LayerCount: 2
Fore
SplineSet
78 -166 m 1,0,1
 97 -170 97 -170 125 -170 c 0,2,3
 177 -170 177 -170 207 -146.5 c 128,-1,4
 237 -123 237 -123 237 -82 c 0,5,6
 237 -6 237 -6 136 0 c 1,7,8
 127 -23 127 -23 114 -41 c 1,9,10
 159 -48 159 -48 159 -74 c 0,11,12
 159 -93 159 -93 141.5 -101.5 c 128,-1,13
 124 -110 124 -110 83 -110 c 1,14,-1
 78 -166 l 1,0,1
EndSplineSet
Validated: 9
EndChar

StartChar: onesuperior
Encoding: 185 185 144
Width: 250
GlyphClass: 1
Flags: W
LayerCount: 2
Fore
SplineSet
44 330 m 1,0,-1
 207 330 l 1,1,-1
 207 402 l 1,2,-1
 175 402 l 1,3,-1
 175 710 l 1,4,-1
 134 710 l 1,5,6
 113 691 113 691 93 681 c 128,-1,7
 73 671 73 671 44 666 c 1,8,-1
 44 596 l 1,9,10
 54 598 54 598 61 599 c 128,-1,11
 68 600 68 600 77 603 c 1,12,-1
 77 402 l 1,13,-1
 44 402 l 1,14,-1
 44 330 l 1,0,-1
EndSplineSet
Validated: 9
EndChar

StartChar: ordmasculine
Encoding: 186 186 145
Width: 313
GlyphClass: 1
Flags: W
LayerCount: 2
Fore
SplineSet
22 558 m 256,0,1
 22 490 22 490 59.5 446.5 c 128,-1,2
 97 403 97 403 156 403 c 256,3,4
 215 403 215 403 252.5 446.5 c 128,-1,5
 290 490 290 490 290 558 c 256,6,7
 290 626 290 626 252.5 669.5 c 128,-1,8
 215 713 215 713 156 713 c 256,9,10
 97 713 97 713 59.5 669.5 c 128,-1,11
 22 626 22 626 22 558 c 256,0,1
156 645 m 0,12,13
 174 645 174 645 183 626.5 c 128,-1,14
 192 608 192 608 192 558 c 0,15,16
 192 511 192 511 184 491 c 128,-1,17
 176 471 176 471 156 471 c 0,18,19
 138 471 138 471 129 491 c 128,-1,20
 120 511 120 511 120 558 c 0,21,22
 120 606 120 606 128.5 625.5 c 128,-1,23
 137 645 137 645 156 645 c 0,12,13
EndSplineSet
Validated: 9
EndChar

StartChar: guillemotright
Encoding: 187 187 146
Width: 531
GlyphClass: 1
Flags: W
LayerCount: 2
Fore
SplineSet
377 0 m 1,0,-1
 512 245 l 1,1,-1
 377 490 l 1,2,-1
 251 490 l 1,3,-1
 383 245 l 1,4,-1
 251 0 l 1,5,-1
 377 0 l 1,0,-1
141 0 m 1,6,-1
 276 245 l 1,7,-1
 141 490 l 1,8,-1
 15 490 l 1,9,-1
 147 245 l 1,10,-1
 15 0 l 1,11,-1
 141 0 l 1,6,-1
EndSplineSet
Validated: 9
EndChar

StartChar: onequarter
Encoding: 188 188 147
Width: 604
GlyphClass: 1
Flags: W
LayerCount: 2
Fore
SplineSet
446 0 m 1,0,-1
 588 0 l 1,1,-1
 588 72 l 1,2,-1
 564 72 l 1,3,-1
 564 102 l 1,4,-1
 588 102 l 1,5,-1
 588 164 l 1,6,-1
 564 164 l 1,7,-1
 564 380 l 1,8,-1
 483 380 l 1,9,-1
 358 152 l 1,10,11
 365 136 365 136 368 126.5 c 128,-1,12
 371 117 371 117 373 102 c 1,13,-1
 475 102 l 1,14,-1
 475 72 l 1,15,-1
 446 72 l 1,16,-1
 446 0 l 1,0,-1
435 164 m 1,17,18
 451 193 451 193 458 210.5 c 128,-1,19
 465 228 465 228 477 261 c 1,20,-1
 479 259 l 1,21,22
 477 235 477 235 476.5 223.5 c 128,-1,23
 476 212 476 212 475 179 c 0,24,25
 475 171 475 171 475 164 c 1,26,-1
 435 164 l 1,17,18
44 330 m 1,27,-1
 207 330 l 1,28,-1
 207 402 l 1,29,-1
 175 402 l 1,30,-1
 175 710 l 1,31,-1
 134 710 l 1,32,33
 113 691 113 691 93 681 c 128,-1,34
 73 671 73 671 44 666 c 1,35,-1
 44 596 l 1,36,37
 54 598 54 598 61 599 c 128,-1,38
 68 600 68 600 77 603 c 1,39,-1
 77 402 l 1,40,-1
 44 402 l 1,41,-1
 44 330 l 1,27,-1
138 -8 m 1,42,-1
 213 -8 l 1,43,-1
 489 710 l 1,44,-1
 415 710 l 1,45,-1
 138 -8 l 1,42,-1
EndSplineSet
Validated: 9
EndChar

StartChar: onehalf
Encoding: 189 189 148
Width: 604
GlyphClass: 1
Flags: W
LayerCount: 2
Fore
SplineSet
126 -8 m 1,0,-1
 201 -8 l 1,1,-1
 477 710 l 1,2,-1
 403 710 l 1,3,-1
 126 -8 l 1,0,-1
587 0 m 1,4,-1
 587 122 l 1,5,-1
 512 122 l 1,6,-1
 512 67 l 1,7,-1
 442 67 l 1,8,9
 446 87 446 87 460.5 103.5 c 128,-1,10
 475 120 475 120 503 144 c 0,11,12
 543 177 543 177 564 205 c 128,-1,13
 585 233 585 233 585 275 c 0,14,15
 585 322 585 322 553.5 351 c 128,-1,16
 522 380 522 380 471 380 c 0,17,18
 419 380 419 380 389.5 350.5 c 128,-1,19
 360 321 360 321 360 268 c 0,20,21
 360 255 360 255 361 246 c 1,22,-1
 446 242 l 1,23,24
 443 265 443 265 443 275 c 0,25,26
 443 309 443 309 464 309 c 256,27,28
 485 309 485 309 485 279 c 0,29,30
 485 251 485 251 473.5 231 c 128,-1,31
 462 211 462 211 437 184 c 0,32,33
 400 145 400 145 380.5 106.5 c 128,-1,34
 361 68 361 68 361 0 c 1,35,-1
 587 0 l 1,4,-1
44 330 m 1,36,-1
 207 330 l 1,37,-1
 207 402 l 1,38,-1
 175 402 l 1,39,-1
 175 710 l 1,40,-1
 134 710 l 1,41,42
 113 691 113 691 93 681 c 128,-1,43
 73 671 73 671 44 666 c 1,44,-1
 44 596 l 1,45,46
 54 598 54 598 61 599 c 128,-1,47
 68 600 68 600 77 603 c 1,48,-1
 77 402 l 1,49,-1
 44 402 l 1,50,-1
 44 330 l 1,36,-1
EndSplineSet
Validated: 9
EndChar

StartChar: threequarters
Encoding: 190 190 149
Width: 604
GlyphClass: 1
Flags: W
LayerCount: 2
Fore
SplineSet
138 -8 m 1,0,-1
 213 -8 l 1,1,-1
 489 710 l 1,2,-1
 415 710 l 1,3,-1
 138 -8 l 1,0,-1
8 450 m 1,4,5
 8 381 8 381 36.5 351.5 c 128,-1,6
 65 322 65 322 122 322 c 0,7,8
 174 322 174 322 205 353 c 128,-1,9
 236 384 236 384 236 437 c 0,10,11
 236 468 236 468 226 489.5 c 128,-1,12
 216 511 216 511 194 530 c 1,13,14
 215 547 215 547 223.5 564 c 128,-1,15
 232 581 232 581 232 607 c 0,16,17
 232 654 232 654 202 682 c 128,-1,18
 172 710 172 710 121 710 c 0,19,20
 18 710 18 710 12 594 c 1,21,-1
 94 586 l 1,22,23
 94 620 94 620 98.5 631 c 128,-1,24
 103 642 103 642 114 642 c 0,25,26
 135 642 135 642 135 603 c 0,27,28
 135 579 135 579 128 572 c 128,-1,29
 121 565 121 565 94 565 c 1,30,-1
 94 494 l 1,31,32
 94 494 94 494 99 494 c 0,33,34
 102 495 102 495 104 495 c 0,35,36
 123 495 123 495 129.5 484.5 c 128,-1,37
 136 474 136 474 136 447 c 0,38,39
 136 414 136 414 132.5 402 c 128,-1,40
 129 390 129 390 115 390 c 0,41,42
 103 390 103 390 98.5 402 c 128,-1,43
 94 414 94 414 94 457 c 1,44,-1
 8 450 l 1,4,5
446 0 m 1,45,-1
 588 0 l 1,46,-1
 588 72 l 1,47,-1
 564 72 l 1,48,-1
 564 102 l 1,49,-1
 588 102 l 1,50,-1
 588 164 l 1,51,-1
 564 164 l 1,52,-1
 564 380 l 1,53,-1
 483 380 l 1,54,-1
 358 152 l 1,55,56
 365 136 365 136 368 126.5 c 128,-1,57
 371 117 371 117 373 102 c 1,58,-1
 475 102 l 1,59,-1
 475 72 l 1,60,-1
 446 72 l 1,61,-1
 446 0 l 1,45,-1
435 164 m 1,62,63
 451 193 451 193 458 210.5 c 128,-1,64
 465 228 465 228 477 261 c 1,65,-1
 479 259 l 1,66,67
 477 235 477 235 476.5 223.5 c 128,-1,68
 476 212 476 212 475 179 c 0,69,70
 475 171 475 171 475 164 c 1,71,-1
 435 164 l 1,62,63
EndSplineSet
Validated: 9
EndChar

StartChar: questiondown
Encoding: 191 191 150
Width: 406
GlyphClass: 1
Flags: W
LayerCount: 2
Fore
SplineSet
245 254 m 1,0,-1
 163 254 l 1,1,-1
 158 178 l 1,2,3
 92 178 92 178 55.5 122 c 128,-1,4
 19 66 19 66 19 -12 c 0,5,6
 19 -107 19 -107 71 -165 c 128,-1,7
 123 -223 123 -223 208 -223 c 0,8,9
 289 -223 289 -223 337.5 -167 c 128,-1,10
 386 -111 386 -111 386 -6 c 1,11,-1
 251 -6 l 1,12,-1
 251 -54 l 2,13,14
 251 -125 251 -125 211 -125 c 0,15,16
 186 -125 186 -125 175.5 -99 c 128,-1,17
 165 -73 165 -73 165 -8 c 0,18,19
 165 47 165 47 179.5 71 c 128,-1,20
 194 95 194 95 226 95 c 0,21,22
 234 95 234 95 241 94 c 128,-1,23
 248 93 248 93 258 90 c 1,24,-1
 245 254 l 1,0,-1
280 490 m 1,25,-1
 124 490 l 1,26,-1
 124 334 l 1,27,-1
 280 334 l 1,28,-1
 280 490 l 1,25,-1
EndSplineSet
Validated: 9
EndChar

StartChar: Agrave
Encoding: 192 192 151
Width: 552
GlyphClass: 1
Flags: W
LayerCount: 2
Fore
SplineSet
384 742 m 1,0,-1
 289 927 l 1,1,-1
 100 927 l 1,2,-1
 298 742 l 1,3,-1
 384 742 l 1,0,-1
5 0 m 1,4,-1
 246 0 l 1,5,-1
 246 105 l 1,6,-1
 203 105 l 1,7,-1
 219 236 l 1,8,-1
 334 236 l 1,9,-1
 351 105 l 1,10,-1
 307 105 l 1,11,-1
 307 0 l 1,12,-1
 547 0 l 1,13,-1
 547 105 l 1,14,-1
 503 105 l 1,15,-1
 423 597 l 1,16,-1
 470 597 l 1,17,-1
 470 702 l 1,18,-1
 82 702 l 1,19,-1
 82 597 l 1,20,-1
 127 597 l 1,21,-1
 52 105 l 1,22,-1
 5 105 l 1,23,-1
 5 0 l 1,4,-1
231 323 m 1,24,-1
 266 615 l 1,25,-1
 285 615 l 1,26,-1
 322 323 l 1,27,-1
 231 323 l 1,24,-1
EndSplineSet
Validated: 9
EndChar

StartChar: Aacute
Encoding: 193 193 152
Width: 552
GlyphClass: 1
Flags: W
LayerCount: 2
Fore
SplineSet
183 742 m 1,0,-1
 269 742 l 1,1,-1
 467 927 l 1,2,-1
 278 927 l 1,3,-1
 183 742 l 1,0,-1
5 0 m 1,4,-1
 246 0 l 1,5,-1
 246 105 l 1,6,-1
 203 105 l 1,7,-1
 219 236 l 1,8,-1
 334 236 l 1,9,-1
 351 105 l 1,10,-1
 307 105 l 1,11,-1
 307 0 l 1,12,-1
 547 0 l 1,13,-1
 547 105 l 1,14,-1
 503 105 l 1,15,-1
 423 597 l 1,16,-1
 470 597 l 1,17,-1
 470 702 l 1,18,-1
 82 702 l 1,19,-1
 82 597 l 1,20,-1
 127 597 l 1,21,-1
 52 105 l 1,22,-1
 5 105 l 1,23,-1
 5 0 l 1,4,-1
231 323 m 1,24,-1
 266 615 l 1,25,-1
 285 615 l 1,26,-1
 322 323 l 1,27,-1
 231 323 l 1,24,-1
EndSplineSet
Validated: 9
EndChar

StartChar: Acircumflex
Encoding: 194 194 153
Width: 552
GlyphClass: 1
Flags: W
LayerCount: 2
Fore
SplineSet
115 738 m 1,0,-1
 208 738 l 1,1,-1
 277 834 l 1,2,-1
 345 738 l 1,3,-1
 438 738 l 1,4,-1
 348 927 l 1,5,-1
 205 927 l 1,6,-1
 115 738 l 1,0,-1
5 0 m 1,7,-1
 246 0 l 1,8,-1
 246 105 l 1,9,-1
 203 105 l 1,10,-1
 219 236 l 1,11,-1
 334 236 l 1,12,-1
 351 105 l 1,13,-1
 307 105 l 1,14,-1
 307 0 l 1,15,-1
 547 0 l 1,16,-1
 547 105 l 1,17,-1
 503 105 l 1,18,-1
 423 597 l 1,19,-1
 470 597 l 1,20,-1
 470 702 l 1,21,-1
 82 702 l 1,22,-1
 82 597 l 1,23,-1
 127 597 l 1,24,-1
 52 105 l 1,25,-1
 5 105 l 1,26,-1
 5 0 l 1,7,-1
231 323 m 1,27,-1
 266 615 l 1,28,-1
 285 615 l 1,29,-1
 322 323 l 1,30,-1
 231 323 l 1,27,-1
EndSplineSet
Validated: 9
EndChar

StartChar: Atilde
Encoding: 195 195 154
Width: 552
GlyphClass: 1
Flags: W
LayerCount: 2
Fore
SplineSet
177 768 m 1,0,1
 185 806 185 806 210 806 c 0,2,3
 222 806 222 806 258 791 c 0,4,5
 285 780 285 780 303 774.5 c 128,-1,6
 321 769 321 769 339 769 c 0,7,8
 380 769 380 769 409.5 805.5 c 128,-1,9
 439 842 439 842 444 899 c 1,10,-1
 374 899 l 1,11,12
 365 862 365 862 344 862 c 0,13,14
 328 862 328 862 286 878 c 0,15,16
 261 889 261 889 245 893.5 c 128,-1,17
 229 898 229 898 214 898 c 0,18,19
 172 898 172 898 142 861 c 128,-1,20
 112 824 112 824 109 768 c 1,21,-1
 177 768 l 1,0,1
5 0 m 1,22,-1
 246 0 l 1,23,-1
 246 105 l 1,24,-1
 203 105 l 1,25,-1
 219 236 l 1,26,-1
 334 236 l 1,27,-1
 351 105 l 1,28,-1
 307 105 l 1,29,-1
 307 0 l 1,30,-1
 547 0 l 1,31,-1
 547 105 l 1,32,-1
 503 105 l 1,33,-1
 423 597 l 1,34,-1
 470 597 l 1,35,-1
 470 702 l 1,36,-1
 82 702 l 1,37,-1
 82 597 l 1,38,-1
 127 597 l 1,39,-1
 52 105 l 1,40,-1
 5 105 l 1,41,-1
 5 0 l 1,22,-1
231 323 m 1,42,-1
 266 615 l 1,43,-1
 285 615 l 1,44,-1
 322 323 l 1,45,-1
 231 323 l 1,42,-1
EndSplineSet
Validated: 9
EndChar

StartChar: Adieresis
Encoding: 196 196 155
Width: 552
GlyphClass: 1
Flags: W
LayerCount: 2
Fore
SplineSet
173 901 m 256,0,1
 147 901 147 901 128 882.5 c 128,-1,2
 109 864 109 864 109 838 c 256,3,4
 109 812 109 812 128 793 c 128,-1,5
 147 774 147 774 173 774 c 256,6,7
 199 774 199 774 217.5 793 c 128,-1,8
 236 812 236 812 236 838 c 256,9,10
 236 864 236 864 217.5 882.5 c 128,-1,11
 199 901 199 901 173 901 c 256,0,1
382 901 m 256,12,13
 356 901 356 901 337 882.5 c 128,-1,14
 318 864 318 864 318 838 c 256,15,16
 318 812 318 812 337 793 c 128,-1,17
 356 774 356 774 382 774 c 256,18,19
 408 774 408 774 426.5 793 c 128,-1,20
 445 812 445 812 445 838 c 256,21,22
 445 864 445 864 426.5 882.5 c 128,-1,23
 408 901 408 901 382 901 c 256,12,13
5 0 m 1,24,-1
 246 0 l 1,25,-1
 246 105 l 1,26,-1
 203 105 l 1,27,-1
 219 236 l 1,28,-1
 334 236 l 1,29,-1
 351 105 l 1,30,-1
 307 105 l 1,31,-1
 307 0 l 1,32,-1
 547 0 l 1,33,-1
 547 105 l 1,34,-1
 503 105 l 1,35,-1
 423 597 l 1,36,-1
 470 597 l 1,37,-1
 470 702 l 1,38,-1
 82 702 l 1,39,-1
 82 597 l 1,40,-1
 127 597 l 1,41,-1
 52 105 l 1,42,-1
 5 105 l 1,43,-1
 5 0 l 1,24,-1
231 323 m 1,44,-1
 266 615 l 1,45,-1
 285 615 l 1,46,-1
 322 323 l 1,47,-1
 231 323 l 1,44,-1
EndSplineSet
Validated: 9
EndChar

StartChar: Aring
Encoding: 197 197 156
Width: 552
GlyphClass: 1
Flags: W
LayerCount: 2
Fore
SplineSet
277 941 m 256,0,1
 235 941 235 941 205 911.5 c 128,-1,2
 175 882 175 882 175 840 c 256,3,4
 175 798 175 798 205 768 c 128,-1,5
 235 738 235 738 277 738 c 256,6,7
 319 738 319 738 348.5 768 c 128,-1,8
 378 798 378 798 378 840 c 256,9,10
 378 882 378 882 348.5 911.5 c 128,-1,11
 319 941 319 941 277 941 c 256,0,1
276 890 m 256,12,13
 297 890 297 890 312 875.5 c 128,-1,14
 327 861 327 861 327 840 c 256,15,16
 327 819 327 819 312 804 c 128,-1,17
 297 789 297 789 276 789 c 256,18,19
 255 789 255 789 240.5 804 c 128,-1,20
 226 819 226 819 226 840 c 256,21,22
 226 861 226 861 240.5 875.5 c 128,-1,23
 255 890 255 890 276 890 c 256,12,13
5 0 m 1,24,-1
 246 0 l 1,25,-1
 246 105 l 1,26,-1
 203 105 l 1,27,-1
 219 236 l 1,28,-1
 334 236 l 1,29,-1
 351 105 l 1,30,-1
 307 105 l 1,31,-1
 307 0 l 1,32,-1
 547 0 l 1,33,-1
 547 105 l 1,34,-1
 503 105 l 1,35,-1
 423 597 l 1,36,-1
 470 597 l 1,37,-1
 470 702 l 1,38,-1
 82 702 l 1,39,-1
 82 597 l 1,40,-1
 127 597 l 1,41,-1
 52 105 l 1,42,-1
 5 105 l 1,43,-1
 5 0 l 1,24,-1
231 323 m 1,44,-1
 266 615 l 1,45,-1
 285 615 l 1,46,-1
 322 323 l 1,47,-1
 231 323 l 1,44,-1
EndSplineSet
Validated: 9
EndChar

StartChar: AE
Encoding: 198 198 157
Width: 708
GlyphClass: 1
Flags: W
LayerCount: 2
Fore
SplineSet
8 0 m 1,0,-1
 201 0 l 1,1,-1
 201 105 l 1,2,-1
 155 105 l 1,3,-1
 189 306 l 1,4,-1
 283 306 l 1,5,-1
 283 105 l 1,6,-1
 249 105 l 1,7,-1
 249 0 l 1,8,-1
 667 0 l 1,9,-1
 667 229 l 1,10,-1
 542 229 l 1,11,-1
 542 105 l 1,12,-1
 450 105 l 1,13,-1
 450 306 l 1,14,-1
 527 306 l 1,15,-1
 527 411 l 1,16,-1
 450 411 l 1,17,-1
 450 597 l 1,18,-1
 542 597 l 1,19,-1
 542 480 l 1,20,-1
 667 480 l 1,21,-1
 667 702 l 1,22,-1
 96 702 l 1,23,-1
 96 597 l 1,24,-1
 129 597 l 1,25,-1
 43 105 l 1,26,-1
 8 105 l 1,27,-1
 8 0 l 1,0,-1
205 399 m 1,28,-1
 241 610 l 1,29,-1
 283 610 l 1,30,-1
 283 399 l 1,31,-1
 205 399 l 1,28,-1
EndSplineSet
Validated: 9
EndChar

StartChar: Ccedilla
Encoding: 199 199 158
Width: 490
GlyphClass: 1
Flags: W
LayerCount: 2
Fore
SplineSet
157 -166 m 1,0,1
 176 -170 176 -170 204 -170 c 0,2,3
 256 -170 256 -170 286 -146.5 c 128,-1,4
 316 -123 316 -123 316 -82 c 0,5,6
 316 -28 316 -28 267 -13 c 1,7,-1
 267 -11 l 1,8,9
 347 -11 347 -11 401 49 c 128,-1,10
 455 109 455 109 465 210 c 1,11,-1
 337 248 l 1,12,13
 332 172 332 172 318.5 139.5 c 128,-1,14
 305 107 305 107 277 107 c 0,15,16
 258 107 258 107 246.5 118 c 128,-1,17
 235 129 235 129 229 157 c 128,-1,18
 223 185 223 185 221 232.5 c 128,-1,19
 219 280 219 280 219 362 c 0,20,21
 219 437 219 437 220.5 480 c 128,-1,22
 222 523 222 523 227.5 548.5 c 128,-1,23
 233 574 233 574 242.5 584.5 c 128,-1,24
 252 595 252 595 269 595 c 0,25,26
 323 595 323 595 332 465 c 1,27,-1
 444 465 l 1,28,-1
 444 702 l 1,29,-1
 332 702 l 1,30,-1
 332 654 l 1,31,-1
 330 654 l 1,32,33
 307 685 307 685 283.5 699 c 128,-1,34
 260 713 260 713 230 713 c 0,35,36
 192 713 192 713 157.5 691 c 128,-1,37
 123 669 123 669 95.5 625 c 128,-1,38
 68 581 68 581 52 514.5 c 128,-1,39
 36 448 36 448 36 361 c 0,40,41
 36 201 36 201 85.5 110 c 128,-1,42
 135 19 135 19 214 -3 c 1,43,44
 203 -29 203 -29 193 -41 c 1,45,46
 238 -48 238 -48 238 -74 c 0,47,48
 238 -93 238 -93 220.5 -101.5 c 128,-1,49
 203 -110 203 -110 162 -110 c 1,50,-1
 157 -166 l 1,0,1
EndSplineSet
Validated: 9
EndChar

StartChar: Egrave
Encoding: 200 200 159
Width: 531
GlyphClass: 1
Flags: W
LayerCount: 2
Fore
SplineSet
373 742 m 1,0,-1
 278 927 l 1,1,-1
 89 927 l 1,2,-1
 287 742 l 1,3,-1
 373 742 l 1,0,-1
23 0 m 1,4,-1
 497 0 l 1,5,-1
 497 229 l 1,6,-1
 372 229 l 1,7,-1
 372 105 l 1,8,-1
 251 105 l 1,9,-1
 251 306 l 1,10,-1
 344 306 l 1,11,-1
 344 411 l 1,12,-1
 251 411 l 1,13,-1
 251 597 l 1,14,-1
 372 597 l 1,15,-1
 372 479 l 1,16,-1
 497 479 l 1,17,-1
 497 702 l 1,18,-1
 23 702 l 1,19,-1
 23 597 l 1,20,-1
 84 597 l 1,21,-1
 84 105 l 1,22,-1
 23 105 l 1,23,-1
 23 0 l 1,4,-1
EndSplineSet
Validated: 9
EndChar

StartChar: Eacute
Encoding: 201 201 160
Width: 531
GlyphClass: 1
Flags: W
LayerCount: 2
Fore
SplineSet
172 742 m 1,0,-1
 258 742 l 1,1,-1
 456 927 l 1,2,-1
 267 927 l 1,3,-1
 172 742 l 1,0,-1
23 0 m 1,4,-1
 497 0 l 1,5,-1
 497 229 l 1,6,-1
 372 229 l 1,7,-1
 372 105 l 1,8,-1
 251 105 l 1,9,-1
 251 306 l 1,10,-1
 344 306 l 1,11,-1
 344 411 l 1,12,-1
 251 411 l 1,13,-1
 251 597 l 1,14,-1
 372 597 l 1,15,-1
 372 479 l 1,16,-1
 497 479 l 1,17,-1
 497 702 l 1,18,-1
 23 702 l 1,19,-1
 23 597 l 1,20,-1
 84 597 l 1,21,-1
 84 105 l 1,22,-1
 23 105 l 1,23,-1
 23 0 l 1,4,-1
EndSplineSet
Validated: 9
EndChar

StartChar: Ecircumflex
Encoding: 202 202 161
Width: 531
GlyphClass: 1
Flags: W
LayerCount: 2
Fore
SplineSet
104 738 m 1,0,-1
 197 738 l 1,1,-1
 266 834 l 1,2,-1
 334 738 l 1,3,-1
 427 738 l 1,4,-1
 337 927 l 1,5,-1
 194 927 l 1,6,-1
 104 738 l 1,0,-1
23 0 m 1,7,-1
 497 0 l 1,8,-1
 497 229 l 1,9,-1
 372 229 l 1,10,-1
 372 105 l 1,11,-1
 251 105 l 1,12,-1
 251 306 l 1,13,-1
 344 306 l 1,14,-1
 344 411 l 1,15,-1
 251 411 l 1,16,-1
 251 597 l 1,17,-1
 372 597 l 1,18,-1
 372 479 l 1,19,-1
 497 479 l 1,20,-1
 497 702 l 1,21,-1
 23 702 l 1,22,-1
 23 597 l 1,23,-1
 84 597 l 1,24,-1
 84 105 l 1,25,-1
 23 105 l 1,26,-1
 23 0 l 1,7,-1
EndSplineSet
Validated: 9
EndChar

StartChar: Edieresis
Encoding: 203 203 162
Width: 531
GlyphClass: 1
Flags: W
LayerCount: 2
Fore
SplineSet
162 901 m 256,0,1
 136 901 136 901 117 882.5 c 128,-1,2
 98 864 98 864 98 838 c 256,3,4
 98 812 98 812 117 793 c 128,-1,5
 136 774 136 774 162 774 c 256,6,7
 188 774 188 774 206.5 793 c 128,-1,8
 225 812 225 812 225 838 c 256,9,10
 225 864 225 864 206.5 882.5 c 128,-1,11
 188 901 188 901 162 901 c 256,0,1
371 901 m 256,12,13
 345 901 345 901 326 882.5 c 128,-1,14
 307 864 307 864 307 838 c 256,15,16
 307 812 307 812 326 793 c 128,-1,17
 345 774 345 774 371 774 c 256,18,19
 397 774 397 774 415.5 793 c 128,-1,20
 434 812 434 812 434 838 c 256,21,22
 434 864 434 864 415.5 882.5 c 128,-1,23
 397 901 397 901 371 901 c 256,12,13
23 0 m 1,24,-1
 497 0 l 1,25,-1
 497 229 l 1,26,-1
 372 229 l 1,27,-1
 372 105 l 1,28,-1
 251 105 l 1,29,-1
 251 306 l 1,30,-1
 344 306 l 1,31,-1
 344 411 l 1,32,-1
 251 411 l 1,33,-1
 251 597 l 1,34,-1
 372 597 l 1,35,-1
 372 479 l 1,36,-1
 497 479 l 1,37,-1
 497 702 l 1,38,-1
 23 702 l 1,39,-1
 23 597 l 1,40,-1
 84 597 l 1,41,-1
 84 105 l 1,42,-1
 23 105 l 1,43,-1
 23 0 l 1,24,-1
EndSplineSet
Validated: 9
EndChar

StartChar: Igrave
Encoding: 204 204 163
Width: 354
GlyphClass: 1
Flags: W
LayerCount: 2
Fore
SplineSet
285 742 m 1,0,-1
 190 927 l 1,1,-1
 1 927 l 1,2,-1
 199 742 l 1,3,-1
 285 742 l 1,0,-1
24 0 m 1,4,-1
 331 0 l 1,5,-1
 331 105 l 1,6,-1
 259 105 l 1,7,-1
 259 597 l 1,8,-1
 331 597 l 1,9,-1
 331 702 l 1,10,-1
 24 702 l 1,11,-1
 24 597 l 1,12,-1
 92 597 l 1,13,-1
 92 105 l 1,14,-1
 24 105 l 1,15,-1
 24 0 l 1,4,-1
EndSplineSet
Validated: 9
EndChar

StartChar: Iacute
Encoding: 205 205 164
Width: 354
GlyphClass: 1
Flags: W
LayerCount: 2
Fore
SplineSet
84 742 m 1,0,-1
 170 742 l 1,1,-1
 368 927 l 1,2,-1
 179 927 l 1,3,-1
 84 742 l 1,0,-1
24 0 m 1,4,-1
 331 0 l 1,5,-1
 331 105 l 1,6,-1
 259 105 l 1,7,-1
 259 597 l 1,8,-1
 331 597 l 1,9,-1
 331 702 l 1,10,-1
 24 702 l 1,11,-1
 24 597 l 1,12,-1
 92 597 l 1,13,-1
 92 105 l 1,14,-1
 24 105 l 1,15,-1
 24 0 l 1,4,-1
EndSplineSet
Validated: 9
EndChar

StartChar: Icircumflex
Encoding: 206 206 165
Width: 354
GlyphClass: 1
Flags: W
LayerCount: 2
Fore
SplineSet
16 738 m 1,0,-1
 109 738 l 1,1,-1
 178 834 l 1,2,-1
 246 738 l 1,3,-1
 339 738 l 1,4,-1
 249 927 l 1,5,-1
 106 927 l 1,6,-1
 16 738 l 1,0,-1
24 0 m 1,7,-1
 331 0 l 1,8,-1
 331 105 l 1,9,-1
 259 105 l 1,10,-1
 259 597 l 1,11,-1
 331 597 l 1,12,-1
 331 702 l 1,13,-1
 24 702 l 1,14,-1
 24 597 l 1,15,-1
 92 597 l 1,16,-1
 92 105 l 1,17,-1
 24 105 l 1,18,-1
 24 0 l 1,7,-1
EndSplineSet
Validated: 9
EndChar

StartChar: Idieresis
Encoding: 207 207 166
Width: 354
GlyphClass: 1
Flags: W
LayerCount: 2
Fore
SplineSet
74 901 m 256,0,1
 48 901 48 901 29 882.5 c 128,-1,2
 10 864 10 864 10 838 c 256,3,4
 10 812 10 812 29 793 c 128,-1,5
 48 774 48 774 74 774 c 256,6,7
 100 774 100 774 118.5 793 c 128,-1,8
 137 812 137 812 137 838 c 256,9,10
 137 864 137 864 118.5 882.5 c 128,-1,11
 100 901 100 901 74 901 c 256,0,1
283 901 m 256,12,13
 257 901 257 901 238 882.5 c 128,-1,14
 219 864 219 864 219 838 c 256,15,16
 219 812 219 812 238 793 c 128,-1,17
 257 774 257 774 283 774 c 256,18,19
 309 774 309 774 327.5 793 c 128,-1,20
 346 812 346 812 346 838 c 256,21,22
 346 864 346 864 327.5 882.5 c 128,-1,23
 309 901 309 901 283 901 c 256,12,13
24 0 m 1,24,-1
 331 0 l 1,25,-1
 331 105 l 1,26,-1
 259 105 l 1,27,-1
 259 597 l 1,28,-1
 331 597 l 1,29,-1
 331 702 l 1,30,-1
 24 702 l 1,31,-1
 24 597 l 1,32,-1
 92 597 l 1,33,-1
 92 105 l 1,34,-1
 24 105 l 1,35,-1
 24 0 l 1,24,-1
EndSplineSet
Validated: 9
EndChar

StartChar: Eth
Encoding: 208 208 167
Width: 552
GlyphClass: 1
Flags: W
LayerCount: 2
Fore
SplineSet
23 0 m 1,0,-1
 266 0 l 2,1,2
 328 0 328 0 374.5 26 c 128,-1,3
 421 52 421 52 452 99.5 c 128,-1,4
 483 147 483 147 498 211 c 128,-1,5
 513 275 513 275 513 350 c 0,6,7
 513 514 513 514 445 608 c 128,-1,8
 377 702 377 702 266 702 c 2,9,-1
 23 702 l 1,10,-1
 23 597 l 1,11,-1
 73 597 l 1,12,-1
 73 403 l 1,13,-1
 23 403 l 1,14,-1
 23 298 l 1,15,-1
 73 298 l 1,16,-1
 73 105 l 1,17,-1
 23 105 l 1,18,-1
 23 0 l 1,0,-1
336 354 m 0,19,20
 336 275 336 275 330.5 225.5 c 128,-1,21
 325 176 325 176 313.5 150 c 128,-1,22
 302 124 302 124 284.5 114.5 c 128,-1,23
 267 105 267 105 240 105 c 1,24,-1
 240 298 l 1,25,-1
 281 298 l 1,26,-1
 281 403 l 1,27,-1
 240 403 l 1,28,-1
 240 597 l 1,29,30
 264 597 264 597 280.5 589.5 c 128,-1,31
 297 582 297 582 309.5 557.5 c 128,-1,32
 322 533 322 533 329 484 c 128,-1,33
 336 435 336 435 336 354 c 0,19,20
EndSplineSet
Validated: 9
EndChar

StartChar: Ntilde
Encoding: 209 209 168
Width: 552
GlyphClass: 1
Flags: W
LayerCount: 2
Fore
SplineSet
177 768 m 1,0,1
 185 806 185 806 210 806 c 0,2,3
 222 806 222 806 258 791 c 0,4,5
 285 780 285 780 303 774.5 c 128,-1,6
 321 769 321 769 339 769 c 0,7,8
 380 769 380 769 409.5 805.5 c 128,-1,9
 439 842 439 842 444 899 c 1,10,-1
 374 899 l 1,11,12
 365 862 365 862 344 862 c 0,13,14
 328 862 328 862 286 878 c 0,15,16
 261 889 261 889 245 893.5 c 128,-1,17
 229 898 229 898 214 898 c 0,18,19
 172 898 172 898 142 861 c 128,-1,20
 112 824 112 824 109 768 c 1,21,-1
 177 768 l 1,0,1
32 0 m 1,22,-1
 219 0 l 1,23,-1
 219 105 l 1,24,-1
 181 105 l 1,25,-1
 181 242 l 2,26,27
 181 257 181 257 180 291.5 c 128,-1,28
 179 326 179 326 178 356 c 128,-1,29
 177 386 177 386 175.5 423.5 c 128,-1,30
 174 461 174 461 172 480 c 1,31,-1
 181 480 l 1,32,33
 211 374 211 374 240 292.5 c 128,-1,34
 269 211 269 211 313 97 c 0,35,36
 337 35 337 35 352 -6 c 1,37,-1
 482 -6 l 1,38,-1
 482 597 l 1,39,-1
 520 597 l 1,40,-1
 520 702 l 1,41,-1
 336 702 l 1,42,-1
 336 597 l 1,43,-1
 377 597 l 1,44,-1
 377 460 l 2,45,46
 377 434 377 434 378 413 c 128,-1,47
 379 392 379 392 380 361 c 0,48,49
 383 318 383 318 384 282 c 1,50,-1
 375 282 l 1,51,52
 343 403 343 403 311 499.5 c 128,-1,53
 279 596 279 596 234 702 c 1,54,-1
 32 702 l 1,55,-1
 32 597 l 1,56,-1
 76 597 l 1,57,-1
 76 105 l 1,58,-1
 32 105 l 1,59,-1
 32 0 l 1,22,-1
EndSplineSet
Validated: 9
EndChar

StartChar: Ograve
Encoding: 210 210 169
Width: 552
GlyphClass: 1
Flags: W
LayerCount: 2
Fore
SplineSet
384 742 m 1,0,-1
 289 927 l 1,1,-1
 100 927 l 1,2,-1
 298 742 l 1,3,-1
 384 742 l 1,0,-1
36 351 m 256,4,5
 36 269 36 269 53 202 c 128,-1,6
 70 135 70 135 101.5 87.5 c 128,-1,7
 133 40 133 40 177.5 14.5 c 128,-1,8
 222 -11 222 -11 276 -11 c 0,9,10
 331 -11 331 -11 375 14.5 c 128,-1,11
 419 40 419 40 450.5 87.5 c 128,-1,12
 482 135 482 135 499 202 c 128,-1,13
 516 269 516 269 516 351 c 256,14,15
 516 433 516 433 499 500 c 128,-1,16
 482 567 482 567 450.5 614.5 c 128,-1,17
 419 662 419 662 375 687.5 c 128,-1,18
 331 713 331 713 276 713 c 0,19,20
 222 713 222 713 177.5 687.5 c 128,-1,21
 133 662 133 662 101.5 614.5 c 128,-1,22
 70 567 70 567 53 500 c 128,-1,23
 36 433 36 433 36 351 c 256,4,5
333 351 m 256,24,25
 333 272 333 272 330.5 224.5 c 128,-1,26
 328 177 328 177 321.5 151.5 c 128,-1,27
 315 126 315 126 304.5 116.5 c 128,-1,28
 294 107 294 107 276 107 c 256,29,30
 258 107 258 107 247.5 116.5 c 128,-1,31
 237 126 237 126 230.5 151.5 c 128,-1,32
 224 177 224 177 221.5 224.5 c 128,-1,33
 219 272 219 272 219 351 c 256,34,35
 219 430 219 430 221.5 477.5 c 128,-1,36
 224 525 224 525 230.5 550.5 c 128,-1,37
 237 576 237 576 247.5 585.5 c 128,-1,38
 258 595 258 595 276 595 c 256,39,40
 294 595 294 595 304.5 585.5 c 128,-1,41
 315 576 315 576 321.5 550.5 c 128,-1,42
 328 525 328 525 330.5 477.5 c 128,-1,43
 333 430 333 430 333 351 c 256,24,25
EndSplineSet
Validated: 9
EndChar

StartChar: Oacute
Encoding: 211 211 170
Width: 552
GlyphClass: 1
Flags: W
LayerCount: 2
Fore
SplineSet
183 742 m 1,0,-1
 269 742 l 1,1,-1
 467 927 l 1,2,-1
 278 927 l 1,3,-1
 183 742 l 1,0,-1
36 351 m 256,4,5
 36 269 36 269 53 202 c 128,-1,6
 70 135 70 135 101.5 87.5 c 128,-1,7
 133 40 133 40 177.5 14.5 c 128,-1,8
 222 -11 222 -11 276 -11 c 0,9,10
 331 -11 331 -11 375 14.5 c 128,-1,11
 419 40 419 40 450.5 87.5 c 128,-1,12
 482 135 482 135 499 202 c 128,-1,13
 516 269 516 269 516 351 c 256,14,15
 516 433 516 433 499 500 c 128,-1,16
 482 567 482 567 450.5 614.5 c 128,-1,17
 419 662 419 662 375 687.5 c 128,-1,18
 331 713 331 713 276 713 c 0,19,20
 222 713 222 713 177.5 687.5 c 128,-1,21
 133 662 133 662 101.5 614.5 c 128,-1,22
 70 567 70 567 53 500 c 128,-1,23
 36 433 36 433 36 351 c 256,4,5
333 351 m 256,24,25
 333 272 333 272 330.5 224.5 c 128,-1,26
 328 177 328 177 321.5 151.5 c 128,-1,27
 315 126 315 126 304.5 116.5 c 128,-1,28
 294 107 294 107 276 107 c 256,29,30
 258 107 258 107 247.5 116.5 c 128,-1,31
 237 126 237 126 230.5 151.5 c 128,-1,32
 224 177 224 177 221.5 224.5 c 128,-1,33
 219 272 219 272 219 351 c 256,34,35
 219 430 219 430 221.5 477.5 c 128,-1,36
 224 525 224 525 230.5 550.5 c 128,-1,37
 237 576 237 576 247.5 585.5 c 128,-1,38
 258 595 258 595 276 595 c 256,39,40
 294 595 294 595 304.5 585.5 c 128,-1,41
 315 576 315 576 321.5 550.5 c 128,-1,42
 328 525 328 525 330.5 477.5 c 128,-1,43
 333 430 333 430 333 351 c 256,24,25
EndSplineSet
Validated: 9
EndChar

StartChar: Ocircumflex
Encoding: 212 212 171
Width: 552
GlyphClass: 1
Flags: W
LayerCount: 2
Fore
SplineSet
115 738 m 1,0,-1
 208 738 l 1,1,-1
 277 834 l 1,2,-1
 345 738 l 1,3,-1
 438 738 l 1,4,-1
 348 927 l 1,5,-1
 205 927 l 1,6,-1
 115 738 l 1,0,-1
36 351 m 256,7,8
 36 269 36 269 53 202 c 128,-1,9
 70 135 70 135 101.5 87.5 c 128,-1,10
 133 40 133 40 177.5 14.5 c 128,-1,11
 222 -11 222 -11 276 -11 c 0,12,13
 331 -11 331 -11 375 14.5 c 128,-1,14
 419 40 419 40 450.5 87.5 c 128,-1,15
 482 135 482 135 499 202 c 128,-1,16
 516 269 516 269 516 351 c 256,17,18
 516 433 516 433 499 500 c 128,-1,19
 482 567 482 567 450.5 614.5 c 128,-1,20
 419 662 419 662 375 687.5 c 128,-1,21
 331 713 331 713 276 713 c 0,22,23
 222 713 222 713 177.5 687.5 c 128,-1,24
 133 662 133 662 101.5 614.5 c 128,-1,25
 70 567 70 567 53 500 c 128,-1,26
 36 433 36 433 36 351 c 256,7,8
333 351 m 256,27,28
 333 272 333 272 330.5 224.5 c 128,-1,29
 328 177 328 177 321.5 151.5 c 128,-1,30
 315 126 315 126 304.5 116.5 c 128,-1,31
 294 107 294 107 276 107 c 256,32,33
 258 107 258 107 247.5 116.5 c 128,-1,34
 237 126 237 126 230.5 151.5 c 128,-1,35
 224 177 224 177 221.5 224.5 c 128,-1,36
 219 272 219 272 219 351 c 256,37,38
 219 430 219 430 221.5 477.5 c 128,-1,39
 224 525 224 525 230.5 550.5 c 128,-1,40
 237 576 237 576 247.5 585.5 c 128,-1,41
 258 595 258 595 276 595 c 256,42,43
 294 595 294 595 304.5 585.5 c 128,-1,44
 315 576 315 576 321.5 550.5 c 128,-1,45
 328 525 328 525 330.5 477.5 c 128,-1,46
 333 430 333 430 333 351 c 256,27,28
EndSplineSet
Validated: 9
EndChar

StartChar: Otilde
Encoding: 213 213 172
Width: 552
GlyphClass: 1
Flags: W
LayerCount: 2
Fore
SplineSet
177 768 m 1,0,1
 185 806 185 806 210 806 c 0,2,3
 222 806 222 806 258 791 c 0,4,5
 285 780 285 780 303 774.5 c 128,-1,6
 321 769 321 769 339 769 c 0,7,8
 380 769 380 769 409.5 805.5 c 128,-1,9
 439 842 439 842 444 899 c 1,10,-1
 374 899 l 1,11,12
 365 862 365 862 344 862 c 0,13,14
 328 862 328 862 286 878 c 0,15,16
 261 889 261 889 245 893.5 c 128,-1,17
 229 898 229 898 214 898 c 0,18,19
 172 898 172 898 142 861 c 128,-1,20
 112 824 112 824 109 768 c 1,21,-1
 177 768 l 1,0,1
36 351 m 256,22,23
 36 269 36 269 53 202 c 128,-1,24
 70 135 70 135 101.5 87.5 c 128,-1,25
 133 40 133 40 177.5 14.5 c 128,-1,26
 222 -11 222 -11 276 -11 c 0,27,28
 331 -11 331 -11 375 14.5 c 128,-1,29
 419 40 419 40 450.5 87.5 c 128,-1,30
 482 135 482 135 499 202 c 128,-1,31
 516 269 516 269 516 351 c 256,32,33
 516 433 516 433 499 500 c 128,-1,34
 482 567 482 567 450.5 614.5 c 128,-1,35
 419 662 419 662 375 687.5 c 128,-1,36
 331 713 331 713 276 713 c 0,37,38
 222 713 222 713 177.5 687.5 c 128,-1,39
 133 662 133 662 101.5 614.5 c 128,-1,40
 70 567 70 567 53 500 c 128,-1,41
 36 433 36 433 36 351 c 256,22,23
333 351 m 256,42,43
 333 272 333 272 330.5 224.5 c 128,-1,44
 328 177 328 177 321.5 151.5 c 128,-1,45
 315 126 315 126 304.5 116.5 c 128,-1,46
 294 107 294 107 276 107 c 256,47,48
 258 107 258 107 247.5 116.5 c 128,-1,49
 237 126 237 126 230.5 151.5 c 128,-1,50
 224 177 224 177 221.5 224.5 c 128,-1,51
 219 272 219 272 219 351 c 256,52,53
 219 430 219 430 221.5 477.5 c 128,-1,54
 224 525 224 525 230.5 550.5 c 128,-1,55
 237 576 237 576 247.5 585.5 c 128,-1,56
 258 595 258 595 276 595 c 256,57,58
 294 595 294 595 304.5 585.5 c 128,-1,59
 315 576 315 576 321.5 550.5 c 128,-1,60
 328 525 328 525 330.5 477.5 c 128,-1,61
 333 430 333 430 333 351 c 256,42,43
EndSplineSet
Validated: 9
EndChar

StartChar: Odieresis
Encoding: 214 214 173
Width: 552
GlyphClass: 1
Flags: W
LayerCount: 2
Fore
SplineSet
173 901 m 256,0,1
 147 901 147 901 128 882.5 c 128,-1,2
 109 864 109 864 109 838 c 256,3,4
 109 812 109 812 128 793 c 128,-1,5
 147 774 147 774 173 774 c 256,6,7
 199 774 199 774 217.5 793 c 128,-1,8
 236 812 236 812 236 838 c 256,9,10
 236 864 236 864 217.5 882.5 c 128,-1,11
 199 901 199 901 173 901 c 256,0,1
382 901 m 256,12,13
 356 901 356 901 337 882.5 c 128,-1,14
 318 864 318 864 318 838 c 256,15,16
 318 812 318 812 337 793 c 128,-1,17
 356 774 356 774 382 774 c 256,18,19
 408 774 408 774 426.5 793 c 128,-1,20
 445 812 445 812 445 838 c 256,21,22
 445 864 445 864 426.5 882.5 c 128,-1,23
 408 901 408 901 382 901 c 256,12,13
36 351 m 256,24,25
 36 269 36 269 53 202 c 128,-1,26
 70 135 70 135 101.5 87.5 c 128,-1,27
 133 40 133 40 177.5 14.5 c 128,-1,28
 222 -11 222 -11 276 -11 c 0,29,30
 331 -11 331 -11 375 14.5 c 128,-1,31
 419 40 419 40 450.5 87.5 c 128,-1,32
 482 135 482 135 499 202 c 128,-1,33
 516 269 516 269 516 351 c 256,34,35
 516 433 516 433 499 500 c 128,-1,36
 482 567 482 567 450.5 614.5 c 128,-1,37
 419 662 419 662 375 687.5 c 128,-1,38
 331 713 331 713 276 713 c 0,39,40
 222 713 222 713 177.5 687.5 c 128,-1,41
 133 662 133 662 101.5 614.5 c 128,-1,42
 70 567 70 567 53 500 c 128,-1,43
 36 433 36 433 36 351 c 256,24,25
333 351 m 256,44,45
 333 272 333 272 330.5 224.5 c 128,-1,46
 328 177 328 177 321.5 151.5 c 128,-1,47
 315 126 315 126 304.5 116.5 c 128,-1,48
 294 107 294 107 276 107 c 256,49,50
 258 107 258 107 247.5 116.5 c 128,-1,51
 237 126 237 126 230.5 151.5 c 128,-1,52
 224 177 224 177 221.5 224.5 c 128,-1,53
 219 272 219 272 219 351 c 256,54,55
 219 430 219 430 221.5 477.5 c 128,-1,56
 224 525 224 525 230.5 550.5 c 128,-1,57
 237 576 237 576 247.5 585.5 c 128,-1,58
 258 595 258 595 276 595 c 256,59,60
 294 595 294 595 304.5 585.5 c 128,-1,61
 315 576 315 576 321.5 550.5 c 128,-1,62
 328 525 328 525 330.5 477.5 c 128,-1,63
 333 430 333 430 333 351 c 256,44,45
EndSplineSet
Validated: 9
EndChar

StartChar: multiply
Encoding: 215 215 174
Width: 667
GlyphClass: 1
Flags: W
LayerCount: 2
Fore
SplineSet
151 586 m 1,0,-1
 77 512 l 1,1,-1
 259 330 l 1,2,-1
 77 148 l 1,3,-1
 151 74 l 1,4,-1
 333 256 l 1,5,-1
 514 75 l 1,6,-1
 588 149 l 1,7,-1
 407 330 l 1,8,-1
 589 512 l 1,9,-1
 513 586 l 1,10,-1
 332 405 l 1,11,-1
 151 586 l 1,0,-1
EndSplineSet
Validated: 9
EndChar

StartChar: Oslash
Encoding: 216 216 175
Width: 552
GlyphClass: 1
Flags: W
LayerCount: 2
Fore
SplineSet
36 351 m 0,0,1
 36 275 36 275 50 215.5 c 128,-1,2
 64 156 64 156 85 114 c 1,3,-1
 36 30 l 1,4,-1
 112 -14 l 1,5,-1
 142 40 l 1,6,7
 169 17 169 17 202 3 c 128,-1,8
 235 -11 235 -11 276 -11 c 0,9,10
 331 -11 331 -11 375 14.5 c 128,-1,11
 419 40 419 40 450.5 87.5 c 128,-1,12
 482 135 482 135 499 202 c 128,-1,13
 516 269 516 269 516 351 c 0,14,15
 516 424 516 424 503 482.5 c 128,-1,16
 490 541 490 541 465 590 c 1,17,-1
 516 669 l 1,18,-1
 443 713 l 1,19,-1
 409 663 l 1,20,21
 350 713 350 713 276 713 c 0,22,23
 222 713 222 713 177.5 687.5 c 128,-1,24
 133 662 133 662 101.5 614.5 c 128,-1,25
 70 567 70 567 53 500 c 128,-1,26
 36 433 36 433 36 351 c 0,0,1
221 342 m 1,27,-1
 219 342 l 1,28,-1
 219 351 l 2,29,30
 219 430 219 430 221.5 477.5 c 128,-1,31
 224 525 224 525 230.5 550.5 c 128,-1,32
 237 576 237 576 247.5 585.5 c 128,-1,33
 258 595 258 595 276 595 c 0,34,35
 299 595 299 595 310.5 578 c 128,-1,36
 322 561 322 561 326 522 c 1,37,-1
 221 342 l 1,27,-1
331 364 m 1,38,-1
 333 364 l 1,39,-1
 333 351 l 2,40,41
 333 273 333 273 330.5 226.5 c 128,-1,42
 328 180 328 180 322 154 c 128,-1,43
 316 128 316 128 305 117.5 c 128,-1,44
 294 107 294 107 276 107 c 0,45,46
 252 107 252 107 241 122.5 c 128,-1,47
 230 138 230 138 225 181 c 1,48,-1
 331 364 l 1,38,-1
EndSplineSet
Validated: 9
EndChar

StartChar: Ugrave
Encoding: 217 217 176
Width: 521
GlyphClass: 1
Flags: W
LayerCount: 2
Fore
SplineSet
368 742 m 1,0,-1
 273 927 l 1,1,-1
 84 927 l 1,2,-1
 282 742 l 1,3,-1
 368 742 l 1,0,-1
17 597 m 1,4,-1
 71 597 l 1,5,-1
 71 182 l 2,6,7
 71 82 71 82 123.5 35.5 c 128,-1,8
 176 -11 176 -11 267 -11 c 0,9,10
 349 -11 349 -11 398.5 39.5 c 128,-1,11
 448 90 448 90 448 172 c 2,12,-1
 448 597 l 1,13,-1
 504 597 l 1,14,-1
 504 702 l 1,15,-1
 313 702 l 1,16,-1
 313 597 l 1,17,-1
 343 597 l 1,18,-1
 343 176 l 2,19,20
 343 133 343 133 329 113.5 c 128,-1,21
 315 94 315 94 288 94 c 0,22,23
 238 94 238 94 238 169 c 2,24,-1
 238 597 l 1,25,-1
 267 597 l 1,26,-1
 267 702 l 1,27,-1
 17 702 l 1,28,-1
 17 597 l 1,4,-1
EndSplineSet
Validated: 9
EndChar

StartChar: Uacute
Encoding: 218 218 177
Width: 521
GlyphClass: 1
Flags: W
LayerCount: 2
Fore
SplineSet
167 742 m 1,0,-1
 253 742 l 1,1,-1
 451 927 l 1,2,-1
 262 927 l 1,3,-1
 167 742 l 1,0,-1
17 597 m 1,4,-1
 71 597 l 1,5,-1
 71 182 l 2,6,7
 71 82 71 82 123.5 35.5 c 128,-1,8
 176 -11 176 -11 267 -11 c 0,9,10
 349 -11 349 -11 398.5 39.5 c 128,-1,11
 448 90 448 90 448 172 c 2,12,-1
 448 597 l 1,13,-1
 504 597 l 1,14,-1
 504 702 l 1,15,-1
 313 702 l 1,16,-1
 313 597 l 1,17,-1
 343 597 l 1,18,-1
 343 176 l 2,19,20
 343 133 343 133 329 113.5 c 128,-1,21
 315 94 315 94 288 94 c 0,22,23
 238 94 238 94 238 169 c 2,24,-1
 238 597 l 1,25,-1
 267 597 l 1,26,-1
 267 702 l 1,27,-1
 17 702 l 1,28,-1
 17 597 l 1,4,-1
EndSplineSet
Validated: 9
EndChar

StartChar: Ucircumflex
Encoding: 219 219 178
Width: 521
GlyphClass: 1
Flags: W
LayerCount: 2
Fore
SplineSet
99 738 m 1,0,-1
 192 738 l 1,1,-1
 261 834 l 1,2,-1
 329 738 l 1,3,-1
 422 738 l 1,4,-1
 332 927 l 1,5,-1
 189 927 l 1,6,-1
 99 738 l 1,0,-1
17 597 m 1,7,-1
 71 597 l 1,8,-1
 71 182 l 2,9,10
 71 82 71 82 123.5 35.5 c 128,-1,11
 176 -11 176 -11 267 -11 c 0,12,13
 349 -11 349 -11 398.5 39.5 c 128,-1,14
 448 90 448 90 448 172 c 2,15,-1
 448 597 l 1,16,-1
 504 597 l 1,17,-1
 504 702 l 1,18,-1
 313 702 l 1,19,-1
 313 597 l 1,20,-1
 343 597 l 1,21,-1
 343 176 l 2,22,23
 343 133 343 133 329 113.5 c 128,-1,24
 315 94 315 94 288 94 c 0,25,26
 238 94 238 94 238 169 c 2,27,-1
 238 597 l 1,28,-1
 267 597 l 1,29,-1
 267 702 l 1,30,-1
 17 702 l 1,31,-1
 17 597 l 1,7,-1
EndSplineSet
Validated: 9
EndChar

StartChar: Udieresis
Encoding: 220 220 179
Width: 521
GlyphClass: 1
Flags: W
LayerCount: 2
Fore
SplineSet
157 901 m 256,0,1
 131 901 131 901 112 882.5 c 128,-1,2
 93 864 93 864 93 838 c 256,3,4
 93 812 93 812 112 793 c 128,-1,5
 131 774 131 774 157 774 c 256,6,7
 183 774 183 774 201.5 793 c 128,-1,8
 220 812 220 812 220 838 c 256,9,10
 220 864 220 864 201.5 882.5 c 128,-1,11
 183 901 183 901 157 901 c 256,0,1
366 901 m 256,12,13
 340 901 340 901 321 882.5 c 128,-1,14
 302 864 302 864 302 838 c 256,15,16
 302 812 302 812 321 793 c 128,-1,17
 340 774 340 774 366 774 c 256,18,19
 392 774 392 774 410.5 793 c 128,-1,20
 429 812 429 812 429 838 c 256,21,22
 429 864 429 864 410.5 882.5 c 128,-1,23
 392 901 392 901 366 901 c 256,12,13
17 597 m 1,24,-1
 71 597 l 1,25,-1
 71 182 l 2,26,27
 71 82 71 82 123.5 35.5 c 128,-1,28
 176 -11 176 -11 267 -11 c 0,29,30
 349 -11 349 -11 398.5 39.5 c 128,-1,31
 448 90 448 90 448 172 c 2,32,-1
 448 597 l 1,33,-1
 504 597 l 1,34,-1
 504 702 l 1,35,-1
 313 702 l 1,36,-1
 313 597 l 1,37,-1
 343 597 l 1,38,-1
 343 176 l 2,39,40
 343 133 343 133 329 113.5 c 128,-1,41
 315 94 315 94 288 94 c 0,42,43
 238 94 238 94 238 169 c 2,44,-1
 238 597 l 1,45,-1
 267 597 l 1,46,-1
 267 702 l 1,47,-1
 17 702 l 1,48,-1
 17 597 l 1,24,-1
EndSplineSet
Validated: 9
EndChar

StartChar: Yacute
Encoding: 221 221 180
Width: 573
GlyphClass: 1
Flags: W
LayerCount: 2
Fore
SplineSet
193 742 m 1,0,-1
 279 742 l 1,1,-1
 477 927 l 1,2,-1
 288 927 l 1,3,-1
 193 742 l 1,0,-1
142 0 m 1,4,-1
 422 0 l 1,5,-1
 422 105 l 1,6,-1
 367 105 l 1,7,-1
 367 267 l 1,8,-1
 510 597 l 1,9,-1
 559 597 l 1,10,-1
 559 702 l 1,11,-1
 331 702 l 1,12,-1
 331 597 l 1,13,-1
 395 597 l 1,14,-1
 305 387 l 1,15,-1
 219 597 l 1,16,-1
 282 597 l 1,17,-1
 282 702 l 1,18,-1
 13 702 l 1,19,-1
 13 597 l 1,20,-1
 61 597 l 1,21,-1
 200 267 l 1,22,-1
 200 105 l 1,23,-1
 142 105 l 1,24,-1
 142 0 l 1,4,-1
EndSplineSet
Validated: 9
EndChar

StartChar: Thorn
Encoding: 222 222 181
Width: 542
GlyphClass: 1
Flags: W
LayerCount: 2
Fore
SplineSet
72 610 m 1,0,-1
 72 92 l 1,1,-1
 23 92 l 1,2,-1
 23 0 l 1,3,-1
 288 0 l 1,4,-1
 288 92 l 1,5,-1
 239 92 l 1,6,-1
 239 130 l 1,7,8
 286 130 286 130 330 136.5 c 128,-1,9
 374 143 374 143 415.5 164.5 c 128,-1,10
 457 186 457 186 484 231 c 128,-1,11
 511 276 511 276 511 347 c 0,12,13
 511 405 511 405 490 448.5 c 128,-1,14
 469 492 469 492 433.5 519 c 128,-1,15
 398 546 398 546 353 559 c 128,-1,16
 308 572 308 572 259 572 c 2,17,-1
 239 572 l 1,18,-1
 239 610 l 1,19,-1
 288 610 l 1,20,-1
 288 702 l 1,21,-1
 23 702 l 1,22,-1
 23 610 l 1,23,-1
 72 610 l 1,0,-1
239 467 m 1,24,25
 284 467 284 467 309 441 c 128,-1,26
 334 415 334 415 334 352 c 0,27,28
 334 287 334 287 310 261 c 128,-1,29
 286 235 286 235 239 235 c 1,30,-1
 239 467 l 1,24,25
EndSplineSet
Validated: 9
EndChar

StartChar: germandbls
Encoding: 223 223 182
Width: 479
GlyphClass: 1
Flags: W
LayerCount: 2
Fore
SplineSet
12 0 m 1,0,-1
 230 0 l 1,1,-1
 230 105 l 1,2,-1
 214 105 l 1,3,-1
 214 547 l 2,4,5
 214 580 214 580 222.5 594 c 128,-1,6
 231 608 231 608 250 608 c 0,7,8
 270 608 270 608 278.5 592.5 c 128,-1,9
 287 577 287 577 287 539 c 0,10,11
 287 492 287 492 277.5 472 c 128,-1,12
 268 452 268 452 244 452 c 1,13,-1
 244 324 l 1,14,15
 273 324 273 324 284.5 303 c 128,-1,16
 296 282 296 282 296 231 c 0,17,18
 296 188 296 188 295 166 c 128,-1,19
 294 144 294 144 290.5 132.5 c 128,-1,20
 287 121 287 121 280.5 117 c 128,-1,21
 274 113 274 113 261 111 c 1,22,-1
 261 5 l 1,23,24
 293 -7 293 -7 319 -7 c 0,25,26
 388 -7 388 -7 418 47.5 c 128,-1,27
 448 102 448 102 448 217 c 0,28,29
 448 299 448 299 428 344.5 c 128,-1,30
 408 390 408 390 361 412 c 1,31,32
 439 440 439 440 439 552 c 0,33,34
 439 713 439 713 255 713 c 0,35,36
 159 713 159 713 113.5 657 c 128,-1,37
 68 601 68 601 68 499 c 2,38,-1
 68 105 l 1,39,-1
 12 105 l 1,40,-1
 12 0 l 1,0,-1
EndSplineSet
Validated: 9
EndChar

StartChar: agrave
Encoding: 224 224 183
Width: 414
VWidth: 750
GlyphClass: 1
Flags: W
LayerCount: 2
Fore
SplineSet
288 556.5 m 1,0,-1
 216.75 695.25 l 1,1,-1
 75 695.25 l 1,2,-1
 223.5 556.5 l 1,3,-1
 288 556.5 l 1,0,-1
3.75 0 m 1,4,-1
 184.5 0 l 1,5,-1
 184.5 78.75 l 1,6,-1
 152.25 78.75 l 1,7,-1
 164.25 177 l 1,8,-1
 250.5 177 l 1,9,-1
 263.25 78.75 l 1,10,-1
 230.25 78.75 l 1,11,-1
 230.25 0 l 1,12,-1
 410.25 0 l 1,13,-1
 410.25 78.75 l 1,14,-1
 377.25 78.75 l 1,15,-1
 317.25 447.75 l 1,16,-1
 352.5 447.75 l 1,17,-1
 352.5 526.5 l 1,18,-1
 61.5 526.5 l 1,19,-1
 61.5 447.75 l 1,20,-1
 95.25 447.75 l 1,21,-1
 39 78.75 l 1,22,-1
 3.75 78.75 l 1,23,-1
 3.75 0 l 1,4,-1
173.25 242.25 m 1,24,-1
 199.5 461.25 l 1,25,-1
 213.75 461.25 l 1,26,-1
 241.5 242.25 l 1,27,-1
 173.25 242.25 l 1,24,-1
EndSplineSet
Validated: 9
EndChar

StartChar: aacute
Encoding: 225 225 184
Width: 414
VWidth: 750
GlyphClass: 1
Flags: W
LayerCount: 2
Fore
SplineSet
137.25 556.5 m 1,0,-1
 201.75 556.5 l 1,1,-1
 350.25 695.25 l 1,2,-1
 208.5 695.25 l 1,3,-1
 137.25 556.5 l 1,0,-1
3.75 0 m 1,4,-1
 184.5 0 l 1,5,-1
 184.5 78.75 l 1,6,-1
 152.25 78.75 l 1,7,-1
 164.25 177 l 1,8,-1
 250.5 177 l 1,9,-1
 263.25 78.75 l 1,10,-1
 230.25 78.75 l 1,11,-1
 230.25 0 l 1,12,-1
 410.25 0 l 1,13,-1
 410.25 78.75 l 1,14,-1
 377.25 78.75 l 1,15,-1
 317.25 447.75 l 1,16,-1
 352.5 447.75 l 1,17,-1
 352.5 526.5 l 1,18,-1
 61.5 526.5 l 1,19,-1
 61.5 447.75 l 1,20,-1
 95.25 447.75 l 1,21,-1
 39 78.75 l 1,22,-1
 3.75 78.75 l 1,23,-1
 3.75 0 l 1,4,-1
173.25 242.25 m 1,24,-1
 199.5 461.25 l 1,25,-1
 213.75 461.25 l 1,26,-1
 241.5 242.25 l 1,27,-1
 173.25 242.25 l 1,24,-1
EndSplineSet
Validated: 9
EndChar

StartChar: acircumflex
Encoding: 226 226 185
Width: 414
VWidth: 750
GlyphClass: 1
Flags: W
LayerCount: 2
Fore
SplineSet
86.25 553.5 m 1,0,-1
 156 553.5 l 1,1,-1
 207.75 625.5 l 1,2,-1
 258.75 553.5 l 1,3,-1
 328.5 553.5 l 1,4,-1
 261 695.25 l 1,5,-1
 153.75 695.25 l 1,6,-1
 86.25 553.5 l 1,0,-1
3.75 0 m 1,7,-1
 184.5 0 l 1,8,-1
 184.5 78.75 l 1,9,-1
 152.25 78.75 l 1,10,-1
 164.25 177 l 1,11,-1
 250.5 177 l 1,12,-1
 263.25 78.75 l 1,13,-1
 230.25 78.75 l 1,14,-1
 230.25 0 l 1,15,-1
 410.25 0 l 1,16,-1
 410.25 78.75 l 1,17,-1
 377.25 78.75 l 1,18,-1
 317.25 447.75 l 1,19,-1
 352.5 447.75 l 1,20,-1
 352.5 526.5 l 1,21,-1
 61.5 526.5 l 1,22,-1
 61.5 447.75 l 1,23,-1
 95.25 447.75 l 1,24,-1
 39 78.75 l 1,25,-1
 3.75 78.75 l 1,26,-1
 3.75 0 l 1,7,-1
173.25 242.25 m 1,27,-1
 199.5 461.25 l 1,28,-1
 213.75 461.25 l 1,29,-1
 241.5 242.25 l 1,30,-1
 173.25 242.25 l 1,27,-1
EndSplineSet
Validated: 9
EndChar

StartChar: atilde
Encoding: 227 227 186
Width: 414
VWidth: 750
GlyphClass: 1
Flags: W
LayerCount: 2
Fore
SplineSet
132.75 576 m 1,0,1
 138.75 604.5 138.75 604.5 157.5 604.5 c 0,2,3
 166.5 604.5 166.5 604.5 193.5 593.25 c 0,4,5
 213.75 585 213.75 585 227.25 580.875 c 128,-1,6
 240.75 576.75 240.75 576.75 254.25 576.75 c 0,7,8
 285 576.75 285 576.75 307.125 604.125 c 128,-1,9
 329.25 631.5 329.25 631.5 333 674.25 c 1,10,-1
 280.5 674.25 l 1,11,12
 273.75 646.5 273.75 646.5 258 646.5 c 0,13,14
 246 646.5 246 646.5 214.5 658.5 c 0,15,16
 195.75 666.75 195.75 666.75 183.75 670.125 c 128,-1,17
 171.75 673.5 171.75 673.5 160.5 673.5 c 0,18,19
 129 673.5 129 673.5 106.5 645.75 c 128,-1,20
 84 618 84 618 81.75 576 c 1,21,-1
 132.75 576 l 1,0,1
3.75 0 m 1,22,-1
 184.5 0 l 1,23,-1
 184.5 78.75 l 1,24,-1
 152.25 78.75 l 1,25,-1
 164.25 177 l 1,26,-1
 250.5 177 l 1,27,-1
 263.25 78.75 l 1,28,-1
 230.25 78.75 l 1,29,-1
 230.25 0 l 1,30,-1
 410.25 0 l 1,31,-1
 410.25 78.75 l 1,32,-1
 377.25 78.75 l 1,33,-1
 317.25 447.75 l 1,34,-1
 352.5 447.75 l 1,35,-1
 352.5 526.5 l 1,36,-1
 61.5 526.5 l 1,37,-1
 61.5 447.75 l 1,38,-1
 95.25 447.75 l 1,39,-1
 39 78.75 l 1,40,-1
 3.75 78.75 l 1,41,-1
 3.75 0 l 1,22,-1
173.25 242.25 m 1,42,-1
 199.5 461.25 l 1,43,-1
 213.75 461.25 l 1,44,-1
 241.5 242.25 l 1,45,-1
 173.25 242.25 l 1,42,-1
EndSplineSet
Validated: 9
EndChar

StartChar: adieresis
Encoding: 228 228 187
Width: 414
VWidth: 750
GlyphClass: 1
Flags: W
LayerCount: 2
Fore
SplineSet
129.75 675.75 m 256,0,1
 110.25 675.75 110.25 675.75 96 661.875 c 128,-1,2
 81.75 648 81.75 648 81.75 628.5 c 256,3,4
 81.75 609 81.75 609 96 594.75 c 128,-1,5
 110.25 580.5 110.25 580.5 129.75 580.5 c 256,6,7
 149.25 580.5 149.25 580.5 163.125 594.75 c 128,-1,8
 177 609 177 609 177 628.5 c 256,9,10
 177 648 177 648 163.125 661.875 c 128,-1,11
 149.25 675.75 149.25 675.75 129.75 675.75 c 256,0,1
286.5 675.75 m 256,12,13
 267 675.75 267 675.75 252.75 661.875 c 128,-1,14
 238.5 648 238.5 648 238.5 628.5 c 256,15,16
 238.5 609 238.5 609 252.75 594.75 c 128,-1,17
 267 580.5 267 580.5 286.5 580.5 c 256,18,19
 306 580.5 306 580.5 319.875 594.75 c 128,-1,20
 333.75 609 333.75 609 333.75 628.5 c 256,21,22
 333.75 648 333.75 648 319.875 661.875 c 128,-1,23
 306 675.75 306 675.75 286.5 675.75 c 256,12,13
3.75 0 m 1,24,-1
 184.5 0 l 1,25,-1
 184.5 78.75 l 1,26,-1
 152.25 78.75 l 1,27,-1
 164.25 177 l 1,28,-1
 250.5 177 l 1,29,-1
 263.25 78.75 l 1,30,-1
 230.25 78.75 l 1,31,-1
 230.25 0 l 1,32,-1
 410.25 0 l 1,33,-1
 410.25 78.75 l 1,34,-1
 377.25 78.75 l 1,35,-1
 317.25 447.75 l 1,36,-1
 352.5 447.75 l 1,37,-1
 352.5 526.5 l 1,38,-1
 61.5 526.5 l 1,39,-1
 61.5 447.75 l 1,40,-1
 95.25 447.75 l 1,41,-1
 39 78.75 l 1,42,-1
 3.75 78.75 l 1,43,-1
 3.75 0 l 1,24,-1
173.25 242.25 m 1,44,-1
 199.5 461.25 l 1,45,-1
 213.75 461.25 l 1,46,-1
 241.5 242.25 l 1,47,-1
 173.25 242.25 l 1,44,-1
EndSplineSet
Validated: 9
EndChar

StartChar: aring
Encoding: 229 229 188
Width: 414
VWidth: 750
GlyphClass: 1
Flags: W
LayerCount: 2
Fore
SplineSet
207.75 705.75 m 256,0,1
 176.25 705.75 176.25 705.75 153.75 683.625 c 128,-1,2
 131.25 661.5 131.25 661.5 131.25 630 c 256,3,4
 131.25 598.5 131.25 598.5 153.75 576 c 128,-1,5
 176.25 553.5 176.25 553.5 207.75 553.5 c 256,6,7
 239.25 553.5 239.25 553.5 261.375 576 c 128,-1,8
 283.5 598.5 283.5 598.5 283.5 630 c 256,9,10
 283.5 661.5 283.5 661.5 261.375 683.625 c 128,-1,11
 239.25 705.75 239.25 705.75 207.75 705.75 c 256,0,1
207 667.5 m 256,12,13
 222.75 667.5 222.75 667.5 234 656.625 c 128,-1,14
 245.25 645.75 245.25 645.75 245.25 630 c 256,15,16
 245.25 614.25 245.25 614.25 234 603 c 128,-1,17
 222.75 591.75 222.75 591.75 207 591.75 c 256,18,19
 191.25 591.75 191.25 591.75 180.375 603 c 128,-1,20
 169.5 614.25 169.5 614.25 169.5 630 c 256,21,22
 169.5 645.75 169.5 645.75 180.375 656.625 c 128,-1,23
 191.25 667.5 191.25 667.5 207 667.5 c 256,12,13
3.75 0 m 1,24,-1
 184.5 0 l 1,25,-1
 184.5 78.75 l 1,26,-1
 152.25 78.75 l 1,27,-1
 164.25 177 l 1,28,-1
 250.5 177 l 1,29,-1
 263.25 78.75 l 1,30,-1
 230.25 78.75 l 1,31,-1
 230.25 0 l 1,32,-1
 410.25 0 l 1,33,-1
 410.25 78.75 l 1,34,-1
 377.25 78.75 l 1,35,-1
 317.25 447.75 l 1,36,-1
 352.5 447.75 l 1,37,-1
 352.5 526.5 l 1,38,-1
 61.5 526.5 l 1,39,-1
 61.5 447.75 l 1,40,-1
 95.25 447.75 l 1,41,-1
 39 78.75 l 1,42,-1
 3.75 78.75 l 1,43,-1
 3.75 0 l 1,24,-1
173.25 242.25 m 1,44,-1
 199.5 461.25 l 1,45,-1
 213.75 461.25 l 1,46,-1
 241.5 242.25 l 1,47,-1
 173.25 242.25 l 1,44,-1
EndSplineSet
Validated: 9
EndChar

StartChar: ae
Encoding: 230 230 189
Width: 531
VWidth: 750
GlyphClass: 1
Flags: W
LayerCount: 2
Fore
SplineSet
6 0 m 1,0,-1
 150.75 0 l 1,1,-1
 150.75 78.75 l 1,2,-1
 116.25 78.75 l 1,3,-1
 141.75 229.5 l 1,4,-1
 212.25 229.5 l 1,5,-1
 212.25 78.75 l 1,6,-1
 186.75 78.75 l 1,7,-1
 186.75 0 l 1,8,-1
 500.25 0 l 1,9,-1
 500.25 171.75 l 1,10,-1
 406.5 171.75 l 1,11,-1
 406.5 78.75 l 1,12,-1
 337.5 78.75 l 1,13,-1
 337.5 229.5 l 1,14,-1
 395.25 229.5 l 1,15,-1
 395.25 308.25 l 1,16,-1
 337.5 308.25 l 1,17,-1
 337.5 447.75 l 1,18,-1
 406.5 447.75 l 1,19,-1
 406.5 360 l 1,20,-1
 500.25 360 l 1,21,-1
 500.25 526.5 l 1,22,-1
 72 526.5 l 1,23,-1
 72 447.75 l 1,24,-1
 96.75 447.75 l 1,25,-1
 32.25 78.75 l 1,26,-1
 6 78.75 l 1,27,-1
 6 0 l 1,0,-1
153.75 299.25 m 1,28,-1
 180.75 457.5 l 1,29,-1
 212.25 457.5 l 1,30,-1
 212.25 299.25 l 1,31,-1
 153.75 299.25 l 1,28,-1
EndSplineSet
Validated: 9
EndChar

StartChar: ccedilla
Encoding: 231 231 190
Width: 367
VWidth: 750
GlyphClass: 1
Flags: W
LayerCount: 2
Fore
SplineSet
117.75 -124.5 m 1,0,1
 132 -127.5 132 -127.5 153 -127.5 c 0,2,3
 192 -127.5 192 -127.5 214.5 -109.875 c 128,-1,4
 237 -92.25 237 -92.25 237 -61.5 c 0,5,6
 237 -21 237 -21 200.25 -9.75 c 1,7,-1
 200.25 -8.25 l 1,8,9
 260.25 -8.25 260.25 -8.25 300.75 36.75 c 128,-1,10
 341.25 81.75 341.25 81.75 348.75 157.5 c 1,11,-1
 252.75 186 l 1,12,13
 249 129 249 129 238.875 104.625 c 128,-1,14
 228.75 80.25 228.75 80.25 207.75 80.25 c 0,15,16
 193.5 80.25 193.5 80.25 184.875 88.5 c 128,-1,17
 176.25 96.75 176.25 96.75 171.75 117.75 c 128,-1,18
 167.25 138.75 167.25 138.75 165.75 174.375 c 128,-1,19
 164.25 210 164.25 210 164.25 271.5 c 0,20,21
 164.25 327.75 164.25 327.75 165.375 360 c 128,-1,22
 166.5 392.25 166.5 392.25 170.625 411.375 c 128,-1,23
 174.75 430.5 174.75 430.5 181.875 438.375 c 128,-1,24
 189 446.25 189 446.25 201.75 446.25 c 0,25,26
 242.25 446.25 242.25 446.25 249 348.75 c 1,27,-1
 333 348.75 l 1,28,-1
 333 526.5 l 1,29,-1
 249 526.5 l 1,30,-1
 249 490.5 l 1,31,-1
 247.5 490.5 l 1,32,33
 230.25 513.75 230.25 513.75 212.625 524.25 c 128,-1,34
 195 534.75 195 534.75 172.5 534.75 c 0,35,36
 144 534.75 144 534.75 118.125 518.25 c 128,-1,37
 92.25 501.75 92.25 501.75 71.625 468.75 c 128,-1,38
 51 435.75 51 435.75 39 385.875 c 128,-1,39
 27 336 27 336 27 270.75 c 0,40,41
 27 150.75 27 150.75 64.125 82.5 c 128,-1,42
 101.25 14.25 101.25 14.25 160.5 -2.25 c 1,43,44
 152.25 -21.75 152.25 -21.75 144.75 -30.75 c 1,45,46
 178.5 -36 178.5 -36 178.5 -55.5 c 0,47,48
 178.5 -69.75 178.5 -69.75 165.375 -76.125 c 128,-1,49
 152.25 -82.5 152.25 -82.5 121.5 -82.5 c 1,50,-1
 117.75 -124.5 l 1,0,1
EndSplineSet
Validated: 9
EndChar

StartChar: egrave
Encoding: 232 232 191
Width: 398
VWidth: 750
GlyphClass: 1
Flags: W
LayerCount: 2
Fore
SplineSet
279.75 556.5 m 1,0,-1
 208.5 695.25 l 1,1,-1
 66.75 695.25 l 1,2,-1
 215.25 556.5 l 1,3,-1
 279.75 556.5 l 1,0,-1
17.25 0 m 1,4,-1
 372.75 0 l 1,5,-1
 372.75 171.75 l 1,6,-1
 279 171.75 l 1,7,-1
 279 78.75 l 1,8,-1
 188.25 78.75 l 1,9,-1
 188.25 229.5 l 1,10,-1
 258 229.5 l 1,11,-1
 258 308.25 l 1,12,-1
 188.25 308.25 l 1,13,-1
 188.25 447.75 l 1,14,-1
 279 447.75 l 1,15,-1
 279 359.25 l 1,16,-1
 372.75 359.25 l 1,17,-1
 372.75 526.5 l 1,18,-1
 17.25 526.5 l 1,19,-1
 17.25 447.75 l 1,20,-1
 63 447.75 l 1,21,-1
 63 78.75 l 1,22,-1
 17.25 78.75 l 1,23,-1
 17.25 0 l 1,4,-1
EndSplineSet
Validated: 9
EndChar

StartChar: eacute
Encoding: 233 233 192
Width: 398
VWidth: 750
GlyphClass: 1
Flags: W
LayerCount: 2
Fore
SplineSet
129 556.5 m 1,0,-1
 193.5 556.5 l 1,1,-1
 342 695.25 l 1,2,-1
 200.25 695.25 l 1,3,-1
 129 556.5 l 1,0,-1
17.25 0 m 1,4,-1
 372.75 0 l 1,5,-1
 372.75 171.75 l 1,6,-1
 279 171.75 l 1,7,-1
 279 78.75 l 1,8,-1
 188.25 78.75 l 1,9,-1
 188.25 229.5 l 1,10,-1
 258 229.5 l 1,11,-1
 258 308.25 l 1,12,-1
 188.25 308.25 l 1,13,-1
 188.25 447.75 l 1,14,-1
 279 447.75 l 1,15,-1
 279 359.25 l 1,16,-1
 372.75 359.25 l 1,17,-1
 372.75 526.5 l 1,18,-1
 17.25 526.5 l 1,19,-1
 17.25 447.75 l 1,20,-1
 63 447.75 l 1,21,-1
 63 78.75 l 1,22,-1
 17.25 78.75 l 1,23,-1
 17.25 0 l 1,4,-1
EndSplineSet
Validated: 9
EndChar

StartChar: ecircumflex
Encoding: 234 234 193
Width: 398
VWidth: 750
GlyphClass: 1
Flags: W
LayerCount: 2
Fore
SplineSet
78 553.5 m 1,0,-1
 147.75 553.5 l 1,1,-1
 199.5 625.5 l 1,2,-1
 250.5 553.5 l 1,3,-1
 320.25 553.5 l 1,4,-1
 252.75 695.25 l 1,5,-1
 145.5 695.25 l 1,6,-1
 78 553.5 l 1,0,-1
17.25 0 m 1,7,-1
 372.75 0 l 1,8,-1
 372.75 171.75 l 1,9,-1
 279 171.75 l 1,10,-1
 279 78.75 l 1,11,-1
 188.25 78.75 l 1,12,-1
 188.25 229.5 l 1,13,-1
 258 229.5 l 1,14,-1
 258 308.25 l 1,15,-1
 188.25 308.25 l 1,16,-1
 188.25 447.75 l 1,17,-1
 279 447.75 l 1,18,-1
 279 359.25 l 1,19,-1
 372.75 359.25 l 1,20,-1
 372.75 526.5 l 1,21,-1
 17.25 526.5 l 1,22,-1
 17.25 447.75 l 1,23,-1
 63 447.75 l 1,24,-1
 63 78.75 l 1,25,-1
 17.25 78.75 l 1,26,-1
 17.25 0 l 1,7,-1
EndSplineSet
Validated: 9
EndChar

StartChar: edieresis
Encoding: 235 235 194
Width: 398
VWidth: 750
GlyphClass: 1
Flags: W
LayerCount: 2
Fore
SplineSet
121.5 675.75 m 256,0,1
 102 675.75 102 675.75 87.75 661.875 c 128,-1,2
 73.5 648 73.5 648 73.5 628.5 c 256,3,4
 73.5 609 73.5 609 87.75 594.75 c 128,-1,5
 102 580.5 102 580.5 121.5 580.5 c 256,6,7
 141 580.5 141 580.5 154.875 594.75 c 128,-1,8
 168.75 609 168.75 609 168.75 628.5 c 256,9,10
 168.75 648 168.75 648 154.875 661.875 c 128,-1,11
 141 675.75 141 675.75 121.5 675.75 c 256,0,1
278.25 675.75 m 256,12,13
 258.75 675.75 258.75 675.75 244.5 661.875 c 128,-1,14
 230.25 648 230.25 648 230.25 628.5 c 256,15,16
 230.25 609 230.25 609 244.5 594.75 c 128,-1,17
 258.75 580.5 258.75 580.5 278.25 580.5 c 256,18,19
 297.75 580.5 297.75 580.5 311.625 594.75 c 128,-1,20
 325.5 609 325.5 609 325.5 628.5 c 256,21,22
 325.5 648 325.5 648 311.625 661.875 c 128,-1,23
 297.75 675.75 297.75 675.75 278.25 675.75 c 256,12,13
17.25 0 m 1,24,-1
 372.75 0 l 1,25,-1
 372.75 171.75 l 1,26,-1
 279 171.75 l 1,27,-1
 279 78.75 l 1,28,-1
 188.25 78.75 l 1,29,-1
 188.25 229.5 l 1,30,-1
 258 229.5 l 1,31,-1
 258 308.25 l 1,32,-1
 188.25 308.25 l 1,33,-1
 188.25 447.75 l 1,34,-1
 279 447.75 l 1,35,-1
 279 359.25 l 1,36,-1
 372.75 359.25 l 1,37,-1
 372.75 526.5 l 1,38,-1
 17.25 526.5 l 1,39,-1
 17.25 447.75 l 1,40,-1
 63 447.75 l 1,41,-1
 63 78.75 l 1,42,-1
 17.25 78.75 l 1,43,-1
 17.25 0 l 1,24,-1
EndSplineSet
Validated: 9
EndChar

StartChar: igrave
Encoding: 236 236 195
Width: 265
VWidth: 750
GlyphClass: 1
Flags: W
LayerCount: 2
Fore
SplineSet
213.75 556.5 m 1,0,-1
 142.5 695.25 l 1,1,-1
 0.75 695.25 l 1,2,-1
 149.25 556.5 l 1,3,-1
 213.75 556.5 l 1,0,-1
18 0 m 1,4,-1
 248.25 0 l 1,5,-1
 248.25 78.75 l 1,6,-1
 194.25 78.75 l 1,7,-1
 194.25 447.75 l 1,8,-1
 248.25 447.75 l 1,9,-1
 248.25 526.5 l 1,10,-1
 18 526.5 l 1,11,-1
 18 447.75 l 1,12,-1
 69 447.75 l 1,13,-1
 69 78.75 l 1,14,-1
 18 78.75 l 1,15,-1
 18 0 l 1,4,-1
EndSplineSet
Validated: 9
EndChar

StartChar: iacute
Encoding: 237 237 196
Width: 265
VWidth: 750
GlyphClass: 1
Flags: W
LayerCount: 2
Fore
SplineSet
63 556.5 m 1,0,-1
 127.5 556.5 l 1,1,-1
 276 695.25 l 1,2,-1
 134.25 695.25 l 1,3,-1
 63 556.5 l 1,0,-1
18 0 m 1,4,-1
 248.25 0 l 1,5,-1
 248.25 78.75 l 1,6,-1
 194.25 78.75 l 1,7,-1
 194.25 447.75 l 1,8,-1
 248.25 447.75 l 1,9,-1
 248.25 526.5 l 1,10,-1
 18 526.5 l 1,11,-1
 18 447.75 l 1,12,-1
 69 447.75 l 1,13,-1
 69 78.75 l 1,14,-1
 18 78.75 l 1,15,-1
 18 0 l 1,4,-1
EndSplineSet
Validated: 9
EndChar

StartChar: icircumflex
Encoding: 238 238 197
Width: 265
VWidth: 750
GlyphClass: 1
Flags: W
LayerCount: 2
Fore
SplineSet
12 553.5 m 1,0,-1
 81.75 553.5 l 1,1,-1
 133.5 625.5 l 1,2,-1
 184.5 553.5 l 1,3,-1
 254.25 553.5 l 1,4,-1
 186.75 695.25 l 1,5,-1
 79.5 695.25 l 1,6,-1
 12 553.5 l 1,0,-1
18 0 m 1,7,-1
 248.25 0 l 1,8,-1
 248.25 78.75 l 1,9,-1
 194.25 78.75 l 1,10,-1
 194.25 447.75 l 1,11,-1
 248.25 447.75 l 1,12,-1
 248.25 526.5 l 1,13,-1
 18 526.5 l 1,14,-1
 18 447.75 l 1,15,-1
 69 447.75 l 1,16,-1
 69 78.75 l 1,17,-1
 18 78.75 l 1,18,-1
 18 0 l 1,7,-1
EndSplineSet
Validated: 9
EndChar

StartChar: idieresis
Encoding: 239 239 198
Width: 265
VWidth: 750
GlyphClass: 1
Flags: W
LayerCount: 2
Fore
SplineSet
55.5 675.75 m 256,0,1
 36 675.75 36 675.75 21.75 661.875 c 128,-1,2
 7.5 648 7.5 648 7.5 628.5 c 256,3,4
 7.5 609 7.5 609 21.75 594.75 c 128,-1,5
 36 580.5 36 580.5 55.5 580.5 c 256,6,7
 75 580.5 75 580.5 88.875 594.75 c 128,-1,8
 102.75 609 102.75 609 102.75 628.5 c 256,9,10
 102.75 648 102.75 648 88.875 661.875 c 128,-1,11
 75 675.75 75 675.75 55.5 675.75 c 256,0,1
212.25 675.75 m 256,12,13
 192.75 675.75 192.75 675.75 178.5 661.875 c 128,-1,14
 164.25 648 164.25 648 164.25 628.5 c 256,15,16
 164.25 609 164.25 609 178.5 594.75 c 128,-1,17
 192.75 580.5 192.75 580.5 212.25 580.5 c 256,18,19
 231.75 580.5 231.75 580.5 245.625 594.75 c 128,-1,20
 259.5 609 259.5 609 259.5 628.5 c 256,21,22
 259.5 648 259.5 648 245.625 661.875 c 128,-1,23
 231.75 675.75 231.75 675.75 212.25 675.75 c 256,12,13
18 0 m 1,24,-1
 248.25 0 l 1,25,-1
 248.25 78.75 l 1,26,-1
 194.25 78.75 l 1,27,-1
 194.25 447.75 l 1,28,-1
 248.25 447.75 l 1,29,-1
 248.25 526.5 l 1,30,-1
 18 526.5 l 1,31,-1
 18 447.75 l 1,32,-1
 69 447.75 l 1,33,-1
 69 78.75 l 1,34,-1
 18 78.75 l 1,35,-1
 18 0 l 1,24,-1
EndSplineSet
Validated: 9
EndChar

StartChar: eth
Encoding: 240 240 199
Width: 414
VWidth: 750
GlyphClass: 1
Flags: W
LayerCount: 2
Fore
SplineSet
17.25 0 m 1,0,-1
 199.5 0 l 2,1,2
 246 0 246 0 280.875 19.5 c 128,-1,3
 315.75 39 315.75 39 339 74.625 c 128,-1,4
 362.25 110.25 362.25 110.25 373.5 158.25 c 128,-1,5
 384.75 206.25 384.75 206.25 384.75 262.5 c 0,6,7
 384.75 385.5 384.75 385.5 333.75 456 c 128,-1,8
 282.75 526.5 282.75 526.5 199.5 526.5 c 2,9,-1
 17.25 526.5 l 1,10,-1
 17.25 447.75 l 1,11,-1
 54.75 447.75 l 1,12,-1
 54.75 302.25 l 1,13,-1
 17.25 302.25 l 1,14,-1
 17.25 223.5 l 1,15,-1
 54.75 223.5 l 1,16,-1
 54.75 78.75 l 1,17,-1
 17.25 78.75 l 1,18,-1
 17.25 0 l 1,0,-1
252 265.5 m 0,19,20
 252 206.25 252 206.25 247.875 169.125 c 128,-1,21
 243.75 132 243.75 132 235.125 112.5 c 128,-1,22
 226.5 93 226.5 93 213.375 85.875 c 128,-1,23
 200.25 78.75 200.25 78.75 180 78.75 c 1,24,-1
 180 223.5 l 1,25,-1
 210.75 223.5 l 1,26,-1
 210.75 302.25 l 1,27,-1
 180 302.25 l 1,28,-1
 180 447.75 l 1,29,30
 198 447.75 198 447.75 210.375 442.125 c 128,-1,31
 222.75 436.5 222.75 436.5 232.125 418.125 c 128,-1,32
 241.5 399.75 241.5 399.75 246.75 363 c 128,-1,33
 252 326.25 252 326.25 252 265.5 c 0,19,20
EndSplineSet
Validated: 9
EndChar

StartChar: ntilde
Encoding: 241 241 200
Width: 414
VWidth: 750
GlyphClass: 1
Flags: W
LayerCount: 2
Fore
SplineSet
132.75 576 m 1,0,1
 138.75 604.5 138.75 604.5 157.5 604.5 c 0,2,3
 166.5 604.5 166.5 604.5 193.5 593.25 c 0,4,5
 213.75 585 213.75 585 227.25 580.875 c 128,-1,6
 240.75 576.75 240.75 576.75 254.25 576.75 c 0,7,8
 285 576.75 285 576.75 307.125 604.125 c 128,-1,9
 329.25 631.5 329.25 631.5 333 674.25 c 1,10,-1
 280.5 674.25 l 1,11,12
 273.75 646.5 273.75 646.5 258 646.5 c 0,13,14
 246 646.5 246 646.5 214.5 658.5 c 0,15,16
 195.75 666.75 195.75 666.75 183.75 670.125 c 128,-1,17
 171.75 673.5 171.75 673.5 160.5 673.5 c 0,18,19
 129 673.5 129 673.5 106.5 645.75 c 128,-1,20
 84 618 84 618 81.75 576 c 1,21,-1
 132.75 576 l 1,0,1
24 0 m 1,22,-1
 164.25 0 l 1,23,-1
 164.25 78.75 l 1,24,-1
 135.75 78.75 l 1,25,-1
 135.75 181.5 l 2,26,27
 135.75 192.75 135.75 192.75 135 218.625 c 128,-1,28
 134.25 244.5 134.25 244.5 133.5 267 c 128,-1,29
 132.75 289.5 132.75 289.5 131.625 317.625 c 128,-1,30
 130.5 345.75 130.5 345.75 129 360 c 1,31,-1
 135.75 360 l 1,32,33
 158.25 280.5 158.25 280.5 180 219.375 c 128,-1,34
 201.75 158.25 201.75 158.25 234.75 72.75 c 0,35,36
 252.75 26.25 252.75 26.25 264 -4.5 c 1,37,-1
 361.5 -4.5 l 1,38,-1
 361.5 447.75 l 1,39,-1
 390 447.75 l 1,40,-1
 390 526.5 l 1,41,-1
 252 526.5 l 1,42,-1
 252 447.75 l 1,43,-1
 282.75 447.75 l 1,44,-1
 282.75 345 l 2,45,46
 282.75 325.5 282.75 325.5 283.5 309.75 c 128,-1,47
 284.25 294 284.25 294 285 270.75 c 0,48,49
 287.25 238.5 287.25 238.5 288 211.5 c 1,50,-1
 281.25 211.5 l 1,51,52
 257.25 302.25 257.25 302.25 233.25 374.625 c 128,-1,53
 209.25 447 209.25 447 175.5 526.5 c 1,54,-1
 24 526.5 l 1,55,-1
 24 447.75 l 1,56,-1
 57 447.75 l 1,57,-1
 57 78.75 l 1,58,-1
 24 78.75 l 1,59,-1
 24 0 l 1,22,-1
EndSplineSet
Validated: 9
EndChar

StartChar: ograve
Encoding: 242 242 201
Width: 414
VWidth: 750
GlyphClass: 1
Flags: W
LayerCount: 2
Fore
SplineSet
288 556.5 m 1,0,-1
 216.75 695.25 l 1,1,-1
 75 695.25 l 1,2,-1
 223.5 556.5 l 1,3,-1
 288 556.5 l 1,0,-1
27 263.25 m 256,4,5
 27 201.75 27 201.75 39.75 151.5 c 128,-1,6
 52.5 101.25 52.5 101.25 76.125 65.625 c 128,-1,7
 99.75 30 99.75 30 133.125 10.875 c 128,-1,8
 166.5 -8.25 166.5 -8.25 207 -8.25 c 0,9,10
 248.25 -8.25 248.25 -8.25 281.25 10.875 c 128,-1,11
 314.25 30 314.25 30 337.875 65.625 c 128,-1,12
 361.5 101.25 361.5 101.25 374.25 151.5 c 128,-1,13
 387 201.75 387 201.75 387 263.25 c 256,14,15
 387 324.75 387 324.75 374.25 375 c 128,-1,16
 361.5 425.25 361.5 425.25 337.875 460.875 c 128,-1,17
 314.25 496.5 314.25 496.5 281.25 515.625 c 128,-1,18
 248.25 534.75 248.25 534.75 207 534.75 c 0,19,20
 166.5 534.75 166.5 534.75 133.125 515.625 c 128,-1,21
 99.75 496.5 99.75 496.5 76.125 460.875 c 128,-1,22
 52.5 425.25 52.5 425.25 39.75 375 c 128,-1,23
 27 324.75 27 324.75 27 263.25 c 256,4,5
249.75 263.25 m 256,24,25
 249.75 204 249.75 204 247.875 168.375 c 128,-1,26
 246 132.75 246 132.75 241.125 113.625 c 128,-1,27
 236.25 94.5 236.25 94.5 228.375 87.375 c 128,-1,28
 220.5 80.25 220.5 80.25 207 80.25 c 256,29,30
 193.5 80.25 193.5 80.25 185.625 87.375 c 128,-1,31
 177.75 94.5 177.75 94.5 172.875 113.625 c 128,-1,32
 168 132.75 168 132.75 166.125 168.375 c 128,-1,33
 164.25 204 164.25 204 164.25 263.25 c 256,34,35
 164.25 322.5 164.25 322.5 166.125 358.125 c 128,-1,36
 168 393.75 168 393.75 172.875 412.875 c 128,-1,37
 177.75 432 177.75 432 185.625 439.125 c 128,-1,38
 193.5 446.25 193.5 446.25 207 446.25 c 256,39,40
 220.5 446.25 220.5 446.25 228.375 439.125 c 128,-1,41
 236.25 432 236.25 432 241.125 412.875 c 128,-1,42
 246 393.75 246 393.75 247.875 358.125 c 128,-1,43
 249.75 322.5 249.75 322.5 249.75 263.25 c 256,24,25
EndSplineSet
Validated: 9
EndChar

StartChar: oacute
Encoding: 243 243 202
Width: 414
VWidth: 750
GlyphClass: 1
Flags: W
LayerCount: 2
Fore
SplineSet
137.25 556.5 m 1,0,-1
 201.75 556.5 l 1,1,-1
 350.25 695.25 l 1,2,-1
 208.5 695.25 l 1,3,-1
 137.25 556.5 l 1,0,-1
27 263.25 m 256,4,5
 27 201.75 27 201.75 39.75 151.5 c 128,-1,6
 52.5 101.25 52.5 101.25 76.125 65.625 c 128,-1,7
 99.75 30 99.75 30 133.125 10.875 c 128,-1,8
 166.5 -8.25 166.5 -8.25 207 -8.25 c 0,9,10
 248.25 -8.25 248.25 -8.25 281.25 10.875 c 128,-1,11
 314.25 30 314.25 30 337.875 65.625 c 128,-1,12
 361.5 101.25 361.5 101.25 374.25 151.5 c 128,-1,13
 387 201.75 387 201.75 387 263.25 c 256,14,15
 387 324.75 387 324.75 374.25 375 c 128,-1,16
 361.5 425.25 361.5 425.25 337.875 460.875 c 128,-1,17
 314.25 496.5 314.25 496.5 281.25 515.625 c 128,-1,18
 248.25 534.75 248.25 534.75 207 534.75 c 0,19,20
 166.5 534.75 166.5 534.75 133.125 515.625 c 128,-1,21
 99.75 496.5 99.75 496.5 76.125 460.875 c 128,-1,22
 52.5 425.25 52.5 425.25 39.75 375 c 128,-1,23
 27 324.75 27 324.75 27 263.25 c 256,4,5
249.75 263.25 m 256,24,25
 249.75 204 249.75 204 247.875 168.375 c 128,-1,26
 246 132.75 246 132.75 241.125 113.625 c 128,-1,27
 236.25 94.5 236.25 94.5 228.375 87.375 c 128,-1,28
 220.5 80.25 220.5 80.25 207 80.25 c 256,29,30
 193.5 80.25 193.5 80.25 185.625 87.375 c 128,-1,31
 177.75 94.5 177.75 94.5 172.875 113.625 c 128,-1,32
 168 132.75 168 132.75 166.125 168.375 c 128,-1,33
 164.25 204 164.25 204 164.25 263.25 c 256,34,35
 164.25 322.5 164.25 322.5 166.125 358.125 c 128,-1,36
 168 393.75 168 393.75 172.875 412.875 c 128,-1,37
 177.75 432 177.75 432 185.625 439.125 c 128,-1,38
 193.5 446.25 193.5 446.25 207 446.25 c 256,39,40
 220.5 446.25 220.5 446.25 228.375 439.125 c 128,-1,41
 236.25 432 236.25 432 241.125 412.875 c 128,-1,42
 246 393.75 246 393.75 247.875 358.125 c 128,-1,43
 249.75 322.5 249.75 322.5 249.75 263.25 c 256,24,25
EndSplineSet
Validated: 9
EndChar

StartChar: ocircumflex
Encoding: 244 244 203
Width: 414
VWidth: 750
GlyphClass: 1
Flags: W
LayerCount: 2
Fore
SplineSet
86.25 553.5 m 1,0,-1
 156 553.5 l 1,1,-1
 207.75 625.5 l 1,2,-1
 258.75 553.5 l 1,3,-1
 328.5 553.5 l 1,4,-1
 261 695.25 l 1,5,-1
 153.75 695.25 l 1,6,-1
 86.25 553.5 l 1,0,-1
27 263.25 m 256,7,8
 27 201.75 27 201.75 39.75 151.5 c 128,-1,9
 52.5 101.25 52.5 101.25 76.125 65.625 c 128,-1,10
 99.75 30 99.75 30 133.125 10.875 c 128,-1,11
 166.5 -8.25 166.5 -8.25 207 -8.25 c 0,12,13
 248.25 -8.25 248.25 -8.25 281.25 10.875 c 128,-1,14
 314.25 30 314.25 30 337.875 65.625 c 128,-1,15
 361.5 101.25 361.5 101.25 374.25 151.5 c 128,-1,16
 387 201.75 387 201.75 387 263.25 c 256,17,18
 387 324.75 387 324.75 374.25 375 c 128,-1,19
 361.5 425.25 361.5 425.25 337.875 460.875 c 128,-1,20
 314.25 496.5 314.25 496.5 281.25 515.625 c 128,-1,21
 248.25 534.75 248.25 534.75 207 534.75 c 0,22,23
 166.5 534.75 166.5 534.75 133.125 515.625 c 128,-1,24
 99.75 496.5 99.75 496.5 76.125 460.875 c 128,-1,25
 52.5 425.25 52.5 425.25 39.75 375 c 128,-1,26
 27 324.75 27 324.75 27 263.25 c 256,7,8
249.75 263.25 m 256,27,28
 249.75 204 249.75 204 247.875 168.375 c 128,-1,29
 246 132.75 246 132.75 241.125 113.625 c 128,-1,30
 236.25 94.5 236.25 94.5 228.375 87.375 c 128,-1,31
 220.5 80.25 220.5 80.25 207 80.25 c 256,32,33
 193.5 80.25 193.5 80.25 185.625 87.375 c 128,-1,34
 177.75 94.5 177.75 94.5 172.875 113.625 c 128,-1,35
 168 132.75 168 132.75 166.125 168.375 c 128,-1,36
 164.25 204 164.25 204 164.25 263.25 c 256,37,38
 164.25 322.5 164.25 322.5 166.125 358.125 c 128,-1,39
 168 393.75 168 393.75 172.875 412.875 c 128,-1,40
 177.75 432 177.75 432 185.625 439.125 c 128,-1,41
 193.5 446.25 193.5 446.25 207 446.25 c 256,42,43
 220.5 446.25 220.5 446.25 228.375 439.125 c 128,-1,44
 236.25 432 236.25 432 241.125 412.875 c 128,-1,45
 246 393.75 246 393.75 247.875 358.125 c 128,-1,46
 249.75 322.5 249.75 322.5 249.75 263.25 c 256,27,28
EndSplineSet
Validated: 9
EndChar

StartChar: otilde
Encoding: 245 245 204
Width: 414
VWidth: 750
GlyphClass: 1
Flags: W
LayerCount: 2
Fore
SplineSet
132.75 576 m 1,0,1
 138.75 604.5 138.75 604.5 157.5 604.5 c 0,2,3
 166.5 604.5 166.5 604.5 193.5 593.25 c 0,4,5
 213.75 585 213.75 585 227.25 580.875 c 128,-1,6
 240.75 576.75 240.75 576.75 254.25 576.75 c 0,7,8
 285 576.75 285 576.75 307.125 604.125 c 128,-1,9
 329.25 631.5 329.25 631.5 333 674.25 c 1,10,-1
 280.5 674.25 l 1,11,12
 273.75 646.5 273.75 646.5 258 646.5 c 0,13,14
 246 646.5 246 646.5 214.5 658.5 c 0,15,16
 195.75 666.75 195.75 666.75 183.75 670.125 c 128,-1,17
 171.75 673.5 171.75 673.5 160.5 673.5 c 0,18,19
 129 673.5 129 673.5 106.5 645.75 c 128,-1,20
 84 618 84 618 81.75 576 c 1,21,-1
 132.75 576 l 1,0,1
27 263.25 m 256,22,23
 27 201.75 27 201.75 39.75 151.5 c 128,-1,24
 52.5 101.25 52.5 101.25 76.125 65.625 c 128,-1,25
 99.75 30 99.75 30 133.125 10.875 c 128,-1,26
 166.5 -8.25 166.5 -8.25 207 -8.25 c 0,27,28
 248.25 -8.25 248.25 -8.25 281.25 10.875 c 128,-1,29
 314.25 30 314.25 30 337.875 65.625 c 128,-1,30
 361.5 101.25 361.5 101.25 374.25 151.5 c 128,-1,31
 387 201.75 387 201.75 387 263.25 c 256,32,33
 387 324.75 387 324.75 374.25 375 c 128,-1,34
 361.5 425.25 361.5 425.25 337.875 460.875 c 128,-1,35
 314.25 496.5 314.25 496.5 281.25 515.625 c 128,-1,36
 248.25 534.75 248.25 534.75 207 534.75 c 0,37,38
 166.5 534.75 166.5 534.75 133.125 515.625 c 128,-1,39
 99.75 496.5 99.75 496.5 76.125 460.875 c 128,-1,40
 52.5 425.25 52.5 425.25 39.75 375 c 128,-1,41
 27 324.75 27 324.75 27 263.25 c 256,22,23
249.75 263.25 m 256,42,43
 249.75 204 249.75 204 247.875 168.375 c 128,-1,44
 246 132.75 246 132.75 241.125 113.625 c 128,-1,45
 236.25 94.5 236.25 94.5 228.375 87.375 c 128,-1,46
 220.5 80.25 220.5 80.25 207 80.25 c 256,47,48
 193.5 80.25 193.5 80.25 185.625 87.375 c 128,-1,49
 177.75 94.5 177.75 94.5 172.875 113.625 c 128,-1,50
 168 132.75 168 132.75 166.125 168.375 c 128,-1,51
 164.25 204 164.25 204 164.25 263.25 c 256,52,53
 164.25 322.5 164.25 322.5 166.125 358.125 c 128,-1,54
 168 393.75 168 393.75 172.875 412.875 c 128,-1,55
 177.75 432 177.75 432 185.625 439.125 c 128,-1,56
 193.5 446.25 193.5 446.25 207 446.25 c 256,57,58
 220.5 446.25 220.5 446.25 228.375 439.125 c 128,-1,59
 236.25 432 236.25 432 241.125 412.875 c 128,-1,60
 246 393.75 246 393.75 247.875 358.125 c 128,-1,61
 249.75 322.5 249.75 322.5 249.75 263.25 c 256,42,43
EndSplineSet
Validated: 9
EndChar

StartChar: odieresis
Encoding: 246 246 205
Width: 414
VWidth: 750
GlyphClass: 1
Flags: W
LayerCount: 2
Fore
SplineSet
129.75 675.75 m 256,0,1
 110.25 675.75 110.25 675.75 96 661.875 c 128,-1,2
 81.75 648 81.75 648 81.75 628.5 c 256,3,4
 81.75 609 81.75 609 96 594.75 c 128,-1,5
 110.25 580.5 110.25 580.5 129.75 580.5 c 256,6,7
 149.25 580.5 149.25 580.5 163.125 594.75 c 128,-1,8
 177 609 177 609 177 628.5 c 256,9,10
 177 648 177 648 163.125 661.875 c 128,-1,11
 149.25 675.75 149.25 675.75 129.75 675.75 c 256,0,1
286.5 675.75 m 256,12,13
 267 675.75 267 675.75 252.75 661.875 c 128,-1,14
 238.5 648 238.5 648 238.5 628.5 c 256,15,16
 238.5 609 238.5 609 252.75 594.75 c 128,-1,17
 267 580.5 267 580.5 286.5 580.5 c 256,18,19
 306 580.5 306 580.5 319.875 594.75 c 128,-1,20
 333.75 609 333.75 609 333.75 628.5 c 256,21,22
 333.75 648 333.75 648 319.875 661.875 c 128,-1,23
 306 675.75 306 675.75 286.5 675.75 c 256,12,13
27 263.25 m 256,24,25
 27 201.75 27 201.75 39.75 151.5 c 128,-1,26
 52.5 101.25 52.5 101.25 76.125 65.625 c 128,-1,27
 99.75 30 99.75 30 133.125 10.875 c 128,-1,28
 166.5 -8.25 166.5 -8.25 207 -8.25 c 0,29,30
 248.25 -8.25 248.25 -8.25 281.25 10.875 c 128,-1,31
 314.25 30 314.25 30 337.875 65.625 c 128,-1,32
 361.5 101.25 361.5 101.25 374.25 151.5 c 128,-1,33
 387 201.75 387 201.75 387 263.25 c 256,34,35
 387 324.75 387 324.75 374.25 375 c 128,-1,36
 361.5 425.25 361.5 425.25 337.875 460.875 c 128,-1,37
 314.25 496.5 314.25 496.5 281.25 515.625 c 128,-1,38
 248.25 534.75 248.25 534.75 207 534.75 c 0,39,40
 166.5 534.75 166.5 534.75 133.125 515.625 c 128,-1,41
 99.75 496.5 99.75 496.5 76.125 460.875 c 128,-1,42
 52.5 425.25 52.5 425.25 39.75 375 c 128,-1,43
 27 324.75 27 324.75 27 263.25 c 256,24,25
249.75 263.25 m 256,44,45
 249.75 204 249.75 204 247.875 168.375 c 128,-1,46
 246 132.75 246 132.75 241.125 113.625 c 128,-1,47
 236.25 94.5 236.25 94.5 228.375 87.375 c 128,-1,48
 220.5 80.25 220.5 80.25 207 80.25 c 256,49,50
 193.5 80.25 193.5 80.25 185.625 87.375 c 128,-1,51
 177.75 94.5 177.75 94.5 172.875 113.625 c 128,-1,52
 168 132.75 168 132.75 166.125 168.375 c 128,-1,53
 164.25 204 164.25 204 164.25 263.25 c 256,54,55
 164.25 322.5 164.25 322.5 166.125 358.125 c 128,-1,56
 168 393.75 168 393.75 172.875 412.875 c 128,-1,57
 177.75 432 177.75 432 185.625 439.125 c 128,-1,58
 193.5 446.25 193.5 446.25 207 446.25 c 256,59,60
 220.5 446.25 220.5 446.25 228.375 439.125 c 128,-1,61
 236.25 432 236.25 432 241.125 412.875 c 128,-1,62
 246 393.75 246 393.75 247.875 358.125 c 128,-1,63
 249.75 322.5 249.75 322.5 249.75 263.25 c 256,44,45
EndSplineSet
Validated: 9
EndChar

StartChar: divide
Encoding: 247 247 206
Width: 668
GlyphClass: 1
Flags: W
LayerCount: 2
Fore
SplineSet
333 595 m 256,0,1
 307 595 307 595 288.5 576.5 c 128,-1,2
 270 558 270 558 270 532 c 256,3,4
 270 506 270 506 288.5 487.5 c 128,-1,5
 307 469 307 469 333 469 c 256,6,7
 359 469 359 469 377.5 487.5 c 128,-1,8
 396 506 396 506 396 532 c 256,9,10
 396 558 396 558 377.5 576.5 c 128,-1,11
 359 595 359 595 333 595 c 256,0,1
62 383 m 1,12,-1
 62 278 l 1,13,-1
 605 278 l 1,14,-1
 605 383 l 1,15,-1
 62 383 l 1,12,-1
333 192 m 256,16,17
 307 192 307 192 288.5 173.5 c 128,-1,18
 270 155 270 155 270 129 c 256,19,20
 270 103 270 103 288.5 84.5 c 128,-1,21
 307 66 307 66 333 66 c 256,22,23
 359 66 359 66 377.5 84.5 c 128,-1,24
 396 103 396 103 396 129 c 256,25,26
 396 155 396 155 377.5 173.5 c 128,-1,27
 359 192 359 192 333 192 c 256,16,17
EndSplineSet
Validated: 9
EndChar

StartChar: oslash
Encoding: 248 248 207
Width: 414
VWidth: 750
GlyphClass: 1
Flags: W
LayerCount: 2
Fore
SplineSet
27 263.25 m 0,0,1
 27 206.25 27 206.25 37.5 161.625 c 128,-1,2
 48 117 48 117 63.75 85.5 c 1,3,-1
 27 22.5 l 1,4,-1
 84 -10.5 l 1,5,-1
 106.5 30 l 1,6,7
 126.75 12.75 126.75 12.75 151.5 2.25 c 128,-1,8
 176.25 -8.25 176.25 -8.25 207 -8.25 c 0,9,10
 248.25 -8.25 248.25 -8.25 281.25 10.875 c 128,-1,11
 314.25 30 314.25 30 337.875 65.625 c 128,-1,12
 361.5 101.25 361.5 101.25 374.25 151.5 c 128,-1,13
 387 201.75 387 201.75 387 263.25 c 0,14,15
 387 318 387 318 377.25 361.875 c 128,-1,16
 367.5 405.75 367.5 405.75 348.75 442.5 c 1,17,-1
 387 501.75 l 1,18,-1
 332.25 534.75 l 1,19,-1
 306.75 497.25 l 1,20,21
 262.5 534.75 262.5 534.75 207 534.75 c 0,22,23
 166.5 534.75 166.5 534.75 133.125 515.625 c 128,-1,24
 99.75 496.5 99.75 496.5 76.125 460.875 c 128,-1,25
 52.5 425.25 52.5 425.25 39.75 375 c 128,-1,26
 27 324.75 27 324.75 27 263.25 c 0,0,1
165.75 256.5 m 1,27,-1
 164.25 256.5 l 1,28,-1
 164.25 263.25 l 2,29,30
 164.25 322.5 164.25 322.5 166.125 358.125 c 128,-1,31
 168 393.75 168 393.75 172.875 412.875 c 128,-1,32
 177.75 432 177.75 432 185.625 439.125 c 128,-1,33
 193.5 446.25 193.5 446.25 207 446.25 c 0,34,35
 224.25 446.25 224.25 446.25 232.875 433.5 c 128,-1,36
 241.5 420.75 241.5 420.75 244.5 391.5 c 1,37,-1
 165.75 256.5 l 1,27,-1
248.25 273 m 1,38,-1
 249.75 273 l 1,39,-1
 249.75 263.25 l 2,40,41
 249.75 204.75 249.75 204.75 247.875 169.875 c 128,-1,42
 246 135 246 135 241.5 115.5 c 128,-1,43
 237 96 237 96 228.75 88.125 c 128,-1,44
 220.5 80.25 220.5 80.25 207 80.25 c 0,45,46
 189 80.25 189 80.25 180.75 91.875 c 128,-1,47
 172.5 103.5 172.5 103.5 168.75 135.75 c 1,48,-1
 248.25 273 l 1,38,-1
EndSplineSet
Validated: 9
EndChar

StartChar: ugrave
Encoding: 249 249 208
Width: 390
VWidth: 750
GlyphClass: 1
Flags: W
LayerCount: 2
Fore
SplineSet
276 556.5 m 1,0,-1
 204.75 695.25 l 1,1,-1
 63 695.25 l 1,2,-1
 211.5 556.5 l 1,3,-1
 276 556.5 l 1,0,-1
12.75 447.75 m 1,4,-1
 53.25 447.75 l 1,5,-1
 53.25 136.5 l 2,6,7
 53.25 61.5 53.25 61.5 92.625 26.625 c 128,-1,8
 132 -8.25 132 -8.25 200.25 -8.25 c 0,9,10
 261.75 -8.25 261.75 -8.25 298.875 29.625 c 128,-1,11
 336 67.5 336 67.5 336 129 c 2,12,-1
 336 447.75 l 1,13,-1
 378 447.75 l 1,14,-1
 378 526.5 l 1,15,-1
 234.75 526.5 l 1,16,-1
 234.75 447.75 l 1,17,-1
 257.25 447.75 l 1,18,-1
 257.25 132 l 2,19,20
 257.25 99.75 257.25 99.75 246.75 85.125 c 128,-1,21
 236.25 70.5 236.25 70.5 216 70.5 c 0,22,23
 178.5 70.5 178.5 70.5 178.5 126.75 c 2,24,-1
 178.5 447.75 l 1,25,-1
 200.25 447.75 l 1,26,-1
 200.25 526.5 l 1,27,-1
 12.75 526.5 l 1,28,-1
 12.75 447.75 l 1,4,-1
EndSplineSet
Validated: 9
EndChar

StartChar: uacute
Encoding: 250 250 209
Width: 390
VWidth: 750
GlyphClass: 1
Flags: W
LayerCount: 2
Fore
SplineSet
125.25 556.5 m 1,0,-1
 189.75 556.5 l 1,1,-1
 338.25 695.25 l 1,2,-1
 196.5 695.25 l 1,3,-1
 125.25 556.5 l 1,0,-1
12.75 447.75 m 1,4,-1
 53.25 447.75 l 1,5,-1
 53.25 136.5 l 2,6,7
 53.25 61.5 53.25 61.5 92.625 26.625 c 128,-1,8
 132 -8.25 132 -8.25 200.25 -8.25 c 0,9,10
 261.75 -8.25 261.75 -8.25 298.875 29.625 c 128,-1,11
 336 67.5 336 67.5 336 129 c 2,12,-1
 336 447.75 l 1,13,-1
 378 447.75 l 1,14,-1
 378 526.5 l 1,15,-1
 234.75 526.5 l 1,16,-1
 234.75 447.75 l 1,17,-1
 257.25 447.75 l 1,18,-1
 257.25 132 l 2,19,20
 257.25 99.75 257.25 99.75 246.75 85.125 c 128,-1,21
 236.25 70.5 236.25 70.5 216 70.5 c 0,22,23
 178.5 70.5 178.5 70.5 178.5 126.75 c 2,24,-1
 178.5 447.75 l 1,25,-1
 200.25 447.75 l 1,26,-1
 200.25 526.5 l 1,27,-1
 12.75 526.5 l 1,28,-1
 12.75 447.75 l 1,4,-1
EndSplineSet
Validated: 9
EndChar

StartChar: ucircumflex
Encoding: 251 251 210
Width: 390
VWidth: 750
GlyphClass: 1
Flags: W
LayerCount: 2
Fore
SplineSet
74.25 553.5 m 1,0,-1
 144 553.5 l 1,1,-1
 195.75 625.5 l 1,2,-1
 246.75 553.5 l 1,3,-1
 316.5 553.5 l 1,4,-1
 249 695.25 l 1,5,-1
 141.75 695.25 l 1,6,-1
 74.25 553.5 l 1,0,-1
12.75 447.75 m 1,7,-1
 53.25 447.75 l 1,8,-1
 53.25 136.5 l 2,9,10
 53.25 61.5 53.25 61.5 92.625 26.625 c 128,-1,11
 132 -8.25 132 -8.25 200.25 -8.25 c 0,12,13
 261.75 -8.25 261.75 -8.25 298.875 29.625 c 128,-1,14
 336 67.5 336 67.5 336 129 c 2,15,-1
 336 447.75 l 1,16,-1
 378 447.75 l 1,17,-1
 378 526.5 l 1,18,-1
 234.75 526.5 l 1,19,-1
 234.75 447.75 l 1,20,-1
 257.25 447.75 l 1,21,-1
 257.25 132 l 2,22,23
 257.25 99.75 257.25 99.75 246.75 85.125 c 128,-1,24
 236.25 70.5 236.25 70.5 216 70.5 c 0,25,26
 178.5 70.5 178.5 70.5 178.5 126.75 c 2,27,-1
 178.5 447.75 l 1,28,-1
 200.25 447.75 l 1,29,-1
 200.25 526.5 l 1,30,-1
 12.75 526.5 l 1,31,-1
 12.75 447.75 l 1,7,-1
EndSplineSet
Validated: 9
EndChar

StartChar: udieresis
Encoding: 252 252 211
Width: 390
VWidth: 750
GlyphClass: 1
Flags: W
LayerCount: 2
Fore
SplineSet
117.75 675.75 m 256,0,1
 98.25 675.75 98.25 675.75 84 661.875 c 128,-1,2
 69.75 648 69.75 648 69.75 628.5 c 256,3,4
 69.75 609 69.75 609 84 594.75 c 128,-1,5
 98.25 580.5 98.25 580.5 117.75 580.5 c 256,6,7
 137.25 580.5 137.25 580.5 151.125 594.75 c 128,-1,8
 165 609 165 609 165 628.5 c 256,9,10
 165 648 165 648 151.125 661.875 c 128,-1,11
 137.25 675.75 137.25 675.75 117.75 675.75 c 256,0,1
274.5 675.75 m 256,12,13
 255 675.75 255 675.75 240.75 661.875 c 128,-1,14
 226.5 648 226.5 648 226.5 628.5 c 256,15,16
 226.5 609 226.5 609 240.75 594.75 c 128,-1,17
 255 580.5 255 580.5 274.5 580.5 c 256,18,19
 294 580.5 294 580.5 307.875 594.75 c 128,-1,20
 321.75 609 321.75 609 321.75 628.5 c 256,21,22
 321.75 648 321.75 648 307.875 661.875 c 128,-1,23
 294 675.75 294 675.75 274.5 675.75 c 256,12,13
12.75 447.75 m 1,24,-1
 53.25 447.75 l 1,25,-1
 53.25 136.5 l 2,26,27
 53.25 61.5 53.25 61.5 92.625 26.625 c 128,-1,28
 132 -8.25 132 -8.25 200.25 -8.25 c 0,29,30
 261.75 -8.25 261.75 -8.25 298.875 29.625 c 128,-1,31
 336 67.5 336 67.5 336 129 c 2,32,-1
 336 447.75 l 1,33,-1
 378 447.75 l 1,34,-1
 378 526.5 l 1,35,-1
 234.75 526.5 l 1,36,-1
 234.75 447.75 l 1,37,-1
 257.25 447.75 l 1,38,-1
 257.25 132 l 2,39,40
 257.25 99.75 257.25 99.75 246.75 85.125 c 128,-1,41
 236.25 70.5 236.25 70.5 216 70.5 c 0,42,43
 178.5 70.5 178.5 70.5 178.5 126.75 c 2,44,-1
 178.5 447.75 l 1,45,-1
 200.25 447.75 l 1,46,-1
 200.25 526.5 l 1,47,-1
 12.75 526.5 l 1,48,-1
 12.75 447.75 l 1,24,-1
EndSplineSet
Validated: 9
EndChar

StartChar: yacute
Encoding: 253 253 212
Width: 429
VWidth: 750
GlyphClass: 1
Flags: W
LayerCount: 2
Fore
SplineSet
144.75 556.5 m 1,0,-1
 209.25 556.5 l 1,1,-1
 357.75 695.25 l 1,2,-1
 216 695.25 l 1,3,-1
 144.75 556.5 l 1,0,-1
106.5 0 m 1,4,-1
 316.5 0 l 1,5,-1
 316.5 78.75 l 1,6,-1
 275.25 78.75 l 1,7,-1
 275.25 200.25 l 1,8,-1
 382.5 447.75 l 1,9,-1
 419.25 447.75 l 1,10,-1
 419.25 526.5 l 1,11,-1
 248.25 526.5 l 1,12,-1
 248.25 447.75 l 1,13,-1
 296.25 447.75 l 1,14,-1
 228.75 290.25 l 1,15,-1
 164.25 447.75 l 1,16,-1
 211.5 447.75 l 1,17,-1
 211.5 526.5 l 1,18,-1
 9.75 526.5 l 1,19,-1
 9.75 447.75 l 1,20,-1
 45.75 447.75 l 1,21,-1
 150 200.25 l 1,22,-1
 150 78.75 l 1,23,-1
 106.5 78.75 l 1,24,-1
 106.5 0 l 1,4,-1
EndSplineSet
Validated: 9
EndChar

StartChar: thorn
Encoding: 254 254 213
Width: 406
VWidth: 750
GlyphClass: 1
Flags: W
LayerCount: 2
Fore
SplineSet
54 457.5 m 1,0,-1
 54 69 l 1,1,-1
 17.25 69 l 1,2,-1
 17.25 0 l 1,3,-1
 216 0 l 1,4,-1
 216 69 l 1,5,-1
 179.25 69 l 1,6,-1
 179.25 97.5 l 1,7,8
 214.5 97.5 214.5 97.5 247.5 102.375 c 128,-1,9
 280.5 107.25 280.5 107.25 311.625 123.375 c 128,-1,10
 342.75 139.5 342.75 139.5 363 173.25 c 128,-1,11
 383.25 207 383.25 207 383.25 260.25 c 0,12,13
 383.25 303.75 383.25 303.75 367.5 336.375 c 128,-1,14
 351.75 369 351.75 369 325.125 389.25 c 128,-1,15
 298.5 409.5 298.5 409.5 264.75 419.25 c 128,-1,16
 231 429 231 429 194.25 429 c 2,17,-1
 179.25 429 l 1,18,-1
 179.25 457.5 l 1,19,-1
 216 457.5 l 1,20,-1
 216 526.5 l 1,21,-1
 17.25 526.5 l 1,22,-1
 17.25 457.5 l 1,23,-1
 54 457.5 l 1,0,-1
179.25 350.25 m 1,24,25
 213 350.25 213 350.25 231.75 330.75 c 128,-1,26
 250.5 311.25 250.5 311.25 250.5 264 c 0,27,28
 250.5 215.25 250.5 215.25 232.5 195.75 c 128,-1,29
 214.5 176.25 214.5 176.25 179.25 176.25 c 1,30,-1
 179.25 350.25 l 1,24,25
EndSplineSet
Validated: 9
EndChar

StartChar: ydieresis
Encoding: 255 255 214
Width: 448
GlyphClass: 1
Flags: W
LayerCount: 2
Fore
SplineSet
121 693 m 256,0,1
 95 693 95 693 76 674.5 c 128,-1,2
 57 656 57 656 57 630 c 256,3,4
 57 604 57 604 76 585 c 128,-1,5
 95 566 95 566 121 566 c 256,6,7
 147 566 147 566 165.5 585 c 128,-1,8
 184 604 184 604 184 630 c 256,9,10
 184 656 184 656 165.5 674.5 c 128,-1,11
 147 693 147 693 121 693 c 256,0,1
330 693 m 256,12,13
 304 693 304 693 285 674.5 c 128,-1,14
 266 656 266 656 266 630 c 256,15,16
 266 604 266 604 285 585 c 128,-1,17
 304 566 304 566 330 566 c 256,18,19
 356 566 356 566 374.5 585 c 128,-1,20
 393 604 393 604 393 630 c 256,21,22
 393 656 393 656 374.5 674.5 c 128,-1,23
 356 693 356 693 330 693 c 256,12,13
101 -222 m 1,24,-1
 246 -222 l 1,25,-1
 397 385 l 1,26,-1
 436 385 l 1,27,-1
 436 490 l 1,28,-1
 261 490 l 1,29,-1
 261 385 l 1,30,-1
 293 385 l 1,31,-1
 247 194 l 1,32,-1
 245 194 l 1,33,-1
 179 385 l 1,34,-1
 212 385 l 1,35,-1
 212 490 l 1,36,-1
 12 490 l 1,37,-1
 12 385 l 1,38,-1
 47 385 l 1,39,-1
 191 -27 l 1,40,-1
 170 -117 l 1,41,-1
 101 -117 l 1,42,-1
 101 -222 l 1,24,-1
EndSplineSet
Validated: 9
EndChar
